<svg width="364" height="376" viewBox="0 0 364 376" fill="none" xmlns="http://www.w3.org/2000/svg" xmlns:xlink="http://www.w3.org/1999/xlink">
<path d="M326.976,207.364C326.976,264.986 278.046,311.698 217.687,311.698C157.329,311.698 58.864,264.986 58.864,207.364C58.864,149.742 157.329,103.03 217.687,103.03C278.046,103.03 326.976,149.742 326.976,207.364Z" transform="rotate(-84.5 192.92 207.364)" fill="#265073"/>
<path d="M267.437,103.364C267.437,160.986 218.507,207.698 158.148,207.698C97.789,207.698 -0.675,160.986 -0.675,103.364C-0.675,45.742 97.789,-0.97 158.148,-0.97C218.507,-0.97 267.437,45.742 267.437,103.364Z" transform="rotate(-84.5 133.381 103.364)" fill="#64CACB"/>
</svg>
