<svg width="40" height="24" viewBox="0 0 40 24" fill="none" xmlns="http://www.w3.org/2000/svg" xmlns:xlink="http://www.w3.org/1999/xlink">
<path d="M37.798,15.265C36.988,16.42 35.551,16.567 34.589,15.593C34.496,15.499 34.41,15.396 34.33,15.285L23.509,19.402L21.825,16.086L34.707,11.309C35.718,10.413 37.142,10.671 37.887,11.886C38.511,12.901 38.475,14.299 37.798,15.265Z" fill="#FFB6B6"/>
<path d="M-0.523,4.977C-0.523,4.977 4.269,-1.498 6.356,1.253C8.444,4.003 14.956,16.056 14.956,16.056L30.158,12.203L31.628,17.022L14.367,23.742C13.069,24.247 11.647,23.723 10.808,22.431L-0.523,4.977Z" fill="#64CACB"/>
</svg>
