<svg width="84" height="100" viewBox="0 0 84 100" fill="none" xmlns="http://www.w3.org/2000/svg" xmlns:xlink="http://www.w3.org/1999/xlink">
<path d="M79.132,94.436C82.005,91.053 84.094,84.974 83.667,78.827C81.08,83.679 77.626,86.722 73.916,87.417C72.485,87.676 70.878,87.694 69.862,89.533C69.23,90.677 68.961,92.349 68.947,93.965C68.933,95.581 69.148,97.172 69.362,98.742L69.309,99.135C72.737,98.906 76.259,97.818 79.132,94.436Z" fill="#F0F0F0"/>
<path d="M83.595,78.825C82.52,83.571 80.645,87.585 78.235,90.296C77.722,90.896 77.16,91.346 76.569,91.63C75.989,91.873 75.383,91.831 74.815,91.509C74.282,91.227 73.755,90.827 73.193,90.785C72.905,90.77 72.619,90.866 72.353,91.066C72.087,91.266 71.848,91.565 71.651,91.943C71.145,92.863 70.853,94.056 70.59,95.241C70.297,96.557 70.005,97.931 69.41,98.906C69.338,99.024 69.443,99.219 69.515,99.101C70.551,97.406 70.665,94.686 71.479,92.72C71.859,91.802 72.395,91.086 73.049,91.055C73.622,91.029 74.166,91.44 74.704,91.734C75.256,92.063 75.844,92.144 76.417,91.968C77.014,91.739 77.585,91.329 78.105,90.754C79.288,89.494 80.354,87.905 81.264,86.047C82.309,83.936 83.147,81.519 83.74,78.898C83.777,78.736 83.631,78.664 83.595,78.825Z" fill="#FFFFFF"/>
<path d="M75.075,91.716C75.158,89.948 75.607,88.301 76.332,87.103C76.404,86.985 76.299,86.789 76.227,86.908C75.473,88.156 75.008,89.872 74.924,91.713C74.916,91.888 75.067,91.891 75.075,91.716Z" fill="#FFFFFF"/>
<path d="M73.866,67.579C73.859,67.688 73.851,67.797 73.843,67.907C73.738,69.373 73.568,70.821 73.334,72.237C73.317,72.347 73.299,72.458 73.28,72.567C72.696,75.968 71.767,79.143 70.541,81.931C70.053,83.039 69.519,84.079 68.943,85.042C68.148,86.37 67.227,87.697 66.736,89.373C66.684,89.547 66.637,89.727 66.597,89.911L69.048,98.989C69.06,99.004 69.07,99.021 69.081,99.036L69.17,99.407C69.202,99.361 69.234,99.312 69.265,99.266C69.284,99.24 69.302,99.211 69.32,99.185C69.332,99.167 69.344,99.148 69.356,99.133C69.36,99.127 69.364,99.121 69.367,99.116C69.378,99.101 69.388,99.084 69.398,99.07C69.579,98.798 69.759,98.523 69.938,98.246C69.939,98.245 69.939,98.245 69.94,98.242C71.302,96.121 72.578,93.777 73.616,91.157C73.647,91.078 73.68,90.998 73.71,90.915C74.174,89.729 74.584,88.477 74.935,87.171C75.127,86.455 75.298,85.721 75.448,84.973C75.834,83.04 76.049,81.01 76.085,78.956C76.158,74.862 75.504,70.771 73.983,67.804C73.945,67.728 73.906,67.654 73.866,67.579Z" fill="#F0F0F0"/>
<path d="M73.808,67.655C74.531,72.614 74.372,77.858 73.352,82.643C73.142,83.68 72.843,84.651 72.467,85.52C72.084,86.345 71.587,86.97 71.025,87.331C70.506,87.686 69.951,87.94 69.489,88.517C69.254,88.819 69.058,89.207 68.912,89.655C68.766,90.103 68.675,90.603 68.643,91.119C68.546,92.404 68.711,93.674 68.895,94.907C69.1,96.275 69.325,97.69 69.175,99.116C69.156,99.289 69.306,99.33 69.324,99.157C69.586,96.677 68.771,94.381 68.765,91.926C68.763,90.78 68.952,89.625 69.464,88.889C69.912,88.246 70.484,87.983 71.012,87.631C71.562,87.294 72.058,86.719 72.457,85.956C72.858,85.124 73.176,84.175 73.4,83.15C73.925,80.858 74.247,78.43 74.354,75.956C74.485,73.135 74.348,70.293 73.948,67.555C73.924,67.385 73.783,67.487 73.808,67.655Z" fill="#FFFFFF"/>
<path d="M73.73,81.137C74.198,81.337 74.69,81.231 75.118,80.836C75.546,80.442 75.883,79.785 76.068,78.984C76.105,78.822 75.967,78.71 75.93,78.872C75.758,79.619 75.445,80.231 75.046,80.596C74.647,80.962 74.188,81.058 73.753,80.867C73.659,80.826 73.636,81.096 73.73,81.137Z" fill="#FFFFFF"/>
<path d="M71.302,87.214C70.779,85.712 70.588,83.908 70.768,82.164C70.786,81.991 70.637,81.95 70.619,82.122C70.433,83.939 70.634,85.814 71.18,87.375C71.232,87.524 71.354,87.362 71.302,87.214Z" fill="#FFFFFF"/>
<path d="M68.714,99.548L2.189,99.548C1.504,99.546 0.847,99.054 0.363,98.179C-0.122,97.304 -0.394,96.118 -0.395,94.88L-0.395,4.668C-0.394,3.43 -0.122,2.244 0.363,1.369C0.847,0.494 1.504,0.001 2.189,0L68.714,0C69.399,0.001 70.056,0.494 70.541,1.369C71.025,2.244 71.297,3.43 71.298,4.668L71.298,94.88C71.297,96.118 71.025,97.304 70.541,98.179C70.056,99.054 69.399,99.546 68.714,99.548Z" fill="#E4E4E4"/>
</svg>
