<svg width="18" height="32" viewBox="0 0 18 32" fill="none" xmlns="http://www.w3.org/2000/svg" xmlns:xlink="http://www.w3.org/1999/xlink">
<path d="M2.897,2.366L4.366,0.43L6.827,1.398L7.493,4.257L8.641,5.285C9.019,5.624 9.345,6.122 9.592,6.738C9.839,7.355 10,8.07 10.061,8.823L11.701,29.281L2.103,28.611L0.941,4.518C0.929,4.266 0.945,4.013 0.988,3.772C1.031,3.532 1.1,3.31 1.192,3.118C1.283,2.927 1.395,2.771 1.52,2.66C1.646,2.548 1.782,2.483 1.922,2.468L2.897,2.366Z" fill="#3F3D56"/>
<path d="M9.249,6.883L10.135,9.041L13.996,30.313L12.186,31.622L9.288,21.71L9.249,6.883Z" fill="#3F3D56"/>
<g opacity="0.1">
<path d="M1.362,11.478L4.86,20.266L8.77,24.872L1.362,11.478Z" fill="#000000"/>
</g>
<path d="M15.616,8.059L12.068,7.303C11.943,7.276 11.817,7.294 11.696,7.356C11.575,7.418 11.462,7.522 11.363,7.662C11.265,7.803 11.182,7.977 11.121,8.175C11.06,8.373 11.02,8.591 11.006,8.817C10.991,9.042 11.001,9.271 11.035,9.489C11.069,9.708 11.127,9.912 11.205,10.09C11.282,10.268 11.379,10.417 11.489,10.528C11.598,10.639 11.719,10.71 11.844,10.736L15.391,11.492C15.643,11.545 15.896,11.415 16.095,11.131C16.294,10.847 16.422,10.432 16.452,9.978C16.481,9.523 16.41,9.066 16.253,8.706C16.097,8.346 15.868,8.114 15.616,8.059ZM16.2,9.925C16.178,10.259 16.083,10.563 15.937,10.771C15.791,10.978 15.605,11.073 15.421,11.034L11.873,10.278C11.689,10.237 11.521,10.067 11.406,9.803C11.292,9.539 11.239,9.205 11.261,8.872C11.283,8.539 11.377,8.235 11.522,8.027C11.668,7.819 11.853,7.723 12.038,7.762L15.585,8.517C15.77,8.558 15.938,8.728 16.053,8.992C16.169,9.256 16.221,9.591 16.2,9.925Z" fill="#64CACB"/>
<path d="M12.47,23.893C12.42,23.682 12.345,23.494 12.25,23.342C12.155,23.189 12.043,23.076 11.922,23.01C11.8,22.944 11.672,22.927 11.547,22.96C11.421,22.993 11.301,23.075 11.195,23.201L8.75,19.807L8.634,22.694L10.974,25.475C11.103,25.782 11.29,25.994 11.499,26.069C11.709,26.145 11.926,26.079 12.111,25.884C12.295,25.689 12.433,25.379 12.5,25.012C12.566,24.645 12.555,24.247 12.47,23.893Z" fill="#FFB6B6"/>
<path d="M2.615,3.408L1.81,2.721C1.81,2.721 0.514,3.379 1.144,6.476L4.955,19.303L9.609,24.225L11.059,21.902L6.403,15.246L2.615,3.408Z" fill="#3F3D56"/>
</svg>
