<svg width="1318" height="628" viewBox="0 0 1318 628" fill="none" xmlns="http://www.w3.org/2000/svg" xmlns:xlink="http://www.w3.org/1999/xlink">
<path d="M1044.09,467.148C1044.09,586.442 723.506,496.148 558.454,496.148C393.402,496.148 0.68,586.442 0.68,467.148C0.68,347.856 378.454,56.986 559.724,57.511C950.452,58.643 1044.09,347.856 1044.09,467.148Z" transform="rotate(359.668 522.385 293.202)" fill="#64CACB"/>
<path d="M596.116,336.002L506.062,336.002C501.717,336.002 497.5,337.772 494.106,341.021C490.712,344.27 488.342,348.805 487.387,353.881L441.885,595.524C441.389,598.16 441.38,600.894 441.86,603.534C442.339,606.174 443.295,608.658 444.661,610.808C446.026,612.96 447.768,614.726 449.765,615.986C451.761,617.246 453.963,617.968 456.217,618.102L548.793,623.562C553.75,623.854 558.627,621.978 562.513,618.282C566.399,614.584 569.029,609.322 569.913,603.474L595.726,432.63L597.646,433.287L602.586,400.905L600.61,400.314L607.815,352.625C608.124,350.582 608.052,348.483 607.606,346.477C607.159,344.471 606.348,342.608 605.231,341.021C604.114,339.433 602.719,338.16 601.143,337.292C599.568,336.424 597.853,335.983 596.119,336L596.116,336.002Z" fill="#3F3D56"/>
<path d="M517.916,341.211L507.405,341.211C504.387,341.211 501.459,342.447 499.107,344.714C496.756,346.981 495.123,350.143 494.48,353.674L450.803,593.347C450.552,594.727 450.552,596.155 450.804,597.535C451.056,598.915 451.553,600.213 452.263,601.341C452.973,602.471 453.877,603.401 454.915,604.073C455.953,604.745 457.1,605.139 458.277,605.231L550.552,612.473C553.155,612.677 555.73,611.727 557.785,609.803C559.841,607.879 561.232,605.117 561.695,602.043L598.964,354.318C599.205,352.714 599.15,351.067 598.801,349.492C598.452,347.918 597.819,346.454 596.947,345.204C596.074,343.954 594.983,342.948 593.75,342.258C592.517,341.569 591.173,341.211 589.813,341.211L579.841,341.211C578.876,341.211 577.938,341.592 577.172,342.295C576.405,342.998 575.854,343.983 575.603,345.099C575.382,346.084 574.895,346.955 574.218,347.576C573.542,348.196 572.713,348.532 571.861,348.532L524.521,348.532C522.852,348.532 521.245,347.778 520.021,346.421C518.796,345.063 518.045,343.203 517.916,341.211Z" fill="#FFFFFF"/>
<path d="M568.926,508.762C569.106,508.77 569.281,508.699 569.421,508.565C569.561,508.43 569.656,508.24 569.688,508.028L590.094,373.188C590.114,373.06 590.11,372.928 590.083,372.802C590.056,372.676 590.007,372.558 589.938,372.457C589.87,372.356 589.785,372.275 589.688,372.219C589.591,372.162 589.485,372.132 589.377,372.13L496.537,370.817L496.529,370.817C496.36,370.819 496.197,370.889 496.066,371.016C495.935,371.144 495.844,371.32 495.808,371.517L471.752,501.981C471.729,502.108 471.728,502.24 471.751,502.367C471.774,502.495 471.82,502.615 471.885,502.719C471.95,502.823 472.033,502.908 472.128,502.969C472.224,503.029 472.329,503.064 472.437,503.071L568.926,508.762Z" fill="#E6E6E6"/>
<path d="M488.361,517.48C488.276,517.481 488.194,517.515 488.128,517.578C488.062,517.641 488.016,517.728 487.996,517.827L487.127,522.288C487.115,522.351 487.114,522.417 487.125,522.48C487.136,522.543 487.158,522.603 487.19,522.655C487.222,522.708 487.263,522.751 487.31,522.782C487.358,522.814 487.41,522.832 487.464,522.837L536.578,527.016C536.67,527.023 536.76,526.991 536.832,526.924C536.905,526.858 536.954,526.762 536.973,526.655L537.809,521.493C537.819,521.431 537.818,521.366 537.805,521.304C537.793,521.242 537.769,521.184 537.737,521.133C537.704,521.083 537.663,521.042 537.616,521.012C537.569,520.982 537.517,520.965 537.464,520.961L488.383,517.481L488.361,517.48Z" fill="#E6E6E6"/>
<path d="M548.032,543.587C548.12,543.596 548.208,543.566 548.281,543.504C548.353,543.442 548.404,543.351 548.425,543.248L549.489,538.075C549.502,538.012 549.504,537.946 549.493,537.882C549.483,537.818 549.461,537.757 549.429,537.704C549.397,537.652 549.355,537.608 549.308,537.576C549.26,537.545 549.207,537.526 549.153,537.521L486.43,532.269C486.345,532.261 486.26,532.288 486.19,532.346C486.12,532.405 486.069,532.49 486.045,532.588L484.939,537.058C484.923,537.122 484.92,537.189 484.928,537.255C484.937,537.321 484.958,537.384 484.989,537.439C485.021,537.494 485.062,537.539 485.11,537.573C485.159,537.606 485.212,537.626 485.268,537.632L548.032,543.587Z" fill="#E6E6E6"/>
<path d="M544.663,560.167C544.752,560.175 544.84,560.146 544.912,560.083C544.984,560.021 545.036,559.93 545.057,559.827L546.121,554.655C546.134,554.591 546.136,554.525 546.125,554.461C546.115,554.397 546.093,554.336 546.06,554.284C546.028,554.231 545.987,554.187 545.939,554.155C545.892,554.124 545.839,554.105 545.784,554.1L483.062,548.848C482.977,548.84 482.892,548.867 482.822,548.926C482.752,548.984 482.701,549.069 482.677,549.168L481.571,553.637C481.555,553.701 481.552,553.769 481.56,553.834C481.569,553.9 481.59,553.963 481.621,554.018C481.653,554.073 481.694,554.119 481.742,554.152C481.79,554.185 481.844,554.205 481.9,554.211L544.663,560.167Z" fill="#E6E6E6"/>
<path d="M435.915,618.535C435.915,622.285 407.244,622.684 371.957,625.325C336.702,627.963 308,622.285 308,618.535C308,614.785 336.836,607.24 371.957,611.745C407.244,616.272 435.915,614.785 435.915,618.535Z" fill="#E6E6E6"/>
<path d="M515.776,588.51C515.865,588.522 515.955,588.493 516.028,588.431C516.101,588.369 516.153,588.277 516.174,588.173L518.425,577.395C518.438,577.332 518.439,577.267 518.429,577.203C518.419,577.139 518.398,577.079 518.366,577.026C518.334,576.973 518.294,576.929 518.247,576.897C518.199,576.865 518.147,576.845 518.093,576.84L479.575,572.961C479.485,572.954 479.396,572.985 479.323,573.049C479.251,573.112 479.199,573.205 479.179,573.31L477.259,583.654C477.247,583.716 477.247,583.78 477.258,583.842C477.269,583.904 477.29,583.963 477.322,584.015C477.353,584.066 477.393,584.109 477.439,584.14C477.485,584.172 477.537,584.191 477.589,584.197L515.776,588.51Z" fill="#0B8688"/>
<path d="M360.251,544.593C360.736,544.195 361.142,543.675 361.441,543.069C361.739,542.462 361.924,541.785 361.98,541.084C362.036,540.384 361.964,539.677 361.767,539.013C361.571,538.35 361.255,537.746 360.843,537.244L362.402,495.563L354.462,496.63L354.924,537.4C354.265,538.285 353.901,539.429 353.9,540.614C353.899,541.799 354.261,542.944 354.918,543.831C355.575,544.717 356.481,545.285 357.464,545.425C358.447,545.565 359.438,545.269 360.251,544.591L360.251,544.593Z" fill="#A0616A"/>
<path d="M374.736,615.15L379.255,616.101L383.722,595.684L377.8,594.28L374.736,615.15Z" fill="#A0616A"/>
<path d="M373.358,614.86L387.872,614.86L387.872,621.5L378.965,621.5C377.478,621.5 376.052,620.801 375,619.555C373.949,618.31 373.358,616.621 373.358,614.86L373.358,614.86Z" transform="rotate(-336.227 380.615 618.18)" fill="#2F2E41"/>
<path d="M362.332,617.859L366.92,617.859L369.103,596.669L362.331,596.669L362.332,617.859Z" fill="#A0616A"/>
<path d="M361.347,616.29L375.767,616.29L375.767,622.96L366.918,622.96C365.441,622.96 364.023,622.258 362.979,621.007C361.934,619.756 361.347,618.059 361.347,616.29Z" transform="rotate(359.993 368.557 619.625)" fill="#2F2E41"/>
<path d="M381.475,610.263C381.404,610.263 381.332,610.258 381.261,610.248L375.86,609.716C375.615,609.681 375.377,609.587 375.163,609.44C374.948,609.292 374.761,609.093 374.612,608.856C374.464,608.619 374.357,608.348 374.299,608.06C374.24,607.772 374.231,607.473 374.272,607.18L379.634,575.508L376.265,554.236C376.238,554.063 376.159,553.908 376.044,553.799C375.928,553.69 375.784,553.635 375.637,553.644C375.49,553.652 375.351,553.724 375.245,553.846C375.139,553.968 375.074,554.132 375.061,554.307L370.097,608.36C370.051,608.929 369.822,609.455 369.458,609.826C369.094,610.197 368.624,610.384 368.148,610.348L363.059,610.121C362.614,610.083 362.195,609.851 361.882,609.469C361.569,609.087 361.384,608.581 361.362,608.046L361.768,542.728L388.147,538.78L389.99,572.854L389.982,572.89L383.249,608.592C383.152,609.068 382.924,609.491 382.603,609.794C382.281,610.097 381.884,610.262 381.475,610.263Z" fill="#2F2E41"/>
<path d="M370.467,468.555C375.544,468.555 379.659,463.628 379.659,457.55C379.659,451.471 375.544,446.544 370.467,446.544C365.39,446.544 361.275,451.471 361.275,457.55C361.275,463.628 365.39,468.555 370.467,468.555Z" fill="#A0616A"/>
<path d="M379.128,547.698C377.691,547.708 376.281,547.226 375.065,546.307C370.611,542.974 365.555,544.299 362.936,545.385C362.676,545.494 362.399,545.531 362.126,545.494C361.852,545.456 361.589,545.345 361.356,545.169C361.126,544.996 360.932,544.763 360.788,544.488C360.644,544.212 360.554,543.901 360.524,543.578L355.763,492.663C354.965,484.132 359.257,476.111 365.969,473.592C366.221,473.497 366.477,473.407 366.738,473.323C368.826,472.645 371.013,472.523 373.145,472.966C375.277,473.409 377.302,474.406 379.078,475.887C380.886,477.384 382.399,479.338 383.509,481.61C384.619,483.883 385.3,486.419 385.503,489.04L389.512,540.297C389.539,540.628 389.501,540.963 389.402,541.275C389.303,541.586 389.145,541.866 388.94,542.092C387.534,543.648 383.456,547.698 379.128,547.698Z" fill="#0B8688"/>
<path d="M364.629,503.581L353.888,502.167C353.582,502.127 353.287,502.008 353.023,501.819C352.759,501.63 352.533,501.376 352.358,501.072C352.184,500.769 352.067,500.424 352.014,500.061C351.961,499.699 351.974,499.327 352.052,498.971L354.786,486.493C354.867,485.558 355.101,484.651 355.477,483.825C355.852,482.999 356.36,482.27 356.971,481.68C357.583,481.091 358.286,480.652 359.04,480.39C359.794,480.128 360.584,480.047 361.365,480.152C362.145,480.258 362.9,480.547 363.586,481.004C364.273,481.461 364.877,482.077 365.363,482.815C365.85,483.553 366.209,484.399 366.421,485.304C366.633,486.21 366.692,487.156 366.597,488.089L367.003,500.939C367.014,501.307 366.96,501.673 366.842,502.014C366.725,502.354 366.547,502.66 366.322,502.911C366.097,503.162 365.83,503.352 365.538,503.467C365.246,503.583 364.936,503.623 364.631,503.582L364.629,503.581Z" fill="#0B8688"/>
<path d="M389.468,542.809C389.909,542.344 390.26,541.769 390.495,541.124C390.731,540.479 390.845,539.78 390.831,539.077C390.816,538.373 390.673,537.682 390.411,537.052C390.15,536.422 389.776,535.868 389.316,535.429L386.669,493.827L378.888,495.924L383.454,536.439C382.89,537.412 382.643,538.6 382.761,539.777C382.879,540.953 383.354,542.037 384.096,542.823C384.837,543.608 385.793,544.041 386.783,544.038C387.773,544.035 388.728,543.598 389.466,542.809L389.468,542.809Z" fill="#A0616A"/>
<path d="M375.906,500.966C375.68,500.716 375.503,500.41 375.386,500.07C375.268,499.729 375.213,499.363 375.225,498.995L375.631,486.146C375.544,485.217 375.61,484.277 375.826,483.379C376.041,482.481 376.403,481.643 376.889,480.913C377.376,480.182 377.978,479.573 378.661,479.121C379.344,478.669 380.094,478.382 380.87,478.277C381.645,478.173 382.43,478.252 383.18,478.51C383.93,478.768 384.63,479.201 385.24,479.784C385.851,480.366 386.359,481.087 386.737,481.904C387.115,482.722 387.354,483.621 387.442,484.549L390.176,497.027C390.254,497.383 390.267,497.755 390.214,498.118C390.161,498.48 390.044,498.825 389.869,499.128C389.695,499.432 389.468,499.687 389.205,499.876C388.941,500.065 388.646,500.183 388.34,500.224L377.599,501.638C377.293,501.678 376.984,501.639 376.692,501.523C376.4,501.407 376.132,501.217 375.907,500.966L375.906,500.966Z" fill="#0B8688"/>
<path d="M369.92,468.97C369.757,468.97 369.593,468.947 369.434,468.902L369.387,468.889C361.305,467.41 359.519,461.803 359.127,459.463C358.721,457.04 359.183,454.701 360.227,453.792C359.658,451.641 359.75,449.732 360.5,448.118C361.809,445.304 364.647,444.354 365.028,444.236C367.295,442.233 370.008,443.57 370.502,443.841C374.888,441.899 376.565,443.515 376.867,443.876C378.828,444.298 380.023,445.205 380.419,446.572C381.165,449.14 378.808,452.335 378.707,452.47L378.655,452.54L375.144,452.74C374.811,452.759 374.485,452.862 374.187,453.041C373.89,453.221 373.627,453.473 373.416,453.783C373.204,454.092 373.05,454.45 372.962,454.836C372.874,455.221 372.855,455.624 372.906,456.019C373.001,456.528 373.121,457.03 373.265,457.522C373.864,459.765 374.313,461.682 373.735,462.41C373.603,462.551 373.442,462.645 373.268,462.681C373.094,462.717 372.915,462.694 372.752,462.614C372.203,462.438 371.831,462.475 371.645,462.724C371.357,463.109 371.445,464.084 371.893,465.468C372.033,465.906 372.071,466.382 372.002,466.844C371.933,467.306 371.76,467.736 371.501,468.089C371.307,468.364 371.064,468.585 370.791,468.737C370.518,468.889 370.221,468.969 369.92,468.97L369.92,468.97Z" fill="#2F2E41"/>
<path d="M1302.383,265.624C1302.383,333.29 1391.949,265.624 907.155,317.278C740.834,317.278 606.003,262.424 606.003,194.76C606.003,127.095 1041.987,0.47 1208.309,0.47C1374.631,0.47 1302.383,197.96 1302.383,265.624Z" transform="rotate(-17.555 962 158.874)" fill="#9CE3E4" fill-opacity="0.41"/>
</svg>
