<svg width="120" height="102" viewBox="0 0 120 102" fill="none" xmlns="http://www.w3.org/2000/svg" xmlns:xlink="http://www.w3.org/1999/xlink">
<path d="M97.527,89.095C86.882,96.287 73.714,100.195 59.821,100.195C47.136,100.195 35.052,96.935 24.945,90.894C24.963,90.736 24.981,90.58 24.996,90.424C25.265,87.98 25.504,85.604 25.662,83.635C26.273,75.986 47.686,70.888 47.686,70.888C47.686,70.888 47.783,70.969 47.977,71.11C49.159,71.975 53.957,75.11 62.37,75.986C69.872,76.768 72.342,73.059 73.089,71.283C73.315,70.742 73.382,70.379 73.382,70.379L95.406,79.046C96.843,80.757 97.405,84.441 97.515,88.582C97.52,88.753 97.524,88.922 97.527,89.095Z" fill="#0B8688"/>
<path d="M102.248,14.839C90.915,5.395 75.848,0.194 59.821,0.194C43.795,0.194 28.727,5.395 17.395,14.839C6.063,24.283 -0.179,36.839 -0.179,50.194C-0.179,62.384 5.021,73.909 14.548,83.008C15.457,83.879 16.407,84.726 17.395,85.55C17.627,85.743 17.862,85.937 18.099,86.125C18.73,86.634 19.373,87.132 20.027,87.615C20.424,87.911 20.826,88.2 21.232,88.484C21.55,88.708 21.868,88.927 22.19,89.144C22.197,89.149 22.202,89.153 22.208,89.157C23.104,89.758 24.015,90.337 24.945,90.894C35.052,96.935 47.135,100.194 59.821,100.194C73.714,100.194 86.882,96.287 97.526,89.095C98.395,88.508 99.245,87.899 100.08,87.27C100.817,86.713 101.539,86.14 102.248,85.55C102.471,85.364 102.694,85.176 102.913,84.986C103.522,84.463 104.113,83.931 104.69,83.392C114.473,74.234 119.821,62.557 119.821,50.194C119.821,36.839 113.58,24.283 102.248,14.839ZM104.544,82.924C103.98,83.458 103.402,83.984 102.811,84.497C101.891,85.296 100.942,86.07 99.96,86.817C99.588,87.102 99.211,87.38 98.83,87.657C98.397,87.971 97.96,88.279 97.515,88.582C94.012,90.978 90.175,93.046 86.072,94.73C84.451,95.397 82.788,96.005 81.087,96.548C74.481,98.661 67.31,99.818 59.821,99.818C52.594,99.818 45.665,98.74 39.252,96.766C36.62,95.958 34.075,94.997 31.632,93.897C31.274,93.736 30.917,93.572 30.563,93.405C28.7,92.525 26.898,91.565 25.168,90.527C25.111,90.493 25.053,90.458 24.996,90.424C23.765,89.683 22.567,88.903 21.41,88.084C20.986,87.785 20.566,87.482 20.154,87.172C19.481,86.674 18.823,86.161 18.18,85.634C16.962,84.64 15.798,83.604 14.686,82.527C5.706,73.835 0.272,62.535 0.272,50.194C0.272,22.832 26.986,0.57 59.821,0.57C92.657,0.57 119.37,22.832 119.37,50.194C119.37,62.724 113.769,74.183 104.544,82.924Z" fill="#3F3D56"/>
</svg>
