<svg width="16" height="20" viewBox="0 0 16 20" fill="none" xmlns="http://www.w3.org/2000/svg" xmlns:xlink="http://www.w3.org/1999/xlink">
<path d="M13.497,15.749C13.761,15.653 14.002,15.501 14.205,15.301C14.338,15.158 14.44,14.987 14.504,14.8C14.567,14.612 14.589,14.413 14.57,14.215C14.559,14.074 14.516,13.938 14.446,13.817C14.375,13.696 14.278,13.594 14.163,13.518C13.864,13.328 13.469,13.335 13.07,13.526L13.024,10.192L12.7,10.197L12.754,14.116L13.001,13.949C13.287,13.755 13.698,13.615 13.993,13.803C14.066,13.853 14.127,13.919 14.172,13.997C14.216,14.076 14.242,14.163 14.248,14.253C14.262,14.401 14.244,14.549 14.198,14.689C14.151,14.828 14.075,14.956 13.976,15.063C13.625,15.423 13.105,15.544 12.512,15.654L12.569,15.984C12.885,15.934 13.195,15.856 13.497,15.749Z" fill="#2F2E41"/>
<path d="M8.724,7.86C9.811,6.894 11.304,7.759 12.55,7.607C13.743,7.462 14.685,6.357 14.925,5.182C15.206,3.812 14.518,2.439 13.503,1.584C12.392,0.648 10.919,0.38 9.523,0.553C7.922,0.751 6.459,1.522 5.145,2.455C3.878,3.327 2.712,4.348 1.672,5.497C0.74,6.561 -0.05,7.829 -0.302,9.26C-0.531,10.561 -0.356,12.002 0.388,13.104C0.783,13.669 1.311,14.119 1.923,14.411C2.561,14.735 3.241,14.966 3.859,15.332C4.794,15.886 5.702,17.033 5.409,18.228C5.347,18.489 5.223,18.73 5.049,18.929C4.84,19.169 4.463,18.852 4.672,18.612C5.04,18.189 5.026,17.626 4.83,17.121C4.596,16.553 4.183,16.083 3.658,15.789C3.011,15.407 2.297,15.171 1.634,14.823C0.999,14.505 0.448,14.033 0.028,13.447C-0.766,12.308 -1.003,10.824 -0.823,9.452C-0.628,7.967 0.11,6.617 1.035,5.486C2.042,4.256 3.279,3.214 4.543,2.278C5.899,1.274 7.397,0.425 9.055,0.118C10.492,-0.148 12.05,0.016 13.307,0.825C14.48,1.581 15.379,2.88 15.469,4.333C15.501,4.993 15.362,5.651 15.067,6.238C14.771,6.825 14.33,7.32 13.788,7.672C13.232,8.016 12.585,8.171 11.939,8.115C11.249,8.069 10.558,7.85 9.863,7.911C9.548,7.931 9.249,8.056 9.009,8.268C8.772,8.479 8.489,8.07 8.724,7.86Z" fill="#2F2E41"/>
</svg>
