<svg width="30" height="36" viewBox="0 0 30 36" fill="none" xmlns="http://www.w3.org/2000/svg" xmlns:xlink="http://www.w3.org/1999/xlink">
<path d="M11.032,35.146C8.771,34.801 6.609,33.956 4.693,32.669C3.744,32.032 2.865,31.289 2.073,30.454C1.291,29.629 0.542,28.692 0.155,27.594C-0.218,26.578 -0.199,25.452 0.209,24.451C0.61,23.455 1.378,22.665 2.342,22.253C3.313,21.853 4.485,21.81 5.429,22.248C5.879,22.452 6.269,22.776 6.558,23.187C6.692,23.376 6.791,23.589 6.851,23.816C6.906,24.021 6.911,24.238 6.866,24.446C6.81,24.653 6.713,24.846 6.579,25.011C6.446,25.176 6.28,25.31 6.092,25.404C5.679,25.623 5.232,25.764 4.771,25.82C4.308,25.886 3.642,25.945 3.27,25.561C3.193,25.484 3.133,25.393 3.093,25.291C3.065,25.213 3.055,25.129 3.065,25.047C3.06,25.083 3.087,24.968 3.086,24.972C3.08,24.989 3.054,25.031 3.091,24.967C3.102,24.946 3.115,24.925 3.128,24.906C3.116,24.923 3.089,24.95 3.137,24.903C3.177,24.858 3.229,24.825 3.286,24.808C3.308,24.802 3.331,24.796 3.353,24.79C3.41,24.774 3.296,24.791 3.355,24.789C3.377,24.788 3.4,24.789 3.423,24.788C3.48,24.785 3.366,24.771 3.421,24.786C3.442,24.791 3.463,24.797 3.484,24.804C3.53,24.818 3.452,24.769 3.483,24.806C3.519,24.849 3.445,24.764 3.486,24.806C3.507,24.827 3.526,24.849 3.544,24.872C3.616,24.945 3.712,24.986 3.813,24.986C3.913,24.986 4.01,24.945 4.081,24.872C4.15,24.797 4.189,24.698 4.189,24.594C4.189,24.491 4.15,24.391 4.081,24.317C3.707,23.837 2.967,23.955 2.588,24.361C2.105,24.878 2.296,25.698 2.766,26.149C3.298,26.66 4.052,26.695 4.736,26.61C5.315,26.552 5.878,26.388 6.4,26.124C6.918,25.86 7.324,25.408 7.538,24.853C7.635,24.557 7.669,24.243 7.64,23.932C7.61,23.622 7.517,23.321 7.367,23.05C6.763,21.876 5.512,21.274 4.275,21.17C3.638,21.118 2.998,21.197 2.391,21.403C1.784,21.609 1.223,21.937 0.74,22.369C-0.192,23.236 -0.765,24.439 -0.862,25.731C-0.97,27.07 -0.467,28.37 0.265,29.451C1.033,30.548 1.948,31.527 2.984,32.356C5.009,34.027 7.384,35.185 9.92,35.737C10.222,35.802 10.525,35.857 10.83,35.903C10.927,35.927 11.029,35.912 11.116,35.861C11.203,35.81 11.267,35.727 11.297,35.629C11.323,35.528 11.31,35.421 11.26,35.331C11.21,35.241 11.128,35.174 11.032,35.146Z" fill="#3F3D56"/>
<path d="M14.279,28.546C13.982,28.545 13.692,28.451 13.448,28.276C13.204,28.101 13.017,27.853 12.913,27.565L7.216,11.796C6.519,9.862 6.594,7.722 7.423,5.844C8.251,3.967 9.767,2.506 11.636,1.782L16.268,-0.006C16.448,-0.075 16.638,-0.108 16.83,-0.101C17.021,-0.094 17.209,-0.048 17.383,0.034C17.556,0.115 17.713,0.23 17.843,0.373C17.973,0.516 18.074,0.685 18.14,0.869L28.693,21.463C28.762,21.649 28.794,21.847 28.788,22.046C28.783,22.244 28.739,22.44 28.66,22.621C28.581,22.802 28.468,22.965 28.327,23.101C28.187,23.237 28.022,23.343 27.842,23.412L14.789,28.45C14.626,28.513 14.453,28.546 14.279,28.546Z" fill="#2F2E41"/>
</svg>
