<svg width="20" height="20" viewBox="0 0 20 20" fill="none" xmlns="http://www.w3.org/2000/svg" xmlns:xlink="http://www.w3.org/1999/xlink">
<path d="M18.609,9.454C18.609,12.074 17.602,14.587 15.809,16.44C14.016,18.293 11.585,19.334 9.05,19.334C6.515,19.334 4.083,18.293 2.291,16.44C0.498,14.587 -0.509,12.074 -0.509,9.454C-0.509,9.141 -0.494,8.833 -0.467,8.528C-0.237,5.999 0.927,3.659 2.783,1.994C4.639,0.329 7.043,-0.534 9.498,-0.415C11.953,-0.296 14.269,0.796 15.966,2.634C17.662,4.472 18.609,6.914 18.609,9.454Z" fill="#E6E6E6"/>
<path d="M11.896,10.111C11.665,9.796 11.36,9.547 11.01,9.386C10.579,9.198 10.133,9.047 9.678,8.934L9.678,6.245C10.378,6.354 11.034,6.663 11.572,7.137L12.1,5.973C11.797,5.694 11.448,5.471 11.07,5.315C10.651,5.14 10.211,5.023 9.762,4.969L9.762,3.605L8.539,3.605L8.539,4.982C8.067,5.037 7.611,5.195 7.203,5.446C6.834,5.672 6.523,5.986 6.297,6.363C6.082,6.731 5.97,7.154 5.975,7.584C5.954,8.05 6.084,8.51 6.346,8.89C6.586,9.22 6.904,9.48 7.269,9.647C7.707,9.841 8.16,9.996 8.624,10.111L8.624,12.688C7.798,12.624 7.012,12.3 6.37,11.759L5.842,12.924C6.201,13.231 6.609,13.47 7.047,13.631C7.528,13.809 8.03,13.917 8.539,13.953L8.539,15.304L9.762,15.304L9.762,13.927C10.442,13.851 11.079,13.549 11.579,13.067C11.799,12.849 11.973,12.586 12.089,12.295C12.206,12.003 12.262,11.69 12.256,11.375C12.276,10.924 12.15,10.479 11.896,10.111ZM8.624,8.649C8.326,8.556 8.049,8.402 7.809,8.197C7.714,8.11 7.638,8.002 7.589,7.881C7.539,7.759 7.515,7.629 7.52,7.497C7.511,7.199 7.617,6.909 7.815,6.692C8.034,6.463 8.317,6.312 8.624,6.258L8.624,8.649ZM10.446,12.213C10.24,12.432 9.97,12.577 9.678,12.626L9.678,10.409C9.957,10.487 10.219,10.622 10.446,10.806C10.532,10.882 10.601,10.977 10.647,11.085C10.692,11.192 10.714,11.308 10.71,11.426C10.722,11.713 10.627,11.994 10.446,12.213Z" fill="#64CACB"/>
</svg>
