<svg width="74" height="82" viewBox="0 0 74 82" fill="none" xmlns="http://www.w3.org/2000/svg" xmlns:xlink="http://www.w3.org/1999/xlink">
<path d="M14.088,75.318C14.088,75.888 14.15,76.453 14.272,76.98C14.394,77.507 14.572,77.984 14.797,78.385L13.743,78.385C13.432,78.385 13.124,78.274 12.837,78.059C12.55,77.845 12.289,77.529 12.069,77.132C11.849,76.735 11.675,76.264 11.556,75.745C11.437,75.226 11.376,74.67 11.376,74.108L11.376,4.775C11.376,4.213 11.437,3.657 11.556,3.138C11.675,2.619 11.849,2.148 12.069,1.751C12.289,1.354 12.55,1.039 12.837,0.824C13.124,0.609 13.432,0.498 13.743,0.498L15.277,0.498C14.915,0.878 14.615,1.423 14.406,2.078C14.198,2.733 14.088,3.475 14.088,4.231L14.088,75.318Z" fill="#CACACA"/>
<path d="M13.833,20.758C13.026,20.35 12.217,19.972 11.405,19.624C8.628,18.427 5.812,17.54 2.974,16.97C2.493,16.741 1.982,16.865 1.551,17.314C1.12,17.763 0.805,18.502 0.674,19.369L-0.743,28.816C-0.873,29.687 -0.807,30.616 -0.558,31.398C-0.31,32.181 0.1,32.753 0.582,32.99L0.601,32.997C2.477,33.381 4.37,33.916 6.253,34.598C6.421,34.658 6.588,34.72 6.757,34.785C7.36,35.011 7.962,35.252 8.562,35.508C8.824,35.619 9.086,35.734 9.349,35.852C10.055,36.17 10.763,36.508 11.47,36.868C12.257,37.269 13.045,37.697 13.833,38.151C13.918,38.197 14.004,38.246 14.088,38.296L14.088,20.889C14.004,20.843 13.918,20.8 13.833,20.758Z" fill="#FFFFFF"/>
<path d="M13.833,20.758C13.026,20.35 12.217,19.972 11.405,19.624C8.628,18.427 5.812,17.54 2.974,16.97C2.493,16.741 1.982,16.865 1.551,17.314C1.12,17.763 0.805,18.502 0.674,19.369L-0.743,28.816C-0.873,29.687 -0.807,30.616 -0.558,31.398C-0.31,32.181 0.1,32.753 0.582,32.99L0.601,32.997C2.477,33.381 4.37,33.916 6.253,34.598C6.421,34.658 6.588,34.72 6.757,34.785C7.36,35.011 7.962,35.252 8.562,35.508C8.824,35.619 9.086,35.734 9.349,35.852C10.055,36.17 10.763,36.508 11.47,36.868C12.257,37.269 13.045,37.697 13.833,38.151C13.918,38.197 14.004,38.246 14.088,38.296L14.088,37.81C14.002,37.762 13.917,37.713 13.833,37.665C13.108,37.248 12.384,36.856 11.662,36.488C11.391,36.347 11.121,36.211 10.85,36.08C10.363,35.842 9.877,35.615 9.392,35.398C9.134,35.28 8.877,35.167 8.62,35.059C8.601,35.05 8.581,35.043 8.562,35.034C8.124,34.847 7.686,34.669 7.246,34.499C7.078,34.434 6.91,34.37 6.741,34.308C4.71,33.547 2.664,32.955 0.64,32.54C0.225,32.332 -0.126,31.837 -0.339,31.162C-0.552,30.487 -0.609,29.688 -0.497,28.939L0.92,19.488C1.034,18.736 1.308,18.097 1.682,17.709C2.056,17.321 2.5,17.218 2.917,17.421L2.936,17.426C5.738,17.988 8.518,18.859 11.261,20.035C11.289,20.048 11.317,20.06 11.345,20.071C12.177,20.431 13.006,20.82 13.833,21.237C13.917,21.279 14.002,21.323 14.088,21.369L14.088,20.889C14.004,20.843 13.918,20.8 13.833,20.758Z" fill="#64CACB"/>
<path d="M14.088,21.129L14.088,38.052C14.002,38.001 13.918,37.953 13.833,37.905C13.079,37.469 12.322,37.059 11.563,36.674C10.835,36.301 10.104,35.95 9.37,35.621C9.11,35.506 8.851,35.393 8.591,35.282C8.581,35.199 8.57,35.116 8.562,35.033C8.514,34.637 8.477,34.236 8.449,33.833C8.437,33.678 8.428,33.524 8.419,33.367C8.284,30.899 8.472,28.407 8.965,26.092C9.458,23.777 10.245,21.703 11.261,20.034C11.298,19.97 11.336,19.908 11.374,19.848C12.199,20.203 13.018,20.587 13.833,21C13.918,21.039 14.004,21.083 14.088,21.129Z" fill="#64CACB"/>
<path d="M14.088,25.093L14.088,33.119C14.006,33.208 13.921,33.287 13.833,33.354C13.375,33.723 12.867,33.843 12.372,33.698C11.877,33.553 11.416,33.15 11.047,32.538C11.011,32.481 10.975,32.419 10.941,32.354C10.906,32.292 10.873,32.225 10.841,32.158C10.456,31.359 10.234,30.347 10.21,29.288C10.187,28.23 10.365,27.188 10.713,26.337C11.062,25.485 11.562,24.874 12.129,24.605C12.696,24.336 13.297,24.424 13.833,24.856C13.92,24.927 14.005,25.006 14.088,25.093Z" fill="#FFFFFF"/>
<path d="M13.833,30.902C12.829,31.28 11.831,31.699 10.841,32.158C10.471,32.328 10.102,32.505 9.735,32.688C9.296,32.907 8.857,33.133 8.419,33.368C7.859,33.667 7.299,33.981 6.741,34.308C6.579,34.405 6.416,34.501 6.252,34.598C4.7,35.534 3.158,36.571 1.641,37.702C1.158,37.92 0.743,38.474 0.485,39.242C0.227,40.011 0.148,40.933 0.264,41.806L1.544,51.319C1.662,52.195 1.968,52.95 2.395,53.419C2.821,53.889 3.333,54.033 3.818,53.821L3.836,53.81C6.331,51.961 8.884,50.383 11.481,49.081C12.257,48.692 13.041,48.324 13.833,47.98C13.918,47.943 14.002,47.906 14.088,47.871L14.088,30.808C14.002,30.835 13.918,30.868 13.833,30.902Z" fill="#FFFFFF"/>
<path d="M13.833,30.902C12.829,31.28 11.831,31.699 10.841,32.158C10.471,32.328 10.102,32.505 9.735,32.688C9.296,32.907 8.857,33.133 8.419,33.368C7.859,33.667 7.299,33.981 6.741,34.308C6.579,34.405 6.416,34.501 6.252,34.598C4.7,35.534 3.158,36.571 1.641,37.702C1.158,37.92 0.743,38.474 0.485,39.242C0.227,40.011 0.148,40.933 0.264,41.806L1.544,51.319C1.662,52.195 1.968,52.95 2.395,53.419C2.821,53.889 3.333,54.033 3.818,53.821L3.836,53.81C6.331,51.961 8.884,50.383 11.481,49.081C12.257,48.692 13.041,48.324 13.833,47.98C13.918,47.943 14.002,47.906 14.088,47.871L14.088,47.397C14.002,47.433 13.918,47.47 13.833,47.507C13.769,47.535 13.704,47.563 13.64,47.59C12.89,47.92 12.148,48.268 11.414,48.636C11.395,48.646 11.374,48.657 11.355,48.666C8.77,49.965 6.23,51.538 3.748,53.379C3.33,53.556 2.889,53.428 2.523,53.022C2.157,52.615 1.894,51.965 1.791,51.21L0.513,41.698C0.412,40.941 0.481,40.141 0.705,39.476C0.929,38.81 1.291,38.332 1.71,38.147L1.729,38.135C3.381,36.9 5.062,35.78 6.756,34.785C6.92,34.688 7.083,34.594 7.246,34.499C7.647,34.271 8.048,34.049 8.449,33.833C8.873,33.605 9.296,33.385 9.718,33.174C9.747,33.16 9.775,33.147 9.803,33.133C10.216,32.928 10.631,32.729 11.046,32.538C11.969,32.114 12.897,31.725 13.833,31.37C13.917,31.338 14.002,31.305 14.088,31.275L14.088,30.808C14.002,30.835 13.918,30.868 13.833,30.902Z" fill="#64CACB"/>
<path d="M14.088,31.04L14.088,47.634C14.004,47.668 13.918,47.703 13.833,47.74C13.034,48.09 12.239,48.463 11.447,48.86C11.415,48.795 11.385,48.731 11.355,48.666C10.529,46.918 9.921,44.868 9.575,42.656C9.228,40.444 9.151,38.123 9.349,35.852C9.355,35.775 9.363,35.697 9.37,35.621C9.377,35.547 9.384,35.471 9.392,35.398C9.471,34.643 9.58,33.9 9.718,33.174C9.735,33.086 9.752,32.999 9.77,32.911C10.159,32.718 10.549,32.532 10.941,32.354C11.899,31.906 12.863,31.5 13.833,31.135C13.917,31.1 14.002,31.07 14.088,31.04Z" fill="#64CACB"/>
<path d="M14.088,35.278L14.088,44.313C14.004,44.352 13.918,44.383 13.833,44.405C13.32,44.535 12.798,44.383 12.335,43.97C11.871,43.557 11.487,42.901 11.232,42.088C10.977,41.276 10.863,40.343 10.906,39.412C10.948,38.481 11.145,37.594 11.47,36.868C11.499,36.801 11.53,36.737 11.563,36.674C11.594,36.61 11.627,36.548 11.661,36.488C11.943,35.984 12.286,35.604 12.663,35.379C13.039,35.153 13.44,35.088 13.833,35.188C13.918,35.209 14.004,35.239 14.088,35.278Z" fill="#FFFFFF"/>
<path d="M13.833,19.557L13.833,42.557C13.918,42.506 14.004,42.458 14.088,42.412L14.088,19.767C14.002,19.696 13.918,19.626 13.833,19.557ZM13.833,19.557L13.833,42.557C13.918,42.506 14.004,42.458 14.088,42.412L14.088,19.767C14.002,19.696 13.918,19.626 13.833,19.557ZM13.833,19.557L13.833,42.557C13.918,42.506 14.004,42.458 14.088,42.412L14.088,19.767C14.002,19.696 13.918,19.626 13.833,19.557ZM13.833,21.237L13.833,47.739C13.918,47.703 14.004,47.668 14.088,47.633L14.088,21.368C14.002,21.322 13.917,21.279 13.833,21.237ZM13.833,21.237L13.833,47.739C13.918,47.703 14.004,47.668 14.088,47.633L14.088,21.368C14.002,21.322 13.917,21.279 13.833,21.237ZM13.833,21.237L13.833,47.739C13.918,47.703 14.004,47.668 14.088,47.633L14.088,21.368C14.002,21.322 13.917,21.279 13.833,21.237ZM13.833,21.237L13.833,47.739C13.918,47.703 14.004,47.668 14.088,47.633L14.088,21.368C14.002,21.322 13.917,21.279 13.833,21.237ZM13.833,21.237L13.833,47.979C13.918,47.942 14.002,47.905 14.088,47.871L14.088,21.368C14.002,21.322 13.917,21.279 13.833,21.237ZM69.484,-0.553L16.481,-0.553C15.779,-0.551 15.106,-0.046 14.609,0.851C14.113,1.747 13.834,2.963 13.833,4.231L13.833,75.318C13.834,76.586 14.113,77.801 14.61,78.697C15.106,79.594 15.779,80.098 16.481,80.099L69.484,80.099C70.186,80.098 70.859,79.594 71.355,78.697C71.851,77.801 72.13,76.586 72.131,75.318L72.131,4.231C72.131,2.963 71.852,1.747 71.355,0.85C70.859,-0.046 70.186,-0.551 69.484,-0.553ZM71.876,75.318C71.875,76.463 71.623,77.562 71.175,78.372C70.726,79.182 70.118,79.637 69.484,79.639L16.481,79.639C15.847,79.637 15.238,79.182 14.79,78.372C14.341,77.562 14.089,76.464 14.088,75.318L14.088,4.231C14.089,3.085 14.341,1.987 14.79,1.176C15.238,0.366 15.846,-0.09 16.481,-0.092L69.484,-0.092C70.118,-0.091 70.727,0.365 71.175,1.176C71.624,1.986 71.876,3.085 71.876,4.231L71.876,75.318ZM13.833,21.237L13.833,47.507C13.918,47.47 14.002,47.433 14.088,47.396L14.088,21.368C14.002,21.322 13.917,21.279 13.833,21.237ZM13.833,21.237L13.833,47.739C13.918,47.703 14.004,47.668 14.088,47.633L14.088,21.368C14.002,21.322 13.917,21.279 13.833,21.237ZM13.833,21.237L13.833,47.739C13.918,47.703 14.004,47.668 14.088,47.633L14.088,21.368C14.002,21.322 13.917,21.279 13.833,21.237ZM13.833,21.237L13.833,47.739C13.918,47.703 14.004,47.668 14.088,47.633L14.088,21.368C14.002,21.322 13.917,21.279 13.833,21.237ZM13.833,19.557L13.833,42.557C13.918,42.506 14.004,42.458 14.088,42.412L14.088,19.767C14.002,19.696 13.918,19.626 13.833,19.557ZM13.833,19.557L13.833,42.557C13.918,42.506 14.004,42.458 14.088,42.412L14.088,19.767C14.002,19.696 13.918,19.626 13.833,19.557Z" fill="#2F2E41"/>
</svg>
