<svg width="62" height="68" viewBox="0 0 62 68" fill="none" xmlns="http://www.w3.org/2000/svg" xmlns:xlink="http://www.w3.org/1999/xlink">
<path d="M42.362,56.468C41.532,55.267 40.409,54.388 38.997,54.06C37.765,53.773 36.499,53.822 35.247,53.832L19.42,53.958C18.064,53.969 16.764,55.182 16.827,56.637C16.89,58.079 17.967,59.328 19.42,59.316C24.056,59.279 28.692,59.242 33.329,59.205C34.422,59.197 35.515,59.176 36.609,59.18C36.854,59.181 37.098,59.194 37.344,59.197C37.403,59.198 37.446,59.197 37.476,59.196C37.484,59.198 37.49,59.201 37.5,59.203C37.628,59.24 37.759,59.265 37.888,59.299C37.843,59.301 37.972,59.383 38.036,59.412C38.045,59.43 38.064,59.462 38.095,59.511C38.139,59.597 38.27,59.856 38.275,59.848C38.471,60.36 38.633,60.886 38.759,61.421C39.06,62.601 39.127,62.847 39.17,63.955C39.225,65.353 40.323,66.701 41.762,66.634C43.12,66.571 44.413,65.455 44.354,63.955C44.255,61.427 43.826,58.588 42.362,56.468Z" fill="#E6E6E6"/>
<path d="M20.35,62.514C20.053,60.652 19.761,58.788 19.458,56.928C19.151,55.04 18.523,53.311 17.101,52.072C16.721,51.741 16.327,51.432 15.932,51.123C15.793,51.015 15.654,50.907 15.517,50.796C15.508,50.789 15.503,50.785 15.496,50.779C15.481,50.766 15.463,50.75 15.439,50.729C14.846,50.211 14.274,49.669 13.728,49.094C13.244,48.583 12.781,48.05 12.339,47.496C12.229,47.357 12.12,47.217 12.012,47.076C11.994,47.052 11.894,46.919 11.828,46.832C11.767,46.745 11.656,46.588 11.637,46.561C11.511,46.377 11.388,46.191 11.266,46.004C10.441,44.726 9.726,43.374 9.13,41.966C9.071,41.826 9.013,41.686 8.957,41.545C8.942,41.501 8.922,41.446 8.896,41.372C8.776,41.031 8.656,40.69 8.547,40.345C8.313,39.611 8.113,38.867 7.945,38.111C7.862,37.739 7.787,37.364 7.721,36.987C7.686,36.793 7.654,36.599 7.625,36.405C7.62,36.372 7.591,36.162 7.573,36.044C7.561,35.925 7.537,35.714 7.534,35.681C7.515,35.485 7.498,35.289 7.483,35.092C7.45,34.65 7.428,34.207 7.416,33.764C7.396,32.976 7.41,32.187 7.457,31.399C7.484,30.956 7.522,30.514 7.57,30.074C7.572,30.047 7.575,30.025 7.577,30.006C7.58,29.986 7.583,29.964 7.587,29.936C7.622,29.692 7.658,29.449 7.699,29.206C7.855,28.285 8.057,27.373 8.305,26.474C8.423,26.049 8.55,25.627 8.688,25.209C8.749,25.024 8.813,24.839 8.878,24.654C8.874,24.666 9.07,24.149 9.072,24.132C9.849,22.235 11.12,20.505 11.121,18.35C11.123,16.891 9.928,15.494 8.529,15.561C7.832,15.588 7.172,15.894 6.688,16.414C6.204,16.935 5.935,17.629 5.937,18.35C5.937,18.383 5.937,18.411 5.937,18.438C5.924,18.484 5.913,18.521 5.903,18.555C5.751,18.895 5.566,19.219 5.4,19.55C4.944,20.459 4.556,21.397 4.186,22.348C3.582,23.898 3.119,25.503 2.805,27.142C2.12,30.734 2.067,34.423 2.648,38.034C3.653,44.366 6.967,50.427 11.575,54.501C11.975,54.855 12.385,55.196 12.798,55.531C12.969,55.67 13.142,55.805 13.315,55.941C13.397,56.004 13.737,56.281 13.587,56.147C13.909,56.43 14.044,56.573 14.126,56.782C14.138,56.83 14.155,56.895 14.177,56.984C14.235,57.22 14.29,57.455 14.336,57.693C14.737,59.778 15.016,61.898 15.351,63.997C15.581,65.439 17.298,66.377 18.54,65.945C19.984,65.442 20.597,64.059 20.35,62.514Z" fill="#E6E6E6"/>
<path d="M42.624,67.922C41.535,67.925 40.49,67.481 39.717,66.688C38.945,65.896 38.508,64.819 38.502,63.693L38.502,60.637C35.406,60.995 24.805,60.912 21.766,60.408L21.766,63.571C21.758,64.695 21.32,65.771 20.548,66.563C19.776,67.355 18.732,67.799 17.645,67.799C16.557,67.799 15.513,67.355 14.741,66.563C13.969,65.771 13.531,64.695 13.523,63.571L13.523,57.36C9.407,54.997 5.976,51.541 3.584,47.35C1.191,43.158 -0.076,38.383 -0.086,33.516C-0.086,25.172 3.573,17.388 9.952,12.16C14.1,8.75 19.139,6.698 24.424,6.27C25.141,6.212 25.862,6.183 26.568,6.183C29.056,6.183 40.278,6.58 43.093,7.417L49.514,0.832C49.608,0.734 49.729,0.667 49.86,0.64C49.991,0.613 50.127,0.627 50.251,0.681C50.375,0.732 50.482,0.821 50.557,0.936C50.632,1.051 50.671,1.186 50.67,1.325L50.67,2.372L51.92,1.092C52.014,0.994 52.134,0.927 52.266,0.9C52.397,0.873 52.533,0.887 52.656,0.94C52.781,0.991 52.888,1.08 52.963,1.195C53.037,1.31 53.077,1.446 53.076,1.584L53.076,13.283C56.297,16.285 58.753,20.062 60.224,24.279C61.696,28.497 62.138,33.024 61.512,37.46C60.886,41.896 59.211,46.105 56.635,49.712C54.06,53.319 50.663,56.213 46.746,58.139L46.746,63.693C46.74,64.819 46.303,65.896 45.531,66.688C44.758,67.481 43.713,67.925 42.624,67.922ZM38.826,60.257L38.826,63.693C38.835,64.729 39.238,65.719 39.95,66.448C40.661,67.177 41.622,67.587 42.624,67.587C43.626,67.587 44.587,67.177 45.298,66.448C46.01,65.719 46.413,64.729 46.422,63.693L46.422,57.927L46.514,57.882C50.909,55.727 54.64,52.354 57.293,48.139C60.673,42.761 62.079,36.309 61.256,29.952C60.433,23.595 57.435,17.753 52.805,13.483L52.752,13.433L52.752,1.584C52.753,1.512 52.733,1.442 52.694,1.382C52.655,1.322 52.599,1.276 52.534,1.25C52.47,1.222 52.398,1.214 52.329,1.228C52.261,1.242 52.197,1.277 52.148,1.329L50.346,3.175L50.346,1.325C50.347,1.253 50.327,1.182 50.288,1.122C50.249,1.063 50.193,1.017 50.128,0.991C50.064,0.962 49.992,0.954 49.923,0.969C49.854,0.983 49.791,1.018 49.742,1.07L43.184,7.796L43.091,7.766C40.473,6.919 29.075,6.518 26.568,6.518C25.871,6.518 25.158,6.547 24.449,6.604C19.229,7.027 14.251,9.053 10.153,12.423C3.852,17.586 0.238,25.275 0.238,33.516C0.249,38.34 1.509,43.072 3.887,47.222C6.266,51.372 9.676,54.788 13.763,57.115L13.847,57.163L13.847,63.571C13.855,64.607 14.259,65.597 14.97,66.326C15.682,67.055 16.643,67.464 17.645,67.464C18.646,67.464 19.608,67.055 20.319,66.326C21.03,65.597 21.434,64.607 21.442,63.571L21.442,60.007L21.634,60.044C24.365,60.575 35.864,60.659 38.643,60.282L38.826,60.257Z" fill="#3F3D56"/>
</svg>
