<svg width="54" height="34" viewBox="0 0 54 34" fill="none" xmlns="http://www.w3.org/2000/svg" xmlns:xlink="http://www.w3.org/1999/xlink">
<path d="M30.66,15.947L12.718,21.52C12.148,21.698 11.669,22.103 11.387,22.646C11.105,23.188 11.043,23.825 11.214,24.415C11.386,25.005 11.777,25.5 12.302,25.792C12.826,26.085 13.442,26.149 14.013,25.973L29.714,21.095L30.043,20.993C30.109,19.241 30.569,17.529 31.386,15.992C31.283,15.945 31.174,15.915 31.062,15.905C30.926,15.892 30.79,15.906 30.66,15.947Z" fill="#64CACB"/>
<path d="M13.702,27.16C13.464,27.16 13.232,27.082 13.039,26.938C12.846,26.793 12.702,26.59 12.627,26.356L11.505,22.857C11.458,22.711 11.44,22.557 11.451,22.403C11.461,22.25 11.501,22.1 11.568,21.962C11.635,21.825 11.727,21.702 11.84,21.602C11.953,21.501 12.084,21.424 12.225,21.376L26.828,16.374C26.969,16.326 27.118,16.306 27.267,16.318C27.415,16.329 27.56,16.37 27.693,16.439C27.826,16.508 27.945,16.604 28.042,16.72C28.14,16.837 28.214,16.972 28.261,17.118L29.383,20.617C29.476,20.905 29.457,21.219 29.331,21.493C29.204,21.766 28.979,21.978 28.703,22.084C28.69,22.089 28.676,22.094 28.663,22.099L14.06,27.1C13.945,27.14 13.824,27.16 13.702,27.16Z" fill="#2F2E41"/>
<path d="M41.05,9.732C38.103,9.734 35.271,10.92 33.156,13.041C31.04,15.161 29.805,18.05 29.714,21.094C29.71,21.213 29.709,21.334 29.709,21.454C29.709,23.773 30.374,26.039 31.62,27.967C32.866,29.894 34.637,31.397 36.71,32.284C38.782,33.171 41.062,33.403 43.262,32.951C45.462,32.499 47.483,31.382 49.069,29.743C50.655,28.104 51.735,26.015 52.173,23.741C52.61,21.467 52.386,19.11 51.528,16.969C50.669,14.827 49.215,12.996 47.35,11.708C45.485,10.42 43.293,9.732 41.05,9.732ZM41.05,32.841C38.129,32.838 35.328,31.637 33.263,29.503C31.198,27.368 30.036,24.473 30.033,21.454C30.033,21.299 30.036,21.144 30.042,20.992C30.13,18.762 30.85,16.607 32.113,14.796C33.376,12.985 35.127,11.598 37.146,10.807C39.166,10.016 41.366,9.856 43.473,10.347C45.58,10.838 47.501,11.958 48.997,13.568C50.493,15.179 51.498,17.208 51.887,19.404C52.276,21.6 52.032,23.865 51.185,25.919C50.338,27.973 48.926,29.724 47.124,30.954C45.322,32.185 43.21,32.841 41.05,32.841Z" fill="#3F3D56"/>
<path d="M8.819,18.079C13.382,18.079 17.082,14.256 17.082,9.539C17.082,4.823 13.382,0.999 8.819,0.999C4.255,0.999 0.556,4.823 0.556,9.539C0.556,14.256 4.255,18.079 8.819,18.079Z" fill="#64CACB"/>
<path d="M31.442,29.528L12.747,28.283C12.452,28.264 12.164,28.184 11.899,28.049C11.634,27.915 11.397,27.727 11.202,27.498C11.007,27.269 10.858,27.002 10.763,26.713C10.667,26.424 10.628,26.119 10.647,25.814C10.666,25.51 10.743,25.212 10.873,24.938C11.004,24.664 11.185,24.42 11.407,24.218C11.628,24.017 11.887,23.862 12.166,23.764C12.446,23.665 12.741,23.625 13.036,23.644L31.731,24.889C31.87,24.898 32.004,24.935 32.129,24.999C32.253,25.062 32.363,25.149 32.455,25.257C32.546,25.364 32.616,25.489 32.661,25.624C32.705,25.76 32.724,25.903 32.715,26.045L32.561,28.512C32.543,28.8 32.415,29.069 32.205,29.259C31.996,29.45 31.721,29.546 31.442,29.528Z" fill="#64CACB"/>
<path d="M26.447,30.325C26.422,30.325 26.397,30.324 26.372,30.323L11.02,29.301C10.872,29.291 10.727,29.251 10.593,29.183C10.459,29.115 10.34,29.021 10.242,28.905C10.143,28.789 10.068,28.655 10.02,28.509C9.972,28.363 9.952,28.209 9.962,28.056L10.224,23.843C10.234,23.689 10.272,23.539 10.338,23.401C10.404,23.263 10.495,23.139 10.607,23.038C10.719,22.936 10.849,22.858 10.99,22.809C11.131,22.759 11.28,22.739 11.429,22.749L26.781,23.771C27.081,23.791 27.361,23.933 27.559,24.167C27.758,24.4 27.858,24.705 27.839,25.016L27.577,29.228C27.563,29.454 27.485,29.671 27.355,29.852C27.224,30.034 27.045,30.173 26.84,30.252C26.714,30.3 26.581,30.325 26.447,30.325Z" fill="#2F2E41"/>
</svg>
