<svg width="120" height="100" viewBox="0 0 120 100" fill="none" xmlns="http://www.w3.org/2000/svg" xmlns:xlink="http://www.w3.org/1999/xlink">
<path d="M79.817,9.865L79.817,89.912C79.815,92.282 78.876,94.555 77.208,96.231C75.539,97.907 73.277,98.85 70.917,98.853L36.047,98.853C33.688,98.85 31.425,97.907 29.757,96.231C28.088,94.555 27.15,92.282 27.147,89.912L27.147,9.865C27.15,7.495 28.088,5.222 29.757,3.546C31.425,1.869 33.688,0.927 36.047,0.924L40.607,0.924L40.607,2.506C40.607,3.222 40.891,3.909 41.395,4.416C41.899,4.923 42.583,5.207 43.296,5.207L63.669,5.207C64.382,5.207 65.065,4.923 65.57,4.416C66.074,3.909 66.357,3.222 66.357,2.506L66.357,0.924L70.917,0.924C73.277,0.927 75.539,1.869 77.208,3.546C78.876,5.222 79.815,7.495 79.817,9.865Z" fill="#FFFFFF"/>
<path d="M54.919,3.082L49.735,3.082C49.625,3.082 49.518,3.038 49.44,2.959C49.361,2.88 49.317,2.773 49.317,2.662C49.317,2.551 49.361,2.444 49.44,2.365C49.518,2.286 49.625,2.242 49.735,2.242L54.919,2.242C55.03,2.242 55.136,2.286 55.214,2.365C55.293,2.444 55.337,2.551 55.337,2.662C55.337,2.773 55.293,2.88 55.214,2.959C55.136,3.038 55.03,3.082 54.919,3.082Z" fill="#FFFFFF"/>
<path d="M55.74,40.095L51.225,40.095C51.003,40.095 50.791,40.006 50.634,39.849C50.477,39.691 50.389,39.478 50.389,39.255C50.389,39.032 50.477,38.819 50.634,38.661C50.791,38.504 51.003,38.415 51.225,38.415L55.74,38.415C55.961,38.415 56.174,38.504 56.331,38.661C56.488,38.819 56.576,39.032 56.576,39.255C56.576,39.478 56.488,39.691 56.331,39.849C56.174,40.006 55.961,40.095 55.74,40.095Z" fill="#E6E6E6"/>
<path d="M67.913,51.853L36.69,51.853C35.886,51.852 35.115,51.531 34.547,50.96C33.978,50.389 33.658,49.614 33.657,48.807L33.657,45.66C33.658,44.853 33.978,44.078 34.547,43.507C35.115,42.936 35.886,42.615 36.69,42.614L67.913,42.614C68.717,42.615 69.487,42.936 70.056,43.507C70.624,44.078 70.944,44.853 70.945,45.66L70.945,48.807C70.944,49.614 70.624,50.389 70.056,50.96C69.487,51.531 68.717,51.852 67.913,51.853ZM36.69,42.95C35.974,42.951 35.289,43.237 34.783,43.745C34.277,44.253 33.993,44.942 33.992,45.66L33.992,48.807C33.993,49.525 34.277,50.214 34.783,50.722C35.289,51.23 35.974,51.516 36.69,51.517L67.913,51.517C68.628,51.516 69.314,51.23 69.819,50.722C70.325,50.214 70.61,49.525 70.61,48.807L70.61,45.66C70.61,44.942 70.325,44.253 69.819,43.745C69.314,43.237 68.628,42.951 67.913,42.95L36.69,42.95Z" fill="#E6E6E6"/>
<path d="M55.74,63.443L51.225,63.443C51.003,63.443 50.791,63.355 50.634,63.197C50.477,63.04 50.389,62.826 50.389,62.604C50.389,62.381 50.477,62.167 50.634,62.01C50.791,61.852 51.003,61.764 51.225,61.764L55.74,61.764C55.961,61.764 56.174,61.852 56.331,62.01C56.488,62.167 56.576,62.381 56.576,62.604C56.576,62.826 56.488,63.04 56.331,63.197C56.174,63.355 55.961,63.443 55.74,63.443Z" fill="#E6E6E6"/>
<path d="M56.777,87.799L50.188,87.799C50.028,87.799 49.869,87.768 49.721,87.706C49.572,87.645 49.438,87.555 49.324,87.441C49.211,87.327 49.121,87.192 49.059,87.043C48.998,86.894 48.966,86.735 48.966,86.573C48.966,86.412 48.998,86.253 49.059,86.104C49.121,85.955 49.211,85.82 49.324,85.706C49.438,85.592 49.572,85.502 49.721,85.441C49.869,85.379 50.028,85.347 50.188,85.348L56.777,85.348C57.1,85.348 57.411,85.477 57.64,85.707C57.868,85.937 57.997,86.248 57.997,86.573C57.997,86.899 57.868,87.21 57.64,87.44C57.411,87.67 57.1,87.799 56.777,87.799Z" fill="#64CACB"/>
<path d="M67.913,75.201L36.69,75.201C35.886,75.201 35.115,74.879 34.547,74.308C33.978,73.737 33.658,72.963 33.657,72.155L33.657,69.009C33.658,68.201 33.978,67.427 34.547,66.856C35.115,66.285 35.886,65.964 36.69,65.963L67.913,65.963C68.717,65.964 69.487,66.285 70.056,66.856C70.624,67.427 70.944,68.201 70.945,69.009L70.945,72.155C70.944,72.963 70.624,73.737 70.056,74.308C69.487,74.879 68.717,75.201 67.913,75.201ZM36.69,66.299C35.974,66.3 35.289,66.585 34.783,67.094C34.277,67.602 33.993,68.29 33.992,69.009L33.992,72.155C33.993,72.874 34.277,73.563 34.783,74.071C35.289,74.579 35.974,74.865 36.69,74.866L67.913,74.866C68.628,74.865 69.314,74.579 69.819,74.071C70.325,73.563 70.61,72.874 70.61,72.155L70.61,69.009C70.61,68.29 70.325,67.602 69.819,67.093C69.314,66.585 68.628,66.3 67.913,66.299L36.69,66.299Z" fill="#E6E6E6"/>
<path d="M72.595,45.834C72.634,46.115 72.781,46.369 73.004,46.543C73.227,46.717 73.509,46.796 73.789,46.764C73.846,46.757 73.902,46.745 73.957,46.728L76.204,49.782L78.147,49.182L74.62,45.333C74.533,45.109 74.376,44.921 74.171,44.797C73.967,44.673 73.728,44.621 73.491,44.648C73.356,44.664 73.226,44.707 73.108,44.775C72.989,44.842 72.886,44.932 72.802,45.039C72.719,45.147 72.657,45.27 72.621,45.401C72.585,45.533 72.574,45.67 72.591,45.806C72.592,45.815 72.593,45.825 72.595,45.834Z" fill="#FFB6B6"/>
<path d="M82.175,57.323L62.303,64.382C61.812,64.555 61.272,64.526 60.801,64.301C60.331,64.075 59.97,63.672 59.795,63.179L56.382,53.479C56.208,52.985 56.237,52.443 56.462,51.97C56.686,51.498 57.088,51.135 57.579,50.96L77.452,43.901C77.943,43.727 78.483,43.756 78.953,43.982C79.423,44.208 79.785,44.611 79.959,45.104L83.373,54.804C83.546,55.298 83.517,55.84 83.293,56.313C83.068,56.785 82.666,57.148 82.175,57.323Z" fill="#64CACB"/>
<path d="M61.063,53.211C59.745,54.082 58.057,53.427 57.467,52.472L57.561,52.418C58.682,51.716 60.348,52.107 61.063,53.211Z" fill="#FFFFFF"/>
<path d="M77.57,55.682C77.433,55.739 77.285,55.767 77.137,55.765C76.988,55.762 76.842,55.729 76.707,55.666C76.141,55.384 75.876,54.547 75.663,53.875C75.601,53.679 75.542,53.494 75.483,53.343L75.482,53.341C75.378,53.041 75.396,52.712 75.532,52.426C75.668,52.14 75.911,51.919 76.208,51.812L78.881,50.862C79.018,50.805 79.166,50.777 79.314,50.779C79.462,50.782 79.608,50.816 79.743,50.878C80.309,51.16 80.574,51.996 80.788,52.669C80.85,52.865 80.909,53.05 80.969,53.201C81.073,53.501 81.055,53.83 80.919,54.117C80.783,54.404 80.54,54.625 80.242,54.733L77.57,55.682Z" fill="#FFFFFF"/>
<path d="M60.65,60.672C60.561,60.688 60.468,60.68 60.383,60.648C60.298,60.617 60.223,60.562 60.167,60.49C60.101,60.405 60.058,60.304 60.042,60.197C60.027,60.091 60.039,59.982 60.077,59.881C60.111,59.794 60.169,59.719 60.243,59.663C60.317,59.607 60.405,59.573 60.498,59.565L64.287,58.287C64.378,58.269 64.472,58.276 64.559,58.308C64.646,58.34 64.723,58.395 64.78,58.468C64.846,58.553 64.889,58.654 64.905,58.761C64.92,58.868 64.908,58.977 64.87,59.078C64.835,59.164 64.778,59.239 64.704,59.294C64.629,59.35 64.541,59.384 64.449,59.393L60.66,60.67L60.65,60.672Z" fill="#FFFFFF"/>
<path d="M81.442,51.387L56.493,51.387L56.493,51.506L81.442,51.506L81.442,51.387Z" transform="rotate(-39.108 68.967 51.447)" fill="#FFFFFF"/>
<path d="M76.964,53.7C77.334,53.7 77.633,53.399 77.633,53.028C77.633,52.657 77.334,52.356 76.964,52.356C76.595,52.356 76.295,52.657 76.295,53.028C76.295,53.399 76.595,53.7 76.964,53.7Z" fill="#64CACB"/>
<path d="M79.138,53.868C79.415,53.868 79.64,53.643 79.64,53.364C79.64,53.086 79.415,52.86 79.138,52.86C78.861,52.86 78.636,53.086 78.636,53.364C78.636,53.643 78.861,53.868 79.138,53.868Z" fill="#64CACB"/>
<path d="M43.285,23.628C43.285,25.188 42.045,26.085 40.239,26.085C39.424,26.083 38.619,25.914 37.871,25.59L37.871,23.515C38.6,23.915 39.52,24.212 40.239,24.212C40.725,24.212 41.073,24.081 41.073,23.68C41.073,22.644 37.776,23.027 37.776,20.621C37.776,19.077 38.946,18.154 40.709,18.154C41.445,18.147 42.176,18.283 42.861,18.555L42.861,20.603C42.196,20.252 41.459,20.061 40.709,20.045C40.249,20.045 39.971,20.176 39.971,20.515C39.971,21.493 43.277,21.031 43.285,23.628Z" clip-rule="evenodd" fill-rule="evenodd" fill="#635BFF"/>
<path d="M45.829,18.302L47.477,18.302L47.477,20.159L45.829,20.159L45.829,23.253C45.829,24.543 47.2,24.142 47.477,24.029L47.477,25.798C47.19,25.956 46.67,26.085 45.957,26.085C45.661,26.095 45.366,26.043 45.091,25.934C44.815,25.826 44.564,25.661 44.354,25.452C44.144,25.242 43.978,24.992 43.867,24.716C43.757,24.44 43.703,24.144 43.71,23.846L43.718,16.864L45.837,16.41L45.829,18.302Z" clip-rule="evenodd" fill-rule="evenodd" fill="#635BFF"/>
<path d="M51.98,18.302L51.98,20.307C51.711,20.211 50.843,20.089 50.332,20.761L50.332,25.929L48.163,25.929L48.163,18.302L50.037,18.302L50.176,18.947C50.688,18.006 51.703,18.197 51.98,18.302Z" clip-rule="evenodd" fill-rule="evenodd" fill="#635BFF"/>
<path d="M52.51,15.861L54.687,15.399L54.687,17.168L52.51,17.64L52.51,15.861Z" clip-rule="evenodd" fill-rule="evenodd" fill="#635BFF"/>
<path d="M54.687,18.302L52.51,18.302L52.51,25.929L54.687,25.929L54.687,18.302Z" fill="#635BFF"/>
<path d="M59.217,18.154C58.584,18.152 57.975,18.396 57.516,18.835L57.404,18.294L55.495,18.294L55.495,28.458L57.664,27.996L57.672,25.528C58.106,25.883 58.649,26.077 59.209,26.078C60.762,26.078 62.177,24.823 62.177,22.06C62.168,19.532 60.735,18.154 59.217,18.154ZM58.697,24.161C58.507,24.172 58.316,24.142 58.139,24.071C57.962,24 57.802,23.891 57.672,23.751L57.664,20.516C57.793,20.372 57.953,20.259 58.132,20.185C58.311,20.111 58.504,20.079 58.697,20.089C59.486,20.089 60.033,20.978 60.033,22.12C60.033,23.289 59.494,24.161 58.697,24.161Z" clip-rule="evenodd" fill-rule="evenodd" fill="#635BFF"/>
<path d="M69.013,22.147C69.013,19.915 67.938,18.154 65.882,18.154C63.817,18.154 62.566,19.915 62.566,22.129C62.566,24.752 64.042,26.078 66.159,26.078C66.995,26.101 67.823,25.906 68.562,25.512L68.562,23.768C67.902,24.096 67.173,24.26 66.437,24.247C65.596,24.247 64.848,23.951 64.753,22.923L68.997,22.923C68.997,22.809 69.013,22.355 69.013,22.147ZM64.728,21.319C64.728,20.333 65.327,19.923 65.873,19.923C66.402,19.923 66.967,20.333 66.967,21.319L64.728,21.319Z" clip-rule="evenodd" fill-rule="evenodd" fill="#635BFF"/>
<path d="M41.577,95.468C41.481,95.473 41.386,95.448 41.304,95.396C41.223,95.344 41.159,95.268 41.122,95.179C41.085,95.09 41.076,94.992 41.097,94.897C41.117,94.803 41.166,94.717 41.237,94.651L41.269,94.523C41.265,94.512 41.26,94.502 41.256,94.492C41.159,94.262 40.997,94.066 40.789,93.929C40.582,93.791 40.339,93.718 40.091,93.719C39.842,93.72 39.599,93.795 39.393,93.934C39.187,94.073 39.026,94.27 38.931,94.5C38.55,95.421 38.066,96.342 37.947,97.315C37.894,97.745 37.917,98.181 38.012,98.604C37.119,96.646 36.655,94.519 36.652,92.365C36.652,91.825 36.682,91.285 36.742,90.748C36.791,90.308 36.86,89.871 36.948,89.437C37.426,87.082 38.454,84.875 39.947,82.997C40.669,82.601 41.254,81.992 41.621,81.252C41.754,80.986 41.848,80.702 41.9,80.409C41.819,80.42 41.593,79.173 41.654,79.097C41.541,78.924 41.338,78.838 41.214,78.669C40.597,77.828 39.747,77.975 39.303,79.117C38.355,79.598 38.346,80.395 38.928,81.161C39.298,81.649 39.348,82.309 39.673,82.831C39.64,82.874 39.605,82.915 39.572,82.958C38.961,83.747 38.429,84.594 37.983,85.487C38.091,84.486 37.962,83.474 37.605,82.534C37.243,81.658 36.566,80.92 35.969,80.162C35.252,79.252 33.782,79.649 33.655,80.803C33.654,80.814 33.653,80.825 33.652,80.836C33.74,80.887 33.827,80.94 33.912,80.996C34.019,81.068 34.101,81.17 34.149,81.29C34.197,81.409 34.208,81.541 34.18,81.666C34.152,81.792 34.087,81.907 33.994,81.995C33.9,82.083 33.782,82.141 33.655,82.16L33.642,82.162C33.674,82.483 33.73,82.801 33.809,83.114C33.044,86.089 34.697,87.172 37.057,87.221C37.109,87.248 37.16,87.275 37.212,87.3C36.764,88.576 36.483,89.905 36.376,91.254C36.315,92.05 36.319,92.849 36.386,93.644L36.382,93.616C36.211,92.732 35.742,91.934 35.053,91.357C34.03,90.513 32.585,90.202 31.481,89.524C31.364,89.448 31.227,89.408 31.088,89.407C30.949,89.407 30.812,89.447 30.694,89.522C30.577,89.597 30.483,89.704 30.424,89.831C30.365,89.958 30.343,90.099 30.362,90.238C30.363,90.248 30.365,90.258 30.366,90.268C30.531,90.335 30.691,90.412 30.846,90.5C30.935,90.55 31.021,90.603 31.106,90.66C31.213,90.731 31.296,90.834 31.343,90.953C31.391,91.073 31.402,91.204 31.374,91.33C31.346,91.456 31.282,91.57 31.188,91.658C31.094,91.747 30.976,91.804 30.85,91.824L30.837,91.826C30.827,91.827 30.819,91.829 30.81,91.83C31.091,92.504 31.486,93.125 31.976,93.665C32.455,96.262 34.511,96.508 36.711,95.752L36.712,95.752C36.954,96.805 37.304,97.831 37.756,98.812L41.483,98.812C41.497,98.77 41.509,98.727 41.521,98.686C41.176,98.707 40.829,98.687 40.489,98.624C40.766,98.283 41.043,97.939 41.319,97.598C41.325,97.592 41.331,97.585 41.337,97.578C41.477,97.404 41.618,97.231 41.759,97.056L41.759,97.056C41.766,96.521 41.705,95.988 41.577,95.468Z" fill="#F2F2F2"/>
<path d="M25.976,20.241C25.799,20.241 25.629,20.17 25.504,20.044C25.378,19.918 25.308,19.748 25.308,19.569L25.308,18.226C25.308,18.047 25.378,17.877 25.504,17.751C25.629,17.624 25.799,17.554 25.976,17.554C26.154,17.554 26.324,17.624 26.449,17.751C26.575,17.877 26.645,18.047 26.645,18.226L26.645,19.569C26.645,19.748 26.575,19.918 26.449,20.044C26.324,20.17 26.154,20.241 25.976,20.241Z" fill="#3F3D56"/>
<path d="M25.976,27.132C25.799,27.132 25.629,27.061 25.504,26.935C25.378,26.809 25.308,26.638 25.308,26.46L25.308,22.761C25.308,22.583 25.378,22.412 25.504,22.286C25.629,22.16 25.799,22.089 25.976,22.089C26.154,22.089 26.324,22.16 26.449,22.286C26.575,22.412 26.645,22.583 26.645,22.761L26.645,26.46C26.645,26.638 26.575,26.809 26.449,26.935C26.324,27.061 26.154,27.132 25.976,27.132Z" fill="#3F3D56"/>
<path d="M25.976,32.671C25.799,32.671 25.629,32.6 25.504,32.474C25.378,32.348 25.308,32.177 25.308,31.999L25.308,28.3C25.308,28.122 25.378,27.951 25.504,27.825C25.629,27.699 25.799,27.628 25.976,27.628C26.154,27.628 26.324,27.699 26.449,27.825C26.575,27.951 26.645,28.122 26.645,28.3L26.645,31.999C26.645,32.177 26.575,32.348 26.449,32.474C26.324,32.6 26.154,32.671 25.976,32.671Z" fill="#3F3D56"/>
<path d="M80.821,29.648C80.643,29.648 80.473,29.577 80.348,29.451C80.223,29.325 80.152,29.154 80.152,28.976L80.152,19.95C80.152,19.772 80.222,19.601 80.348,19.475C80.473,19.349 80.643,19.278 80.821,19.278C80.998,19.278 81.168,19.349 81.294,19.475C81.419,19.601 81.49,19.772 81.49,19.95L81.49,28.976C81.489,29.154 81.419,29.325 81.293,29.451C81.168,29.577 80.998,29.648 80.821,29.648Z" fill="#3F3D56"/>
<path d="M57.594,2.998C57.779,2.998 57.929,2.848 57.929,2.662C57.929,2.477 57.779,2.326 57.594,2.326C57.409,2.326 57.26,2.477 57.26,2.662C57.26,2.848 57.409,2.998 57.594,2.998Z" fill="#FFFFFF"/>
<path d="M38.615,4.884L34.1,4.884C33.879,4.884 33.666,4.795 33.509,4.638C33.352,4.48 33.264,4.267 33.264,4.044C33.264,3.821 33.352,3.608 33.509,3.45C33.666,3.293 33.879,3.204 34.1,3.204L38.615,3.204C38.837,3.204 39.049,3.293 39.206,3.45C39.363,3.608 39.451,3.821 39.451,4.044C39.451,4.267 39.363,4.48 39.206,4.638C39.049,4.795 38.837,4.884 38.615,4.884Z" fill="#E6E6E6"/>
<path d="M68.211,4.8C68.626,4.8 68.963,4.461 68.963,4.044C68.963,3.627 68.626,3.288 68.211,3.288C67.795,3.288 67.458,3.627 67.458,4.044C67.458,4.461 67.795,4.8 68.211,4.8Z" fill="#E6E6E6"/>
<path d="M70.552,4.8C70.967,4.8 71.304,4.461 71.304,4.044C71.304,3.627 70.967,3.288 70.552,3.288C70.136,3.288 69.799,3.627 69.799,4.044C69.799,4.461 70.136,4.8 70.552,4.8Z" fill="#E6E6E6"/>
<path d="M72.893,4.8C73.308,4.8 73.645,4.461 73.645,4.044C73.645,3.627 73.308,3.288 72.893,3.288C72.477,3.288 72.14,3.627 72.14,4.044C72.14,4.461 72.477,4.8 72.893,4.8Z" fill="#E6E6E6"/>
<path d="M73.645,32.503L33.264,32.503L33.264,32.839L73.645,32.839L73.645,32.503Z" fill="#E6E6E6"/>
<path d="M100.863,67.276C100.663,67.077 100.547,66.807 100.542,66.523C100.536,66.24 100.641,65.965 100.834,65.758C100.874,65.717 100.917,65.679 100.964,65.644L99.868,62.01L101.508,60.803L102.473,65.944C102.6,66.148 102.656,66.387 102.633,66.626C102.61,66.864 102.509,67.089 102.346,67.263C102.252,67.362 102.139,67.441 102.015,67.496C101.891,67.551 101.757,67.581 101.621,67.584C101.485,67.587 101.35,67.563 101.224,67.514C101.097,67.464 100.982,67.39 100.883,67.296C100.877,67.29 100.87,67.283 100.863,67.276Z" fill="#FFB6B6"/>
<path d="M91.567,97.833L89.911,97.833L89.124,91.418L91.567,91.418L91.567,97.833Z" fill="#FFB6B6"/>
<path d="M91.625,99.568L86.534,99.568L86.534,99.503C86.534,98.975 86.743,98.469 87.115,98.096C87.486,97.722 87.99,97.512 88.516,97.512L89.446,96.804L91.181,97.513L91.625,97.513L91.625,99.568Z" fill="#2F2E41"/>
<path d="M98.757,97.833L97.101,97.833L96.314,91.418L98.757,91.418L98.757,97.833Z" fill="#FFB6B6"/>
<path d="M98.815,99.568L93.724,99.568L93.724,99.503C93.724,98.975 93.933,98.469 94.305,98.096C94.676,97.722 95.18,97.512 95.706,97.512L96.636,96.804L98.371,97.513L98.815,97.513L98.815,99.568Z" fill="#2F2E41"/>
<path d="M86.662,63.352C86.662,63.352 84.778,65.991 86.138,70.55C87.498,75.11 86.735,79.186 87.116,80.004C87.498,80.821 88.267,81.597 87.632,82.217C86.997,82.837 86.662,83.341 87.164,83.509C87.666,83.677 89.338,95.435 89.338,95.435L92.18,95.603C92.18,95.603 93.21,90.141 92.11,85.733C92.11,85.733 92.351,82.533 91.848,81.593C91.344,80.653 91.443,81.501 91.477,80.321C91.496,79.468 91.62,78.62 91.846,77.798C92.013,77.126 92.11,70.354 92.11,70.354L95.805,78.719C95.916,79.028 95.958,79.359 95.927,79.686C95.859,80.149 95.858,80.841 95.942,81.083C96.026,81.325 96.119,81.376 96.073,81.854C96.026,82.333 96.026,95.022 96.026,95.022L99.203,95.022L100.708,82.333C100.437,82.032 100.212,81.692 100.039,81.325C99.704,80.653 99.691,80.616 99.865,80.131C100.039,79.645 100.039,78.7 100.039,78.417C100.039,78.134 100.213,65.284 98.036,63.394C95.859,61.504 86.662,63.352 86.662,63.352Z" fill="#2F2E41"/>
<path d="M96.418,43.181L93.245,42.354L91.763,40.302L88.245,40.736L87.496,43.536L84.991,44.997C84.991,44.997 86.376,59.706 86.046,60.514C85.717,61.322 84.536,61.255 85.545,62.296C86.553,63.338 86.687,62.918 86.453,64.052C86.219,65.185 84.513,66.385 86.453,66.373C88.392,66.361 100.097,66.193 99.762,64.849C99.428,63.506 99.433,63.847 98.929,63.004C98.425,62.162 98.085,62.633 98.255,61.389C98.425,60.146 98.258,59.306 98.258,58.634C98.258,57.962 97.697,51.857 97.697,51.857L96.418,43.181Z" fill="#3F3D56"/>
<path d="M86.516,44.715C86.516,44.715 83.376,44.357 82.707,45.868C82.039,47.38 80.353,50.528 80.353,50.528C80.353,50.528 79.039,49.147 78.912,48.521C78.804,47.99 78.744,48.877 77.862,47.916C77.466,47.486 77.8,47.486 77.299,47.318L76.296,46.982L74.623,48.493C74.623,48.493 74.591,50.32 75.459,50.341C76.328,50.362 75.125,50.005 76.296,51.181C76.9,51.788 76.346,51.688 77.353,52.305C78.36,52.923 78.246,52.921 78.554,53.258C78.862,53.595 80.513,53.841 80.513,53.841L87.907,49.73L86.516,44.715Z" fill="#3F3D56"/>
<path d="M94.768,43.816C94.768,43.816 96.115,41.834 98.416,44.409C100.717,46.984 102.438,58.738 102.33,59.16C102.222,59.582 101.615,59.34 102.337,60.049C103.058,60.758 103.56,60.254 103.058,60.758C102.557,61.262 101.51,61.736 102.368,61.919C103.226,62.102 99.888,63.108 99.888,63.108C99.888,63.108 99.402,62.929 99.382,61.752C99.37,61.091 99.704,60.755 99.203,60.587C98.701,60.42 99.318,59.298 99.265,59.104C99.213,58.91 96.036,50.343 96.036,50.343L94.768,43.816Z" fill="#3F3D56"/>
<path d="M89.476,39.951C91.605,39.951 93.331,38.217 93.331,36.078C93.331,33.939 91.605,32.205 89.476,32.205C87.347,32.205 85.621,33.939 85.621,36.078C85.621,38.217 87.347,39.951 89.476,39.951Z" fill="#FFB6B6"/>
<path d="M92.013,39.087C91.102,38.372 92.348,35.224 90.843,35.896C90.843,35.896 89.003,34.72 88.634,35.492C88.206,36.387 86.684,35.981 85.749,35.665C85.823,35.494 85.875,35.314 85.905,35.13C85.732,35.266 85.55,35.389 85.358,35.497C85.23,35.429 85.116,35.335 85.024,35.222C84.933,35.117 84.876,34.987 84.86,34.848C84.845,34.71 84.872,34.57 84.939,34.448C85.094,34.207 85.415,34.134 85.604,33.92C85.626,33.89 85.64,33.855 85.646,33.819C85.651,33.782 85.648,33.744 85.635,33.709C85.613,33.623 85.609,33.534 85.625,33.446C85.641,33.359 85.676,33.276 85.728,33.204C85.779,33.132 85.846,33.072 85.923,33.029C86,32.985 86.086,32.96 86.174,32.953C86.209,32.954 86.244,32.947 86.276,32.931C86.435,32.833 86.581,32.717 86.713,32.585C86.493,32.595 86.273,32.589 86.054,32.566C86.009,32.561 85.964,32.556 85.918,32.55C86.002,32.352 86.127,32.176 86.285,32.032C86.443,31.888 86.63,31.779 86.833,31.715C87.262,31.584 87.709,31.521 88.157,31.528C88.416,31.52 88.676,31.511 88.933,31.503C89.479,31.464 90.028,31.483 90.57,31.56C91.149,31.666 91.698,31.9 92.177,32.243C92.656,32.587 93.053,33.033 93.341,33.549C93.908,34.582 94.521,37.911 92.013,39.087Z" fill="#2F2E41"/>
<path d="M61.19,58.353C61.143,58.371 61.091,58.377 61.04,58.369C60.99,58.36 60.942,58.338 60.903,58.305C60.858,58.265 60.823,58.213 60.803,58.156C60.782,58.098 60.777,58.037 60.788,57.977C60.797,57.925 60.821,57.877 60.856,57.838C60.891,57.799 60.936,57.771 60.987,57.756L62.004,57.395C62.052,57.375 62.105,57.368 62.157,57.377C62.208,57.385 62.257,57.407 62.297,57.441C62.342,57.481 62.377,57.532 62.397,57.59C62.417,57.647 62.422,57.709 62.412,57.769C62.402,57.82 62.378,57.868 62.343,57.907C62.308,57.946 62.263,57.974 62.213,57.989L61.196,58.351L61.19,58.353Z" fill="#FFFFFF"/>
<path d="M0,99.8C0,99.827 0.005,99.853 0.015,99.877C0.025,99.901 0.04,99.923 0.058,99.942C0.077,99.961 0.099,99.975 0.123,99.985C0.147,99.995 0.173,100 0.199,100L119.801,100C119.854,100 119.904,99.979 119.942,99.942C119.979,99.904 120,99.853 120,99.8C120,99.747 119.979,99.697 119.942,99.659C119.904,99.622 119.854,99.601 119.801,99.601L0.199,99.601C0.173,99.601 0.147,99.606 0.123,99.616C0.099,99.626 0.077,99.64 0.058,99.659C0.04,99.678 0.025,99.7 0.015,99.724C0.005,99.748 0,99.774 0,99.8Z" fill="#CCCCCC"/>
</svg>
