<svg width="24" height="20" viewBox="0 0 24 20" fill="none" xmlns="http://www.w3.org/2000/svg" xmlns:xlink="http://www.w3.org/1999/xlink">
<path d="M15.384,19.006L2.225,19.006C0.529,19.006 -0.852,17.799 -0.852,16.315L-0.852,4.81C-0.852,3.328 0.528,2.12 2.225,2.12L15.384,2.12C17.08,2.12 18.461,3.326 18.461,4.81L18.461,16.315C18.461,17.798 17.081,19.006 15.384,19.006ZM2.225,2.413C0.714,2.413 -0.517,3.489 -0.517,4.81L-0.517,16.315C-0.517,17.637 0.714,18.713 2.225,18.713L15.384,18.713C16.896,18.713 18.126,17.637 18.126,16.315L18.126,4.81C18.126,3.489 16.896,2.413 15.384,2.413L2.225,2.413Z" fill="#CCCCCC"/>
<path d="M18.294,6.284C20.449,6.284 22.196,4.756 22.196,2.872C22.196,0.988 20.449,-0.54 18.294,-0.54C16.138,-0.54 14.391,0.988 14.391,2.872C14.391,4.756 16.138,6.284 18.294,6.284Z" fill="#64CACB"/>
</svg>
