<svg width="46" height="58" viewBox="0 0 46 58" fill="none" xmlns="http://www.w3.org/2000/svg" xmlns:xlink="http://www.w3.org/1999/xlink">
<path d="M8.508,53.565C9.158,52.272 8.813,50.59 7.736,49.809C7.632,49.733 7.523,49.668 7.41,49.613L7.181,35.98L4.027,35.129L4.397,51.318C4.015,52.756 4.675,54.293 5.872,54.751C6.873,55.135 7.963,54.644 8.508,53.565Z" fill="#FFB6B6"/>
<path d="M10.702,-0.221C10.702,-0.221 6.836,-1.336 5.599,1.822C4.362,4.98 4.257,18.721 4.257,18.721L3.589,46.588L8.493,46.329L12.403,12.038L10.702,-0.221Z" fill="#64CACB"/>
<path d="M8.967,57.677C9.054,57.808 9.186,57.884 9.326,57.883L34.428,57.883C34.683,57.883 34.89,57.634 34.889,57.328C34.889,57.29 34.886,57.252 34.879,57.214L34.49,54.991C34.457,54.807 34.349,54.655 34.202,54.588C34.15,54.563 34.094,54.551 34.038,54.551L9.714,54.551C9.658,54.551 9.602,54.563 9.55,54.588C9.403,54.655 9.295,54.807 9.262,54.991L8.873,57.214C8.844,57.378 8.879,57.548 8.967,57.677Z" fill="#CCCCCC"/>
<path d="M-0.643,7.902L-0.643,42.686C-0.643,43.609 -0.02,44.357 0.748,44.358L43.657,44.358C44.426,44.357 45.049,43.609 45.049,42.686L45.049,7.902C45.047,6.98 44.425,6.234 43.657,6.232L0.748,6.232C-0.019,6.234 -0.641,6.98 -0.643,7.902Z" fill="#E6E6E6"/>
<path d="M27.569,36.92C27.518,36.9 27.464,36.891 27.409,36.891L17.371,36.891C17.076,36.891 16.834,37.179 16.834,37.533L16.834,56.584L27.944,56.584L27.944,37.533C27.944,37.253 27.793,37.004 27.569,36.92ZM23.542,46.29C23.539,47.077 23.006,47.713 22.35,47.709C21.699,47.703 21.173,47.072 21.17,46.29L21.17,44.079C21.176,43.294 21.713,42.662 22.367,42.669C23.013,42.677 23.536,43.305 23.542,44.079L23.542,46.29Z" fill="#CCCCCC"/>
</svg>
