<svg width="28" height="68" viewBox="0 0 28 68" fill="none" xmlns="http://www.w3.org/2000/svg" xmlns:xlink="http://www.w3.org/1999/xlink">
<path d="M7.223,5.525C6.309,1.522 13.68,-1.91 15.616,1.313C15.885,0.855 16.88,0.576 17.336,0.717C17.793,0.858 18.176,1.209 18.551,1.549C19.066,2.024 19.599,2.516 19.915,3.2C20.234,3.88 20.283,4.808 19.854,5.398C19.515,5.868 18.513,6.171 18.003,6.295C17.647,6.382 17.348,6.453 17.09,6.503C16.861,6.101 16.744,5.604 16.786,5.117C16.44,5.393 16.206,5.865 16.168,6.365C16.161,6.47 19.045,19.214 19.045,19.214C18.747,19.425 18.38,19.622 17.956,19.802C17.238,18.5 16.648,16.965 16.26,15.36C16.171,16.352 16.185,17.429 16.292,18.523C16.348,19.105 16.433,19.69 16.54,20.275C13.114,21.163 7.96,20.871 5.718,17.092C5.718,17.076 5.717,17.06 5.717,17.045C5.701,16.338 4.898,16.162 4.683,16.821C4.628,16.987 4.578,17.132 4.534,17.246C3.881,14.44 4.726,11.193 7.223,5.525Z" fill="#2F2E41"/>
<path d="M13.879,18.119L6.612,18.897L5.272,23.904L3.813,24.158C1.318,24.591 -0.166,27.734 0.803,30.529L2.087,34.233C2.087,34.233 0.201,41.228 2.518,44.167L3.504,57.112L1.28,65.645L27.278,66.653L22.849,55.949L22.718,49.303C22.718,49.303 25.548,37.29 22.924,33.469L21.9,22.601L16.567,21.64L13.879,18.119Z" fill="#64CACB"/>
<path d="M12.951,16.137C16.902,16.137 20.106,13.419 20.106,10.066C20.106,6.713 16.902,3.995 12.951,3.995C8.999,3.995 5.795,6.713 5.795,10.066C5.795,13.419 8.999,16.137 12.951,16.137Z" transform="rotate(-158.152 12.951 10.066)" fill="#FFB6B6"/>
<path d="M3.946,6.085C3.032,2.083 10.403,-1.35 12.339,1.874C12.608,1.415 13.603,1.137 14.059,1.278C14.516,1.418 14.9,1.77 15.274,2.11C15.789,2.585 16.323,3.077 16.638,3.76C16.957,4.441 17.006,5.368 16.578,5.959C16.238,6.428 15.237,6.732 14.726,6.856C14.371,6.943 14.071,7.013 13.814,7.064C13.584,6.662 13.467,6.164 13.509,5.678C13.163,5.953 12.929,6.426 12.891,6.926C12.884,7.03 15.768,19.775 15.768,19.775C15.471,19.986 15.103,20.183 14.68,20.363C13.961,19.061 13.371,17.526 12.983,15.92C12.894,16.913 12.908,17.99 13.015,19.083C13.072,19.665 13.156,20.25 13.264,20.835C9.837,21.723 4.683,21.431 2.441,17.652C2.441,17.637 2.44,17.621 2.44,17.605C2.424,16.898 1.621,16.723 1.406,17.381C1.352,17.548 1.302,17.692 1.257,17.807C0.604,15.001 1.449,11.754 3.946,6.085Z" fill="#2F2E41"/>
</svg>
