<svg width="1044" height="288" viewBox="0 0 1044 288" fill="none" xmlns="http://www.w3.org/2000/svg" xmlns:xlink="http://www.w3.org/1999/xlink">
<path d="M189.151,195.79L186.983,197.958C186.065,198.876 184.581,198.876 183.673,197.958L164.688,178.983C163.771,178.065 163.771,176.581 164.688,175.673L183.673,156.688C184.591,155.771 186.075,155.771 186.983,156.688L189.151,158.856C190.079,159.784 190.06,161.298 189.112,162.206L177.345,173.417L205.411,173.417C206.71,173.417 207.755,174.462 207.755,175.761L207.755,178.886C207.755,180.185 206.71,181.229 205.411,181.229L177.345,181.229L189.112,192.44C190.069,193.349 190.089,194.862 189.151,195.79Z" fill="#000000" stroke="#FFFFFF" stroke-width="0.5" stroke-miterlimit="3.999327"/>
<path d="M1043.823,248.739C1043.823,321.319 723.239,266.383 558.187,266.383C393.135,266.383 0.413,321.319 0.413,248.739C0.413,176.16 378.187,-0.808 559.457,-0.489C950.185,0.2 1043.823,176.16 1043.823,248.739Z" transform="rotate(359.668 522.118 142.908)" fill="#64CACB"/>
</svg>
