<svg width="6" height="10" viewBox="0 0 6 10" fill="none" xmlns="http://www.w3.org/2000/svg" xmlns:xlink="http://www.w3.org/1999/xlink">
<path d="M2.035,9.418C3.219,9.418 4.179,7.685 4.179,5.546C4.179,3.407 3.219,1.674 2.035,1.674C0.851,1.674 -0.108,3.407 -0.108,5.546C-0.108,7.685 0.851,9.418 2.035,9.418Z" fill="#FFB9B9"/>
<path d="M0.899,8.346C0.75,7.808 0.597,7.223 0.654,6.63C0.711,6.038 1.087,5.521 1.378,5.815C1.498,5.028 2.032,4.684 2.481,4.775C2.93,4.866 3.344,5.257 3.786,5.425C4.229,5.593 4.766,5.46 5.005,4.767L4.433,4.749L5.028,3.501L4.338,3.408C4.577,2.941 4.514,2.149 4.282,1.67C4.051,1.192 3.699,0.965 3.356,0.822C2.672,0.537 1.963,0.508 1.272,0.735C0.946,0.826 0.632,1.024 0.345,1.318C0.075,1.615 -0.147,2.033 -0.302,2.531C-0.469,3.093 -0.559,3.718 -0.565,4.356C-0.575,5.21 -0.467,6.054 -0.249,6.813C-0.032,7.571 0.287,8.219 0.679,8.696Z" fill="#2F2E41"/>
</svg>
