<svg width="26" height="30" viewBox="0 0 26 30" fill="none" xmlns="http://www.w3.org/2000/svg" xmlns:xlink="http://www.w3.org/1999/xlink">
<path d="M2.223,23.342C1.973,23.341 1.729,23.256 1.531,23.098C1.332,22.94 1.19,22.719 1.125,22.468L0.515,20.079C0.438,19.778 0.48,19.459 0.631,19.191C0.782,18.922 1.03,18.727 1.321,18.647L20.591,13.384C20.881,13.305 21.19,13.349 21.45,13.506C21.71,13.662 21.899,13.918 21.976,14.219L22.494,16.243L22.397,16.251C17.454,16.648 12.726,18.5 8.77,21.588L8.742,21.602L2.511,23.303C2.417,23.329 2.32,23.342 2.223,23.342Z" fill="#2F2E41"/>
<path d="M4.968,28.695C4.698,28.694 4.437,28.594 4.232,28.412C4.027,28.23 3.891,27.979 3.849,27.704L3.479,25.262C3.433,24.955 3.506,24.641 3.683,24.39C3.86,24.139 4.127,23.971 4.424,23.922L24.114,20.734C24.411,20.686 24.714,20.762 24.957,20.945C25.2,21.128 25.363,21.403 25.41,21.71L25.78,24.152C25.826,24.459 25.752,24.773 25.575,25.024C25.398,25.275 25.132,25.443 24.835,25.492L5.145,28.68C5.086,28.69 5.027,28.695 4.968,28.695Z" fill="#2F2E41"/>
<path d="M2.863,0.536L13.334,15.009L6.249,0.688C6.19,0.521 6.1,0.368 5.984,0.236C5.869,0.105 5.729,-0.001 5.573,-0.076C5.417,-0.152 5.249,-0.195 5.077,-0.203C4.905,-0.211 4.734,-0.184 4.572,-0.123L2.863,0.536Z" fill="#E6E6E6"/>
</svg>
