<svg width="18" height="4" viewBox="0 0 18 4" fill="none" xmlns="http://www.w3.org/2000/svg" xmlns:xlink="http://www.w3.org/1999/xlink">
<path d="M13.223,0.085C9.911,0.037 6.61,0.124 3.319,0.346C2.194,0.422 1.221,0.833 1.221,1.523C1.221,2.101 2.186,2.777 3.319,2.701C6.608,2.479 9.91,2.392 13.223,2.44C15.925,2.48 15.923,0.125 13.223,0.085Z" fill="#CCCCCC"/>
<path d="M8.328,2.324C7.97,2.324 -0.438,2.31 -0.438,1.11C-0.438,-0.091 7.97,-0.104 8.328,-0.104C8.686,-0.104 17.094,-0.091 17.094,1.11C17.094,2.31 8.686,2.324 8.328,2.324ZM-0.109,1.11C0.121,1.474 3.212,1.989 8.328,1.989C13.445,1.989 16.535,1.474 16.766,1.11C16.535,0.746 13.445,0.23 8.328,0.23C3.212,0.23 0.121,0.746 -0.109,1.11Z" fill="#3F3D56"/>
</svg>
