<svg width="44" height="138" viewBox="0 0 44 138" fill="none" xmlns="http://www.w3.org/2000/svg" xmlns:xlink="http://www.w3.org/1999/xlink">
<path d="M22,39.5L22,37.5L22,39.5ZM26,68C26,75.469 25.374,82.572 24.286,87.741L28.2,88.565C29.362,83.044 30,75.649 30,68L26,68ZM24.286,87.741C23.738,90.339 23.12,92.231 22.513,93.424C22.209,94.024 21.956,94.348 21.799,94.497C21.65,94.639 21.724,94.5 22,94.5L22,98.5C23.072,98.5 23.934,97.986 24.553,97.398C25.165,96.817 25.663,96.056 26.079,95.237C26.915,93.592 27.622,91.311 28.2,88.565L24.286,87.741ZM22,94.5C22.276,94.5 22.35,94.639 22.201,94.497C22.044,94.348 21.791,94.024 21.487,93.424C20.88,92.231 20.262,90.339 19.714,87.741L15.8,88.565C16.378,91.311 17.085,93.592 17.921,95.237C18.337,96.056 18.835,96.817 19.447,97.398C20.066,97.986 20.928,98.5 22,98.5L22,94.5ZM19.714,87.741C18.626,82.572 18,75.469 18,68L14,68C14,75.649 14.638,83.044 15.8,88.565L19.714,87.741ZM18,68C18,60.531 18.626,53.428 19.714,48.259L15.8,47.435C14.638,52.956 14,60.351 14,68L18,68ZM19.714,48.259C20.262,45.661 20.88,43.769 21.487,42.576C21.791,41.976 22.044,41.652 22.201,41.503C22.35,41.361 22.276,41.5 22,41.5L22,37.5C20.928,37.5 20.066,38.014 19.447,38.602C18.835,39.183 18.337,39.944 17.921,40.763C17.085,42.408 16.378,44.689 15.8,47.435L19.714,48.259ZM22,41.5C21.724,41.5 21.65,41.361 21.799,41.503C21.956,41.652 22.209,41.976 22.513,42.576C23.12,43.769 23.738,45.661 24.286,48.259L28.2,47.435C27.622,44.689 26.915,42.408 26.079,40.763C25.663,39.944 25.165,39.183 24.553,38.602C23.934,38.014 23.072,37.5 22,37.5L22,41.5ZM24.286,48.259C25.374,53.428 26,60.531 26,68L30,68C30,60.351 29.362,52.956 28.2,47.435L24.286,48.259Z" fill="#000000"/>
<path d="M2,68L0.004,67.868C-0.001,67.956 -0.001,68.044 0.004,68.132L2,68ZM40.168,68L42.164,68.132C42.169,68.044 42.169,67.956 42.164,67.868L40.168,68ZM3.996,68.132C5.265,48.938 7.783,32.464 11.065,20.84C12.709,15.014 14.515,10.521 16.38,7.529C18.317,4.422 19.95,3.5 21.084,3.5L21.084,-0.5C17.741,-0.5 15.068,2.072 12.986,5.413C10.832,8.867 8.903,13.773 7.215,19.754C3.83,31.745 1.283,48.521 0.004,67.868L3.996,68.132ZM21.084,3.5C22.219,3.5 23.852,4.423 25.789,7.529C27.654,10.521 29.459,15.014 31.104,20.84C34.385,32.464 36.903,48.937 38.172,68.132L42.164,67.868C40.885,48.521 38.339,31.745 34.954,19.754C33.266,13.773 31.337,8.867 29.183,5.413C27.1,2.072 24.427,-0.5 21.084,-0.5L21.084,3.5ZM38.172,67.868C36.903,87.063 34.385,103.536 31.104,115.16C29.459,120.986 27.654,125.479 25.789,128.471C23.852,131.577 22.219,132.5 21.084,132.5L21.084,136.5C24.427,136.5 27.1,133.928 29.183,130.587C31.337,127.133 33.266,122.227 34.954,116.246C38.339,104.255 40.885,87.479 42.164,68.132L38.172,67.868ZM21.084,132.5C19.95,132.5 18.317,131.578 16.38,128.471C14.515,125.479 12.709,120.986 11.065,115.16C7.783,103.536 5.265,87.062 3.996,67.868L0.004,68.132C1.283,87.479 3.83,104.255 7.215,116.246C8.903,122.227 10.832,127.133 12.986,130.587C15.068,133.928 17.741,136.5 21.084,136.5L21.084,132.5Z" fill="#000000"/>
</svg>
