<svg width="64" height="124" viewBox="0 0 64 124" fill="none" xmlns="http://www.w3.org/2000/svg" xmlns:xlink="http://www.w3.org/1999/xlink">
<path d="M33.61,67.502C49.746,67.502 62.826,54.422 62.826,38.286C62.826,22.151 49.746,9.07 33.61,9.07C17.475,9.07 4.395,22.151 4.395,38.286C4.395,54.422 17.475,67.502 33.61,67.502Z" fill="#FFB6B6"/>
<path d="M16.839,71.821L15.519,58.479L41.876,53.551L57.44,91.446L30.373,122.573L11.087,84.679L16.839,71.821Z" fill="#FFB6B6"/>
<path d="M15.095,65.158L20.858,66.46C20.858,66.46 16.328,52.095 17.865,50.724C19.403,49.353 23.171,51.513 23.171,51.513L27.13,55.953L31.953,51.042C31.953,51.042 37.189,44.532 39.239,42.703C41.289,40.875 37.996,34.088 37.996,34.088C37.996,34.088 68.41,25.887 57.093,11.134C57.093,11.134 50.458,-0.432 48.297,3.336C46.136,7.104 43.56,1.12 43.56,1.12L35.692,2.616C35.692,2.616 20.164,-6.54 5.426,13.047C-9.312,32.634 15.095,65.158 15.095,65.158Z" fill="#2F2E41"/>
</svg>
