<svg width="180" height="180" viewBox="0 0 180 180" fill="none" xmlns="http://www.w3.org/2000/svg" xmlns:xlink="http://www.w3.org/1999/xlink">
<path d="M146.558,160.021C130.591,172.966 110.839,180 90,180C70.971,180 52.846,174.134 37.685,163.259C37.712,162.975 37.739,162.694 37.763,162.413C38.165,158.015 38.524,153.738 38.761,150.192C39.678,136.425 71.797,127.249 71.797,127.249C71.797,127.249 71.943,127.394 72.234,127.648C74.006,129.205 81.203,134.848 93.823,136.425C105.077,137.832 108.782,131.157 109.902,127.959C110.24,126.985 110.341,126.332 110.341,126.332L143.377,141.933C145.533,145.012 146.375,151.644 146.541,159.097C146.548,159.405 146.555,159.71 146.558,160.021Z" fill="#0B8688"/>
<path d="M153.639,26.361C136.641,9.362 114.039,0 90,0C65.961,0 43.359,9.362 26.361,26.361C9.362,43.359 0,65.961 0,90C0,111.942 7.799,132.686 22.091,149.065C23.454,150.632 24.879,152.158 26.361,153.639C26.709,153.988 27.061,154.336 27.416,154.675C28.364,155.592 29.328,156.488 30.309,157.358C30.905,157.889 31.507,158.41 32.116,158.921C32.593,159.324 33.07,159.72 33.554,160.109C33.564,160.119 33.571,160.126 33.581,160.132C34.924,161.215 36.291,162.257 37.685,163.259C52.846,174.133 70.971,180 90,180C110.839,180 130.591,172.966 146.558,160.021C147.861,158.965 149.136,157.869 150.388,156.735C151.494,155.734 152.577,154.702 153.639,153.639C153.974,153.305 154.309,152.966 154.638,152.624C155.551,151.684 156.438,150.726 157.304,149.755C171.978,133.271 180,112.253 180,90C180,65.961 170.638,43.359 153.639,26.361ZM157.084,148.913C156.238,149.874 155.372,150.821 154.485,151.745C153.105,153.183 151.68,154.577 150.209,155.92C149.65,156.434 149.085,156.935 148.514,157.432C147.864,157.997 147.208,158.552 146.541,159.097C141.286,163.411 135.531,167.133 129.377,170.164C126.944,171.365 124.45,172.458 121.899,173.436C111.989,177.239 101.233,179.323 90,179.323C79.159,179.323 68.765,177.381 59.146,173.829C55.198,172.374 51.381,170.645 47.717,168.665C47.179,168.374 46.644,168.08 46.113,167.779C43.318,166.195 40.615,164.467 38.02,162.599C37.935,162.538 37.847,162.474 37.763,162.413C35.915,161.08 34.119,159.676 32.383,158.2C31.747,157.662 31.118,157.118 30.499,156.559C29.49,155.663 28.502,154.739 27.538,153.792C25.711,152.002 23.965,150.138 22.297,148.199C8.827,132.554 0.677,112.212 0.677,90C0.677,40.747 40.747,0.677 90,0.677C139.253,0.677 179.323,40.747 179.323,90C179.323,112.554 170.922,133.18 157.084,148.913Z" fill="#3F3D56"/>
</svg>
