<svg width="14" height="30" viewBox="0 0 14 30" fill="none" xmlns="http://www.w3.org/2000/svg" xmlns:xlink="http://www.w3.org/1999/xlink">
<path d="M6.585,26.316C10.178,26.316 13.091,21.054 13.091,14.564C13.091,8.073 10.178,2.812 6.585,2.812C2.992,2.812 0.079,8.073 0.079,14.564C0.079,21.054 2.992,26.316 6.585,26.316Z" fill="#CACACA"/>
<path d="M6.585,28.966C6.078,28.965 5.591,28.601 5.233,27.953C4.874,27.305 4.672,26.426 4.672,25.51L4.672,3.618C4.671,3.164 4.721,2.715 4.817,2.295C4.913,1.875 5.054,1.494 5.232,1.173C5.409,0.851 5.62,0.596 5.853,0.423C6.085,0.249 6.334,0.159 6.585,0.159C6.837,0.159 7.086,0.249 7.318,0.423C7.55,0.596 7.761,0.851 7.939,1.173C8.116,1.494 8.257,1.875 8.353,2.295C8.45,2.715 8.499,3.164 8.499,3.618L8.499,25.51C8.498,26.426 8.296,27.305 7.938,27.953C7.579,28.601 7.092,28.965 6.585,28.966Z" fill="#FFFFFF"/>
</svg>
