<svg width="18" height="42" viewBox="0 0 18 42" fill="none" xmlns="http://www.w3.org/2000/svg" xmlns:xlink="http://www.w3.org/1999/xlink">
<path d="M5.449,36.436C2.576,33.053 0.486,26.974 0.914,20.827C3.501,25.679 6.955,28.722 10.665,29.417C12.096,29.676 13.702,29.694 14.719,31.533C15.351,32.677 15.62,34.349 15.634,35.965C15.648,37.581 15.433,39.172 15.219,40.742L15.271,41.135C11.844,40.906 8.322,39.818 5.449,36.436Z" fill="#F0F0F0"/>
<path d="M0.986,20.825C2.061,25.571 3.936,29.585 6.345,32.296C6.858,32.896 7.42,33.346 8.011,33.63C8.591,33.873 9.197,33.831 9.765,33.509C10.299,33.227 10.826,32.827 11.388,32.785C11.675,32.77 11.962,32.866 12.227,33.066C12.493,33.266 12.733,33.565 12.93,33.943C13.435,34.863 13.728,36.056 13.991,37.241C14.283,38.557 14.575,39.931 15.171,40.906C15.243,41.024 15.137,41.219 15.065,41.101C14.029,39.406 13.915,36.686 13.101,34.72C12.721,33.802 12.186,33.086 11.531,33.055C10.959,33.029 10.415,33.44 9.876,33.734C9.325,34.063 8.737,34.144 8.164,33.968C7.567,33.739 6.996,33.329 6.476,32.754C5.292,31.494 4.226,29.905 3.316,28.047C2.271,25.936 1.434,23.519 0.84,20.898C0.803,20.736 0.949,20.664 0.986,20.825Z" fill="#FFFFFF"/>
<path d="M9.505,33.716C9.422,31.948 8.974,30.301 8.248,29.103C8.176,28.985 8.282,28.789 8.354,28.908C9.107,30.156 9.573,31.872 9.656,33.713C9.664,33.888 9.513,33.891 9.505,33.716Z" fill="#FFFFFF"/>
<path d="M2.461,25.823C2.61,25.609 2.727,25.332 2.801,25.016C2.876,24.7 2.906,24.356 2.888,24.015C2.879,23.839 3.03,23.837 3.04,24.011C3.058,24.389 3.024,24.769 2.942,25.118C2.861,25.467 2.733,25.774 2.57,26.013C2.555,26.038 2.536,26.052 2.517,26.053C2.497,26.053 2.477,26.04 2.463,26.016C2.449,25.991 2.44,25.956 2.44,25.92C2.44,25.884 2.448,25.849 2.461,25.823Z" fill="#FFFFFF"/>
<path d="M10.715,9.579C10.722,9.688 10.729,9.797 10.738,9.907C10.842,11.373 11.012,12.821 11.247,14.237C11.264,14.347 11.282,14.458 11.301,14.567C11.885,17.968 12.814,21.143 14.039,23.931C14.528,25.039 15.062,26.079 15.638,27.042C16.433,28.37 17.354,29.697 17.845,31.373C17.897,31.547 17.943,31.727 17.983,31.911L15.532,40.989C15.521,41.004 15.511,41.021 15.499,41.037L15.411,41.407C15.379,41.361 15.347,41.312 15.315,41.266C15.297,41.24 15.279,41.211 15.26,41.185C15.248,41.167 15.236,41.148 15.225,41.133C15.221,41.127 15.217,41.121 15.214,41.116C15.202,41.101 15.193,41.084 15.182,41.07C15.002,40.798 14.822,40.523 14.643,40.246C14.641,40.245 14.641,40.245 14.641,40.242C13.279,38.121 12.003,35.777 10.965,33.157C10.933,33.078 10.901,32.998 10.871,32.915C10.407,31.729 9.997,30.477 9.645,29.171C9.454,28.455 9.283,27.721 9.133,26.974C8.747,25.04 8.532,23.01 8.495,20.956C8.423,16.862 9.076,12.771 10.597,9.804C10.636,9.728 10.674,9.654 10.715,9.579Z" fill="#F0F0F0"/>
<path d="M10.773,9.655C10.049,14.614 10.209,19.858 11.229,24.643C11.438,25.68 11.737,26.651 12.114,27.52C12.496,28.345 12.994,28.97 13.555,29.331C14.075,29.686 14.629,29.94 15.092,30.517C15.326,30.819 15.523,31.207 15.669,31.655C15.814,32.103 15.906,32.603 15.937,33.119C16.034,34.404 15.87,35.674 15.685,36.907C15.48,38.275 15.255,39.69 15.406,41.116C15.424,41.289 15.275,41.33 15.256,41.157C14.994,38.677 15.81,36.381 15.815,33.926C15.818,32.78 15.629,31.625 15.116,30.889C14.668,30.246 14.097,29.983 13.569,29.631C13.019,29.294 12.522,28.719 12.123,27.956C11.723,27.124 11.404,26.175 11.18,25.15C10.655,22.858 10.334,20.43 10.227,17.956C10.096,15.135 10.233,12.293 10.632,9.555C10.657,9.385 10.797,9.487 10.773,9.655Z" fill="#FFFFFF"/>
<path d="M10.85,23.137C10.383,23.337 9.891,23.231 9.463,22.836C9.034,22.442 8.698,21.785 8.513,20.984C8.476,20.822 8.614,20.71 8.651,20.872C8.822,21.619 9.136,22.231 9.535,22.596C9.934,22.962 10.393,23.058 10.827,22.867C10.922,22.826 10.944,23.096 10.85,23.137Z" fill="#FFFFFF"/>
<path d="M-0.928,38.972L1.156,38.972C1.508,38.972 1.846,39.224 2.095,39.674C2.344,40.124 2.484,40.734 2.484,41.37L2.484,41.448L-0.928,41.449L-0.928,38.972Z" fill="#2F2E41"/>
<path d="M6.592,39.596L7.65,39.596L8.153,32.224L6.592,32.224L6.592,39.596Z" fill="#FFB6B6"/>
<path d="M6.322,38.972L8.406,38.972C8.758,38.972 9.096,39.224 9.345,39.674C9.594,40.124 9.734,40.734 9.734,41.37L9.734,41.448L6.322,41.449L6.322,38.972Z" fill="#2F2E41"/>
<path d="M9.313,-0.397C9.313,-0.397 9.604,7.089 9.031,10.86C8.457,14.63 8.355,37.431 8.355,37.431L6.434,37.431L4.769,6.394L0.929,37.541L-0.901,37.314L0.103,0.611L9.313,-0.397Z" fill="#2F2E41"/>
</svg>
