<svg width="46" height="84" viewBox="0 0 46 84" fill="none" xmlns="http://www.w3.org/2000/svg" xmlns:xlink="http://www.w3.org/1999/xlink">
<path d="M14.428,81.832L16.046,81.832L16.816,75L14.427,75L14.428,81.832Z" fill="#A0616A"/>
<path d="M14.371,83.68L19.347,83.68L19.347,83.611C19.347,82.44 18.48,81.491 17.41,81.491L16.501,80.736L14.805,81.491L14.371,81.491L14.371,83.68Z" fill="#2F2E41"/>
<path d="M24.317,81.832L25.936,81.832L26.706,75L24.317,75L24.317,81.832Z" fill="#A0616A"/>
<path d="M24.261,83.68L29.237,83.68L29.237,83.611C29.237,82.44 28.37,81.491 27.3,81.491L26.391,80.736L24.695,81.491L24.26,81.491L24.261,83.68Z" fill="#2F2E41"/>
<path d="M12.998,38.37L27.797,37.92L27.703,47.058L26.922,57.74C26.922,57.74 28.744,65.574 27.182,73.407L27.052,79.389L22.888,79.104C22.888,79.104 22.172,67.354 23.083,62.939L20.351,46.987L17.748,62.512C17.748,62.512 18.138,71.485 17.097,75.045L17.097,78.401L14.153,78.401C14.153,78.401 10.981,66.642 13.324,60.66L12.998,38.37Z" fill="#2F2E41"/>
<path d="M23.643,11.815C23.643,11.815 23.243,10.718 22.945,10.229C20.858,10.229 20.593,10.385 18.771,10.229L13.713,39.949C13.713,39.949 10.933,42.513 13.986,42.513C17.039,42.513 21.441,41.581 22.649,42.28C23.856,42.98 27.69,41.892 27.69,41.892L23.643,11.815Z" fill="#64CACB"/>
<path d="M18.854,10.17L16.982,12.35L15.745,12.368C14.601,12.385 13.685,13.409 13.694,14.661L14.081,27.15C14.081,27.15 10.578,39.032 12.921,39.498L12.495,41.285L16.99,44.316C16.99,44.316 18.353,36.335 18.566,34.548C18.779,32.76 19.837,22.686 19.837,22.686C19.837,22.686 19.631,14.4 19.489,13.632L18.854,10.17Z" fill="#2F2E41"/>
<path d="M23.004,10.26L22.081,15.467L24.424,29.223C24.424,29.223 23.856,41.969 25.631,43.212L28.428,42.419L28.215,39.932C28.215,39.932 28.471,39.326 28.329,36.995C28.187,34.663 27.35,30.413 27.35,30.413L28.59,14.923C28.59,14.923 25.489,11.736 24.14,12.125L23.004,10.26Z" fill="#2F2E41"/>
<path d="M7.703,39.536L7.991,35.296L10.227,35.139L9.776,39.609C9.849,39.722 9.907,39.847 9.949,39.985C10.173,40.731 9.802,41.535 9.12,41.781C8.438,42.027 7.703,41.621 7.479,40.874C7.336,40.398 7.435,39.899 7.703,39.536Z" fill="#A0616A"/>
<path d="M16.312,12.418L15.134,12.439C14.264,12.455 13.494,13.063 13.207,13.963L8.793,27.763L8.335,30.336C8.335,30.336 6.217,35.893 7.011,36.734L7.39,38.282L10.197,38.231L10.178,36.963C10.178,36.963 11.035,36.875 11.031,35.758C11.031,35.758 13.253,31.569 12.665,30.258L14.179,27.044L16.312,12.418Z" fill="#2F2E41"/>
<path d="M43.89,34.153L41.041,31.264L39.305,32.815L42.417,35.753C42.434,35.889 42.469,36.025 42.524,36.156C42.825,36.87 43.597,37.182 44.249,36.854C44.901,36.525 45.187,35.68 44.887,34.966C44.695,34.511 44.312,34.22 43.89,34.153Z" fill="#A0616A"/>
<path d="M26.79,13.385L25.36,19.428L30.365,26.956L31.995,28.878C31.995,28.878 39.013,34.879 40.102,34.672L41.467,35.25L43.084,32.737L42.137,32.007C42.137,32.007 42.577,31.196 41.75,30.542C41.75,30.542 35.803,25.254 34.489,25.002L33.008,21.769L28.483,14.87L26.79,13.385Z" fill="#2F2E41"/>
<path d="M23.384,8.923C23.365,8.94 23.346,8.953 23.327,8.965C23.176,9.075 23.018,9.174 22.853,9.258C22.85,9.261 22.846,9.262 22.842,9.264C22.544,9.418 22.222,9.533 21.882,9.602C21.534,9.672 21.188,9.69 20.852,9.66C19.12,9.51 17.63,8.108 17.299,6.15C17.188,5.497 17.219,4.852 17.366,4.251C17.748,2.7 18.912,1.447 20.452,1.135C22.588,0.703 24.639,2.248 25.034,4.585C25.326,6.314 24.63,7.993 23.384,8.923Z" fill="#A0616A"/>
<path d="M18.771,8.818L19.008,7.619C19.008,7.619 18.362,7.004 19.008,6.431L19.36,6.182L19.896,6.182L20.243,4.248L22.451,4.087C22.451,4.087 24.658,3.604 24.953,2.798C24.953,2.798 24.217,2.637 24.364,1.993C24.364,1.993 22.598,-0.424 20.979,0.221C19.36,0.865 18.771,1.509 18.771,1.509C18.771,1.509 16.121,1.026 16.121,4.57C16.121,8.115 18.771,8.818 18.771,8.818Z" fill="#2F2E41"/>
<path d="M42.971,39.76L38.523,39.76C38.041,39.76 37.648,39.331 37.648,38.803L37.648,29.5C37.648,28.972 38.041,28.543 38.523,28.543L42.971,28.543C43.453,28.543 43.845,28.972 43.845,29.5L43.845,38.803C43.845,39.331 43.453,39.76 42.971,39.76Z" fill="#3F3D56"/>
<path d="M43.846,31.965C43.825,31.965 43.809,31.983 43.809,32.005L43.809,33.301C43.809,33.324 43.825,33.342 43.846,33.342C43.866,33.342 43.883,33.324 43.883,33.301L43.883,32.005C43.883,31.983 43.866,31.965 43.846,31.965Z" fill="#3F3D56"/>
<path d="M43.762,29.501L43.762,38.804C43.762,39.263 43.436,39.639 43.022,39.668L43.022,39.668C43.016,39.669 43.01,39.669 43.004,39.669C42.993,39.67 42.982,39.67 42.971,39.67C42.971,39.67 42.93,39.667 42.856,39.661C42.781,39.655 42.671,39.646 42.535,39.634C42.494,39.63 42.451,39.626 42.406,39.622C42.315,39.614 42.215,39.605 42.109,39.595C42.066,39.591 42.022,39.587 41.977,39.583C41.747,39.561 41.49,39.536 41.219,39.507C41.173,39.502 41.126,39.498 41.08,39.492C41.068,39.491 41.055,39.49 41.043,39.488C40.849,39.468 40.65,39.445 40.451,39.421C40.438,39.42 40.426,39.418 40.414,39.417C40.07,39.375 39.725,39.33 39.402,39.282C39.153,39.244 38.918,39.205 38.707,39.164C38.638,39.151 38.572,39.138 38.508,39.124C38.496,39.122 38.484,39.119 38.471,39.116C38.024,39.018 37.731,38.912 37.731,38.804L37.731,29.501C37.731,29.023 38.086,28.635 38.523,28.635L38.995,28.635C39.071,28.635 39.131,28.699 39.138,28.782C39.139,28.787 39.139,28.793 39.14,28.798C39.154,28.881 39.223,28.938 39.3,28.938L42.194,28.938C42.271,28.938 42.34,28.881 42.354,28.798C42.355,28.793 42.355,28.787 42.356,28.782C42.362,28.699 42.423,28.635 42.498,28.635L42.971,28.635C43.408,28.635 43.762,29.023 43.762,29.501Z" fill="#64CACB"/>
<path d="M37.63,30.992C37.609,30.992 37.593,31.01 37.593,31.033L37.593,31.357C37.593,31.379 37.609,31.397 37.63,31.397C37.65,31.397 37.667,31.379 37.667,31.357L37.667,31.033C37.667,31.01 37.65,30.992 37.63,30.992Z" fill="#3F3D56"/>
<path d="M37.63,31.965C37.609,31.965 37.593,31.983 37.593,32.005L37.593,32.633C37.593,32.655 37.609,32.674 37.63,32.674C37.65,32.674 37.667,32.655 37.667,32.633L37.667,32.005C37.667,31.983 37.65,31.965 37.63,31.965Z" fill="#3F3D56"/>
<path d="M37.63,32.855C37.609,32.855 37.593,32.874 37.593,32.896L37.593,33.524C37.593,33.546 37.609,33.564 37.63,33.564C37.65,33.564 37.667,33.546 37.667,33.524L37.667,32.896C37.667,32.874 37.65,32.855 37.63,32.855Z" fill="#3F3D56"/>
<path d="M38.943,28.775L38.314,28.775C38.289,28.775 38.268,28.798 38.268,28.826C38.268,28.854 38.289,28.877 38.314,28.877L38.943,28.877C38.969,28.877 38.99,28.854 38.99,28.826C38.99,28.798 38.969,28.775 38.943,28.775Z" fill="#3F3D56"/>
<path d="M42.615,28.877C42.656,28.877 42.689,28.841 42.689,28.796C42.689,28.751 42.656,28.715 42.615,28.715C42.574,28.715 42.541,28.751 42.541,28.796C42.541,28.841 42.574,28.877 42.615,28.877Z" fill="#3F3D56"/>
<path d="M42.819,28.877C42.86,28.877 42.893,28.841 42.893,28.796C42.893,28.751 42.86,28.715 42.819,28.715C42.778,28.715 42.745,28.751 42.745,28.796C42.745,28.841 42.778,28.877 42.819,28.877Z" fill="#3F3D56"/>
<path d="M43.022,28.877C43.063,28.877 43.096,28.841 43.096,28.796C43.096,28.751 43.063,28.715 43.022,28.715C42.981,28.715 42.948,28.751 42.948,28.796C42.948,28.841 42.981,28.877 43.022,28.877Z" fill="#3F3D56"/>
<path d="M40.845,36.803C42.139,36.803 43.187,35.655 43.187,34.239C43.187,32.824 42.139,31.676 40.845,31.676C39.552,31.676 38.503,32.824 38.503,34.239C38.503,35.655 39.552,36.803 40.845,36.803Z" fill="#FFFFFF"/>
<path d="M41.419,33.416C41.232,33.169 40.919,33.023 40.628,33.116C40.362,33.201 40.141,33.477 40.165,33.792C40.177,33.938 40.231,34.078 40.325,34.185C40.431,34.304 40.565,34.346 40.713,34.359C40.87,34.374 41.006,34.4 41.111,34.542C41.202,34.665 41.23,34.829 41.178,34.979C41.054,35.334 40.614,35.375 40.431,35.056C40.358,34.93 40.176,35.046 40.249,35.172C40.398,35.433 40.703,35.576 40.977,35.479C41.243,35.384 41.439,35.082 41.414,34.773C41.388,34.452 41.155,34.187 40.865,34.144C40.712,34.121 40.552,34.139 40.448,33.989C40.368,33.873 40.35,33.711 40.411,33.58C40.486,33.42 40.648,33.319 40.81,33.319C40.995,33.318 41.155,33.428 41.27,33.58C41.357,33.694 41.505,33.53 41.419,33.416Z" fill="#64CACB"/>
<path d="M40.599,32.652L40.498,35.879C40.495,35.978 40.635,35.978 40.638,35.879L40.739,32.652C40.743,32.553 40.602,32.553 40.599,32.652Z" fill="#64CACB"/>
<path d="M40.927,32.652L40.825,35.879C40.822,35.978 40.963,35.978 40.966,35.879L41.067,32.652C41.07,32.553 40.93,32.553 40.927,32.652Z" fill="#64CACB"/>
<path d="M8.089,81.172C7.781,81.193 7.611,80.774 7.844,80.53L7.867,80.429C7.864,80.421 7.861,80.413 7.858,80.405C7.547,79.592 6.491,79.597 6.182,80.412C5.908,81.134 5.559,81.858 5.473,82.622C5.435,82.959 5.452,83.303 5.52,83.634C4.878,82.098 4.54,80.421 4.54,78.735C4.54,78.311 4.561,77.888 4.604,77.465C4.64,77.119 4.689,76.776 4.753,76.435C5.097,74.595 5.841,72.842 6.915,71.378C7.431,71.07 7.861,70.587 8.121,70.008C8.214,69.8 8.288,69.575 8.322,69.346C8.264,69.355 8.101,68.376 8.145,68.316C8.063,68.18 7.917,68.112 7.827,67.979C7.383,67.32 6.77,67.435 6.45,68.331C5.767,68.709 5.761,69.335 6.18,69.937C6.447,70.32 6.483,70.838 6.717,71.248C6.693,71.281 6.668,71.314 6.644,71.348C6.202,71.968 5.821,72.634 5.499,73.333C5.59,72.556 5.455,71.619 5.227,71.015C4.966,70.327 4.477,69.747 4.047,69.152C3.53,68.437 2.471,68.749 2.38,69.655C2.379,69.664 2.378,69.673 2.377,69.682C2.441,69.721 2.504,69.763 2.565,69.807C2.914,70.06 2.793,70.651 2.38,70.721L2.37,70.723C2.394,70.975 2.433,71.225 2.491,71.47C1.939,73.806 3.13,74.657 4.832,74.695C4.869,74.716 4.906,74.737 4.943,74.757C4.771,75.289 4.633,75.833 4.531,76.386C4.44,76.874 4.376,77.367 4.341,77.862C4.296,78.487 4.3,79.115 4.348,79.739L4.345,79.717C4.223,79.03 3.882,78.388 3.387,77.943C2.65,77.281 1.608,77.036 0.813,76.504C0.43,76.247 -0.061,76.578 0.006,77.064L0.009,77.088C0.128,77.14 0.243,77.201 0.355,77.27C0.419,77.309 0.482,77.351 0.543,77.396C0.892,77.648 0.771,78.24 0.358,78.31L0.348,78.311C0.342,78.312 0.336,78.313 0.329,78.314C0.532,78.842 0.815,79.333 1.17,79.755C1.515,81.794 2.997,81.988 4.582,81.394L4.583,81.394C4.757,82.22 5.01,83.028 5.335,83.797L8.022,83.797C8.032,83.764 8.04,83.731 8.049,83.698C7.8,83.715 7.55,83.699 7.305,83.65C7.505,83.382 7.704,83.112 7.903,82.844C7.908,82.839 7.912,82.834 7.916,82.829C8.017,82.692 8.119,82.556 8.22,82.419L8.22,82.418C8.227,81.998 8.18,81.578 8.089,81.172Z" fill="#F2F2F2"/>
</svg>
