<svg width="92" height="84" viewBox="0 0 92 84" fill="none" xmlns="http://www.w3.org/2000/svg" xmlns:xlink="http://www.w3.org/1999/xlink">
<g filter="url(#filterI707_2458;328_710)">
<path d="M0,14.72C0,9.568 0,6.991 1.003,5.023C1.885,3.292 3.292,1.885 5.023,1.003C6.991,0 9.568,0 14.72,0L77.28,0C82.432,0 85.009,0 86.977,1.003C88.708,1.885 90.115,3.292 90.997,5.023C92,6.991 92,9.568 92,14.72L92,69.28C92,74.432 92,77.009 90.997,78.977C90.115,80.708 88.708,82.115 86.977,82.997C85.009,84 82.432,84 77.28,84L14.72,84C9.568,84 6.991,84 5.023,82.997C3.292,82.115 1.885,80.708 1.003,78.977C0,77.009 0,74.432 0,69.28L0,14.72Z" clip-rule="evenodd" fill-rule="evenodd" fill="#ADB3BC"/>
</g>
<defs>
<filter id="filterI707_2458;328_710" x="0" y="0" width="46" height="43" filterUnits="userSpaceOnUse" color-interpolation-filters="sRGB">
<feFlood flood-opacity="0" result="BackgroundImageFix"/>
<feColorMatrix in="SourceAlpha" type="matrix" values="0 0 0 0 0 0 0 0 0 0 0 0 0 0 0 0 0 0 127 0" result="hardAlpha"/>
<feMorphology radius="0" operator="dilate" in="SourceAlpha" result="0dropshadow"/>
<feOffset dx="0" dy="1"/>
<feGaussianBlur stdDeviation="0"/>
<feComposite in2="hardAlpha" operator="out"/>
<feColorMatrix type="matrix" values="0 0 0 0 0.537255 0 0 0 0 0.541176 0 0 0 0 0.552941 0 0 0 1 0"/>
<feBlend mode="normal" in2="BackgroundImageFix" result="0dropshadow"/>
<feBlend mode="normal" in="SourceGraphic" in2="0dropshadow" result="shape"/>
</filter>
</defs>
</svg>
