<svg width="44" height="70" viewBox="0 0 44 70" fill="none" xmlns="http://www.w3.org/2000/svg" xmlns:xlink="http://www.w3.org/1999/xlink">
<path d="M22.895,37.473C33.652,37.473 42.372,30.206 42.372,21.242C42.372,12.278 33.652,5.011 22.895,5.011C12.138,5.011 3.418,12.278 3.418,21.242C3.418,30.206 12.138,37.473 22.895,37.473Z" fill="#FFB6B6"/>
<path d="M11.714,39.873L10.834,32.461L28.406,29.723L38.781,50.775L20.736,68.068L7.879,47.016L11.714,39.873Z" fill="#FFB6B6"/>
<path d="M10.552,36.171L14.393,36.894C14.393,36.894 11.373,28.914 12.398,28.152C13.423,27.39 15.935,28.591 15.935,28.591L18.575,31.057L21.79,28.329C21.79,28.329 25.28,24.712 26.647,23.696C28.014,22.681 25.819,18.91 25.819,18.91C25.819,18.91 46.095,14.354 38.55,6.158C38.55,6.158 34.127,-0.267 32.686,1.826C31.246,3.919 29.528,0.595 29.528,0.595L24.283,1.426C24.283,1.426 13.931,-3.661 4.105,7.221C-5.72,18.102 10.552,36.171 10.552,36.171Z" fill="#646667"/>
</svg>
