<svg width="30" height="50" viewBox="0 0 30 50" fill="none" xmlns="http://www.w3.org/2000/svg" xmlns:xlink="http://www.w3.org/1999/xlink">
<path d="M1.667,20.664C2.587,20.664 3.333,21.41 3.333,22.33C3.333,22.386 3.331,22.441 3.325,22.495L3.325,27.084L3.317,27.084L3.317,27.098C3.317,27.129 3.319,27.16 3.321,27.192C3.323,27.22 3.325,27.249 3.325,27.278L3.325,27.904L3.357,27.904C3.852,33.832 8.703,38.453 14.647,38.659L15.321,38.659C21.267,38.456 26.121,33.834 26.614,27.904L26.654,27.904L26.654,22.35L26.667,22.35L26.667,22.33C26.667,21.41 27.413,20.664 28.333,20.664C29.254,20.664 30,21.41 30,22.33C30,22.378 29.998,22.426 29.994,22.473L29.994,26.564L29.974,26.564L29.973,26.564C29.979,34.221 24.256,40.672 16.653,41.579L16.653,46.646L22.933,46.646L22.933,46.668C22.955,46.667 22.978,46.666 23,46.666C23.92,46.666 24.667,47.413 24.667,48.333C24.667,49.254 23.92,50 23,50C22.978,50 22.955,50 22.933,49.999L22.933,50L7.06,50L7.06,49.999C7.04,50 7.02,50 7,50C6.08,50 5.333,49.254 5.333,48.333C5.333,47.413 6.08,46.666 7,46.666C7.02,46.666 7.04,46.667 7.06,46.667L7.06,46.646L13.353,46.646L13.353,41.579C5.735,40.694 -0.009,34.235 0,26.564C0,26.524 0.003,26.486 0.007,26.449L0.007,26.449C0.009,26.418 0.012,26.388 0.013,26.358L0.013,22.537C0.004,22.469 0,22.4 0,22.33C0,21.41 0.746,20.664 1.667,20.664ZM23.987,23.757C23.987,24.764 23.987,25.824 23.933,26.831C23.892,27.739 23.754,28.64 23.52,29.518C22.998,31.361 21.886,32.982 20.353,34.132C17.21,36.612 12.776,36.612 9.633,34.132C8.097,32.986 6.983,31.363 6.465,29.518C6.23,28.64 6.092,27.739 6.053,26.831C5.995,25.824 6,24.764 6,23.757L6,15.33C6,14.33 6.005,9.909 6,9.162C6.026,8.249 6.184,7.344 6.467,6.475C7.534,2.648 11.021,0 14.994,0C18.967,0 22.454,2.648 23.521,6.475C23.772,7.352 23.928,8.253 23.988,9.162C24.048,10.169 23.988,14.33 23.988,15.33L23.988,23.757L23.987,23.757ZM20.653,25.331C20.653,25.971 20.64,26.184 20.6,26.824C20.577,27.405 20.49,27.982 20.34,28.544C20.021,29.725 19.326,30.768 18.36,31.518C16.381,33.056 13.612,33.056 11.633,31.518C10.664,30.771 9.966,29.726 9.647,28.544C9.5,27.982 9.413,27.405 9.387,26.824C9.353,26.184 9.347,25.971 9.347,25.331C9.347,16.463 9.307,9.889 9.36,9.182C9.399,8.601 9.495,8.025 9.647,7.462C9.966,6.281 10.664,5.236 11.633,4.489C13.612,2.951 16.381,2.951 18.36,4.489C19.326,5.238 20.021,6.282 20.34,7.462C20.509,8.022 20.617,8.599 20.66,9.182C20.707,9.943 20.653,16.436 20.653,25.331Z" clip-rule="evenodd" fill-rule="evenodd" fill="#50555C"/>
</svg>
