<svg width="22" height="52" viewBox="0 0 22 52" fill="none" xmlns="http://www.w3.org/2000/svg" xmlns:xlink="http://www.w3.org/1999/xlink">
<path d="M5.515,3.032L5.004,4.149C5.004,4.149 4.534,5.712 5.084,6.336C5.635,6.959 5.757,11.733 5.166,12.085C4.574,12.438 12.67,8.817 12.67,8.817C12.67,8.817 9.509,2.409 9.456,2.385C9.402,2.362 7.331,1.797 7.331,1.797L5.516,3.031L5.515,3.032Z" fill="#2F2E43"/>
<path d="M10.785,8.552L8.073,9.332L8.073,5.919L10.534,5.919L10.785,8.552Z" fill="#F6A6A9"/>
<path d="M2.495,27.932C2.347,28.714 1.751,29.274 1.162,29.185C0.573,29.094 0.214,28.387 0.362,27.606C0.415,27.292 0.558,26.997 0.775,26.742L1.448,23.436L3.278,23.771L2.421,26.994C2.533,27.298 2.56,27.62 2.495,27.932Z" fill="#F6A6A9"/>
<path d="M9.767,46.768L7.226,46.768L7.226,49.919L9.767,49.919L9.767,46.768Z" fill="#F6A6A9"/>
<path d="M4.751,51.826C4.483,51.826 4.246,51.82 4.067,51.806C3.392,51.752 2.747,51.317 2.424,51.062C2.279,50.948 2.232,50.765 2.309,50.609C2.362,50.496 2.471,50.411 2.607,50.377L4.39,49.932L7.277,48.229L7.309,48.278C7.321,48.297 7.606,48.744 7.699,49.045C7.736,49.159 7.726,49.256 7.671,49.329C7.632,49.38 7.58,49.41 7.537,49.427C7.589,49.476 7.753,49.572 8.257,49.642C8.993,49.745 9.147,49.077 9.154,49.05L9.159,49.028L9.181,49.016C9.531,48.818 9.747,48.729 9.822,48.748C9.869,48.76 9.946,48.78 10.155,50.598C10.177,50.655 10.323,51.074 10.224,51.474C10.115,51.908 7.942,51.759 7.507,51.724C7.495,51.724 5.866,51.826 4.751,51.826Z" fill="#2F2E43"/>
<path d="M18.103,44.573L15.647,44.573L15.647,47.857L18.103,47.857L18.103,44.573Z" transform="rotate(-57.205 16.875 46.215)" fill="#F6A6A9"/>
<path d="M14.136,51.395C13.838,51.395 13.564,51.364 13.37,51.333C13.177,51.304 13.028,51.171 12.996,51.002C12.974,50.881 13.015,50.759 13.108,50.669L14.352,49.465L15.772,46.684L15.831,46.712C15.852,46.722 16.363,46.97 16.626,47.182C16.726,47.262 16.776,47.349 16.773,47.437C16.773,47.498 16.745,47.548 16.72,47.582C16.793,47.598 16.991,47.605 17.461,47.431C18.148,47.178 17.876,46.539 17.863,46.512L17.853,46.491L17.865,46.471C18.042,46.141 18.171,45.964 18.246,45.947C18.293,45.935 18.372,45.917 19.649,47.362C19.701,47.4 20.079,47.687 20.237,48.073C20.408,48.493 18.472,49.372 18.084,49.543C18.072,49.552 16.047,50.838 15.216,51.204C14.886,51.349 14.496,51.395 14.14,51.395L14.136,51.395Z" fill="#2F2E43"/>
<path d="M11.637,20.416L4.525,20.416L3.879,26.201L6.703,47.574L10.335,47.574L8.883,35.229L14.773,46.374L18,44.399L13.402,33.995C13.402,33.995 15.044,24.93 13.753,22.673C12.462,20.416 11.639,20.416 11.639,20.416L11.637,20.416Z" fill="#2F2E43"/>
<path d="M15.174,20.769L2.829,20.769L7.267,8.001L12.189,8.001L15.174,20.769Z" fill="#E6E6E6"/>
<path d="M8.044,8.002C8.044,8.002 4.979,7.932 4.656,8.637C4.333,9.343 0.541,26.132 0.541,26.132L3.042,26.132L8.044,8.002Z" fill="#E6E6E6"/>
<path d="M8.409,6.864C9.902,6.864 11.111,5.806 11.111,4.501C11.111,3.196 9.902,2.139 8.409,2.139C6.917,2.139 5.707,3.196 5.707,4.501C5.707,5.806 6.917,6.864 8.409,6.864Z" fill="#F6A6A9"/>
<path d="M8.933,0.83C8.933,0.83 12.188,0.101 13.182,3.886C13.182,3.886 13.209,4.874 13.773,5.274C14.337,5.673 14.15,7.743 14.15,7.743C14.15,7.743 15.226,9.294 14.311,10C14.311,10 13.907,11.434 14.498,12.257C15.089,13.08 17.322,17.607 13.611,17.882C13.611,17.882 11.729,16.888 12.616,13.926C13.504,10.963 12.509,9.327 12.509,9.327C12.509,9.327 9.658,8.424 9.821,6.494C9.981,4.567 7.992,2.662 7.857,2.686C7.721,2.709 6.323,2.004 5.706,4.167L5.043,4.069C5.043,4.069 4.765,0.429 8.933,0.828L8.933,0.83Z" fill="#2F2E43"/>
<path d="M17.28,27.552C17.461,28.329 17.131,29.038 16.544,29.137C15.956,29.235 15.335,28.686 15.154,27.909C15.077,27.6 15.089,27.278 15.189,26.974L14.475,23.675L16.321,23.42L16.828,26.7C17.058,26.95 17.212,27.243 17.279,27.555L17.28,27.552Z" fill="#F6A6A9"/>
<path d="M10.038,8.017C10.038,8.017 12.738,7.718 13.062,8.424C13.385,9.129 17.177,25.918 17.177,25.918L14.675,25.918L10.04,8.018L10.038,8.017Z" fill="#E6E6E6"/>
</svg>
