<svg width="4" height="4" viewBox="0 0 4 4" fill="none" xmlns="http://www.w3.org/2000/svg" xmlns:xlink="http://www.w3.org/1999/xlink">
<path d="M1.062,2.602C0.533,2.602 0.102,2.226 0.102,1.764C0.102,1.301 0.533,0.925 1.062,0.925C1.591,0.925 2.021,1.301 2.021,1.764C2.021,2.226 1.591,2.602 1.062,2.602ZM1.062,1.153C0.677,1.153 0.363,1.427 0.363,1.764C0.363,2.1 0.677,2.374 1.062,2.374C1.447,2.374 1.76,2.1 1.76,1.764C1.76,1.427 1.447,1.153 1.062,1.153Z" fill="#484662"/>
<path d="M2.87,3.289C2.839,3.289 2.809,3.28 2.784,3.261L1.572,2.352C1.517,2.311 1.512,2.239 1.559,2.191C1.606,2.143 1.688,2.138 1.743,2.179L2.955,3.088C3.01,3.129 3.015,3.201 2.968,3.249C2.943,3.276 2.906,3.289 2.87,3.289Z" fill="#484662"/>
</svg>
