<svg width="44" height="32" viewBox="0 0 44 32" fill="none" xmlns="http://www.w3.org/2000/svg" xmlns:xlink="http://www.w3.org/1999/xlink">
<path d="M28,16L30,16L28,16ZM22,10L22,8L22,10ZM26,16C26,17.061 25.579,18.078 24.828,18.828L27.657,21.657C29.157,20.157 30,18.122 30,16L26,16ZM24.828,18.828C24.078,19.579 23.061,20 22,20L22,24C24.122,24 26.157,23.157 27.657,21.657L24.828,18.828ZM22,20C20.939,20 19.922,19.579 19.172,18.828L16.343,21.657C17.843,23.157 19.878,24 22,24L22,20ZM19.172,18.828C18.421,18.078 18,17.061 18,16L14,16C14,18.122 14.843,20.157 16.343,21.657L19.172,18.828ZM18,16C18,14.939 18.421,13.922 19.172,13.172L16.343,10.343C14.843,11.843 14,13.878 14,16L18,16ZM19.172,13.172C19.922,12.421 20.939,12 22,12L22,8C19.878,8 17.843,8.843 16.343,10.343L19.172,13.172ZM22,12C23.061,12 24.078,12.421 24.828,13.172L27.657,10.343C26.157,8.843 24.122,8 22,8L22,12ZM24.828,13.172C25.579,13.922 26,14.939 26,16L30,16C30,13.878 29.157,11.843 27.657,10.343L24.828,13.172Z" fill="#000000"/>
<path d="M2,16L0.092,15.401C-0.031,15.791 -0.031,16.209 0.092,16.599L2,16ZM40.168,16L42.076,16.599C42.199,16.209 42.199,15.791 42.076,15.401L40.168,16ZM3.908,16.599C6.202,9.295 13.028,4 21.084,4L21.084,0C11.232,0 2.894,6.477 0.092,15.401L3.908,16.599ZM21.084,4C29.141,4 35.966,9.295 38.26,16.599L42.076,15.401C39.274,6.477 30.939,0 21.084,0L21.084,4ZM38.26,15.401C35.966,22.705 29.141,28 21.084,28L21.084,32C30.939,32 39.274,25.523 42.076,16.599L38.26,15.401ZM21.084,28C13.028,28 6.202,22.705 3.908,15.401L0.092,16.599C2.894,25.523 11.232,32 21.084,32L21.084,28Z" fill="#000000"/>
</svg>
