<svg width="150" height="145" viewBox="0 0 150 145" fill="none" xmlns="http://www.w3.org/2000/svg">
<path d="M144.058 0.000912916H99.0312C96.8583 0.000785509 94.7501 0.885783 93.0531 2.51042C91.356 4.13506 90.1712 6.40266 89.6933 8.94044L66.9426 129.762C66.6944 131.08 66.6901 132.447 66.9298 133.767C67.1695 135.087 67.6475 136.329 68.3303 137.404C69.0131 138.48 69.8841 139.363 70.8823 139.993C71.8805 140.623 72.9816 140.984 74.1086 141.051L120.397 143.781C122.875 143.927 125.313 142.989 127.257 141.141C129.2 139.292 130.515 136.661 130.956 133.737L143.863 48.3151L144.823 48.6436L147.293 32.4527L146.305 32.157L149.907 8.31243C150.062 7.29109 150.026 6.24155 149.803 5.23863C149.579 4.23572 149.174 3.30413 148.616 2.51029C148.057 1.71645 147.359 1.0799 146.572 0.646033C145.784 0.212165 144.926 -0.00833929 144.06 0.00024114L144.058 0.000912916Z" fill="#3F3D56"/>
<path d="M104.958 2.60547H99.7027C98.1933 2.60549 96.7293 3.22354 95.5537 4.35704C94.3781 5.49054 93.5617 7.0713 93.2399 8.83692L71.4017 128.673C71.2759 129.363 71.2759 130.077 71.4019 130.767C71.5279 131.457 71.7767 132.107 72.1315 132.671C72.4863 133.235 72.9386 133.701 73.4576 134.037C73.9765 134.372 74.5499 134.57 75.1385 134.616L121.276 138.236C122.578 138.339 123.865 137.863 124.893 136.901C125.92 135.94 126.616 134.558 126.847 133.021L145.482 9.15888C145.603 8.3572 145.575 7.5336 145.4 6.7462C145.226 5.9588 144.91 5.22679 144.473 4.60183C144.037 3.97686 143.491 3.47417 142.875 3.12922C142.259 2.78428 141.587 2.60549 140.906 2.60547H135.921C135.438 2.60545 134.969 2.79591 134.586 3.14735C134.203 3.49879 133.927 3.99162 133.802 4.54954C133.691 5.04225 133.447 5.47747 133.109 5.78777C132.771 6.09808 132.356 6.26616 131.93 6.26597H108.26C107.426 6.26594 106.622 5.88893 106.01 5.2103C105.398 4.53167 105.022 3.60142 104.958 2.60547Z" fill="white"/>
<path d="M130.463 86.3811C130.553 86.3847 130.641 86.3497 130.711 86.2823C130.781 86.215 130.828 86.1198 130.844 86.0141L141.047 18.5941C141.057 18.53 141.055 18.4642 141.041 18.4011C141.028 18.338 141.003 18.2791 140.969 18.2285C140.935 18.1782 140.892 18.1376 140.844 18.1093C140.795 18.0811 140.742 18.066 140.688 18.0652L94.2687 17.4087H94.2644C94.1801 17.4095 94.0986 17.4446 94.0331 17.5082C93.9677 17.5718 93.9222 17.6601 93.9042 17.7587L81.8761 82.9903C81.8643 83.0539 81.8642 83.1199 81.8757 83.1836C81.8872 83.2474 81.9101 83.3074 81.9427 83.3595C81.975 83.4113 82.0165 83.4539 82.0642 83.4843C82.1118 83.5147 82.1644 83.5321 82.2184 83.5354L130.463 86.3811Z" fill="#E6E6E6"/>
<path d="M90.1803 90.7402C90.1381 90.7403 90.0971 90.7574 90.0641 90.7889C90.031 90.8203 90.0078 90.8642 89.9982 90.9134L89.5635 93.144C89.5574 93.1756 89.557 93.2083 89.5624 93.24C89.5678 93.2717 89.5789 93.3016 89.5949 93.3277C89.6109 93.3538 89.6315 93.3754 89.6551 93.3911C89.6788 93.4068 89.705 93.4161 89.7319 93.4185L114.289 95.5082C114.335 95.5117 114.38 95.4953 114.416 95.462C114.452 95.4288 114.477 95.381 114.486 95.3274L114.904 92.7466C114.909 92.7153 114.909 92.683 114.903 92.652C114.896 92.621 114.885 92.5919 114.868 92.5667C114.852 92.5415 114.831 92.5208 114.808 92.5059C114.784 92.491 114.758 92.4823 114.732 92.4804L90.1917 90.7407L90.1803 90.7402Z" fill="#E6E6E6"/>
<path d="M120.016 103.794C120.06 103.798 120.104 103.783 120.14 103.752C120.176 103.721 120.202 103.676 120.213 103.624L120.745 101.038C120.751 101.006 120.752 100.973 120.747 100.941C120.741 100.909 120.73 100.879 120.714 100.852C120.698 100.826 120.678 100.804 120.654 100.788C120.63 100.772 120.604 100.763 120.576 100.761L89.2151 98.1345C89.1726 98.1304 89.1301 98.1441 89.095 98.1732C89.0599 98.2024 89.0343 98.2451 89.0226 98.2942L88.4696 100.529C88.4617 100.561 88.4599 100.595 88.4642 100.628C88.4686 100.661 88.479 100.692 88.4947 100.719C88.5105 100.747 88.5311 100.77 88.5552 100.786C88.5793 100.803 88.6062 100.813 88.6339 100.816L120.016 103.794Z" fill="#E6E6E6"/>
<path d="M118.332 112.083C118.376 112.088 118.42 112.073 118.456 112.042C118.492 112.011 118.518 111.965 118.528 111.913L119.061 109.327C119.067 109.296 119.068 109.263 119.063 109.23C119.057 109.198 119.046 109.168 119.03 109.142C119.014 109.115 118.994 109.093 118.97 109.078C118.946 109.062 118.919 109.052 118.892 109.05L87.531 106.424C87.4885 106.42 87.4461 106.434 87.411 106.463C87.3759 106.492 87.3503 106.535 87.3385 106.584L86.7855 108.819C86.7776 108.851 86.7758 108.884 86.7801 108.917C86.7845 108.95 86.7949 108.981 86.8107 109.009C86.8264 109.036 86.847 109.059 86.8711 109.076C86.8952 109.093 86.9221 109.103 86.9498 109.105L118.332 112.083Z" fill="#E6E6E6"/>
<path d="M63.9575 141.268C63.9575 143.143 49.6222 143.342 31.9787 144.663C14.3509 145.982 0 143.143 0 141.268C0 139.392 14.4179 135.62 31.9787 137.873C49.6222 140.136 63.9575 139.392 63.9575 141.268Z" fill="#E6E6E6"/>
<path d="M103.888 126.255C103.933 126.261 103.977 126.247 104.014 126.216C104.051 126.185 104.077 126.139 104.087 126.086L105.212 120.698C105.219 120.666 105.22 120.633 105.215 120.601C105.21 120.57 105.199 120.539 105.183 120.513C105.167 120.486 105.147 120.464 105.123 120.448C105.1 120.432 105.073 120.423 105.046 120.42L85.7876 118.481C85.7427 118.477 85.6981 118.492 85.6617 118.524C85.6254 118.556 85.5997 118.603 85.5893 118.655L84.6295 123.827C84.6237 123.858 84.6235 123.89 84.6289 123.921C84.6343 123.952 84.6452 123.982 84.6608 124.007C84.6765 124.033 84.6965 124.054 84.7196 124.07C84.7427 124.086 84.7683 124.096 84.7947 124.099L103.888 126.255Z" fill="#0B8688"/>
<path d="M26.1253 104.297C26.3678 104.098 26.5709 103.837 26.7203 103.534C26.8697 103.231 26.9618 102.893 26.99 102.542C27.0182 102.192 26.9819 101.838 26.8837 101.507C26.7854 101.175 26.6276 100.873 26.4213 100.622L27.2011 79.7817L23.2311 80.3152L23.4619 100.7C23.1326 101.143 22.9505 101.715 22.95 102.307C22.9494 102.9 23.1306 103.472 23.459 103.915C23.7874 104.359 24.2404 104.642 24.7318 104.712C25.2233 104.783 25.7192 104.634 26.1255 104.296L26.1253 104.297Z" fill="#A0616A"/>
<path d="M33.3679 139.575L35.6275 140.051L37.8608 129.842L34.9002 129.14L33.3679 139.575Z" fill="#A0616A"/>
<path d="M39.617 143.48L32.5155 141.985L32.9979 138.7L37.3556 139.617C38.0832 139.771 38.7303 140.264 39.1544 140.988C39.5785 141.712 39.7449 142.609 39.6169 143.48L39.617 143.48Z" fill="#2F2E41"/>
<path d="M27.1659 140.929H29.4601L30.5515 130.334H27.1655L27.1659 140.929Z" fill="#A0616A"/>
<path d="M33.8838 143.48L26.6734 143.48L26.6733 140.145L31.0978 140.145C31.8367 140.145 32.5453 140.496 33.0677 141.122C33.5902 141.747 33.8838 142.595 33.8838 143.48Z" fill="#2F2E41"/>
<path d="M36.7375 137.132C36.7018 137.132 36.666 137.129 36.6305 137.124L33.9302 136.858C33.8073 136.841 33.6885 136.794 33.5813 136.72C33.474 136.646 33.3803 136.547 33.3061 136.428C33.2318 136.309 33.1785 136.174 33.1493 136.03C33.1201 135.886 33.1156 135.736 33.1362 135.59L35.8169 119.754L34.1327 109.118C34.119 109.031 34.0796 108.954 34.0218 108.899C33.9641 108.845 33.8918 108.817 33.8185 108.822C33.7451 108.826 33.6755 108.862 33.6225 108.923C33.5695 108.984 33.5368 109.066 33.5303 109.154L31.0487 136.18C31.0256 136.465 30.911 136.727 30.7291 136.913C30.5472 137.098 30.3122 137.192 30.0738 137.174L27.5297 137.061C27.3068 137.042 27.0974 136.926 26.941 136.735C26.7846 136.543 26.6921 136.29 26.6809 136.023L26.8841 103.364L40.0734 101.39L40.9948 118.427L40.991 118.445L37.6244 136.296C37.5759 136.534 37.4622 136.746 37.3014 136.897C37.1407 137.049 36.9421 137.131 36.7375 137.132Z" fill="#2F2E41"/>
<path d="M31.2336 66.2777C33.772 66.2777 35.8297 63.814 35.8297 60.7748C35.8297 57.7357 33.772 55.272 31.2336 55.272C28.6952 55.272 26.6375 57.7357 26.6375 60.7748C26.6375 63.814 28.6952 66.2777 31.2336 66.2777Z" fill="#A0616A"/>
<path d="M35.5642 105.849C34.8453 105.854 34.1403 105.613 33.5325 105.153C31.3056 103.487 28.7773 104.149 27.4681 104.692C27.3382 104.747 27.1996 104.766 27.0629 104.747C26.9261 104.728 26.7946 104.673 26.6782 104.585C26.5632 104.498 26.466 104.382 26.394 104.244C26.3219 104.106 26.2768 103.95 26.2621 103.789L23.8816 78.3313C23.4826 74.0659 25.6286 70.0557 28.9843 68.7959C29.1104 68.7485 29.2386 68.7037 29.3688 68.6614C30.4131 68.3225 31.5067 68.2616 32.5727 68.4831C33.6387 68.7047 34.6512 69.2032 35.5389 69.9437C36.4432 70.6922 37.1995 71.669 37.7545 72.8052C38.3096 73.9414 38.6498 75.2095 38.7514 76.5201L40.7558 102.148C40.7694 102.314 40.7507 102.482 40.7011 102.637C40.6516 102.793 40.5724 102.933 40.47 103.046C39.7672 103.824 37.7278 105.849 35.5642 105.849Z" fill="#0B8688"/>
<path d="M28.3146 83.7907L22.9439 83.0836C22.7911 83.0635 22.6436 83.0042 22.5117 82.9097C22.3797 82.8152 22.2663 82.6878 22.1792 82.5361C22.0921 82.3844 22.0333 82.2121 22.0069 82.0307C21.9805 81.8494 21.987 81.6633 22.026 81.4853L23.3932 75.2464C23.4335 74.7788 23.5507 74.3254 23.7383 73.9124C23.9258 73.4993 24.1798 73.1349 24.4856 72.8401C24.7915 72.5453 25.1431 72.326 25.5201 72.1949C25.8972 72.0638 26.2922 72.0234 26.6824 72.0762C27.0725 72.1289 27.4501 72.2737 27.7932 72.5022C28.1364 72.7307 28.4383 73.0383 28.6815 73.4073C28.9248 73.7764 29.1045 74.1994 29.2104 74.6521C29.3163 75.1048 29.3461 75.5781 29.2983 76.0447L29.5014 82.4693C29.5072 82.6533 29.4798 82.8366 29.4211 83.0068C29.3624 83.177 29.2737 83.33 29.1612 83.4554C29.0486 83.5809 28.9148 83.6758 28.7688 83.7338C28.6229 83.7917 28.4682 83.8113 28.3153 83.7912L28.3146 83.7907Z" fill="#0B8688"/>
<path d="M40.7339 103.404C40.9545 103.172 41.1299 102.884 41.2476 102.562C41.3654 102.239 41.4226 101.89 41.4154 101.538C41.4081 101.186 41.3366 100.841 41.2057 100.526C41.0748 100.211 40.8879 99.9339 40.658 99.7147L39.3344 78.9136L35.4441 79.9621L37.7271 100.219C37.4448 100.706 37.3215 101.3 37.3806 101.888C37.4397 102.477 37.6771 103.019 38.0478 103.411C38.4185 103.804 38.8966 104.02 39.3916 104.019C39.8866 104.018 40.364 103.799 40.7332 103.404H40.7339Z" fill="#A0616A"/>
<path d="M33.9528 82.4832C33.8402 82.3579 33.7515 82.2049 33.6928 82.0348C33.6341 81.8647 33.6067 81.6814 33.6126 81.4974L33.8156 75.0729C33.7718 74.6086 33.8049 74.1386 33.9128 73.6897C34.0207 73.2407 34.2015 72.8216 34.4447 72.4563C34.6879 72.091 34.9888 71.7866 35.3303 71.5605C35.6718 71.3344 36.0471 71.1911 36.4348 71.1387C36.8226 71.0863 37.2151 71.1258 37.5901 71.255C37.9651 71.3842 38.3151 71.6006 38.6202 71.8918C38.9254 72.183 39.1796 72.5433 39.3684 72.9521C39.5573 73.361 39.677 73.8103 39.7208 74.2746L41.0879 80.5134C41.127 80.6915 41.1335 80.8775 41.107 81.0588C41.0806 81.2402 41.0218 81.4126 40.9347 81.5643C40.8476 81.7159 40.7342 81.8434 40.6023 81.9378C40.4703 82.0323 40.3229 82.0917 40.1701 82.1118L34.7994 82.8189C34.6465 82.839 34.4918 82.8194 34.3458 82.7614C34.1998 82.7034 34.066 82.6084 33.9535 82.4828L33.9528 82.4832Z" fill="#0B8688"/>
<path d="M30.9602 66.4849C30.8783 66.4849 30.7967 66.4736 30.717 66.4511L30.6936 66.4444C26.6527 65.705 25.7595 62.9017 25.5636 61.7315C25.3607 60.5199 25.5916 59.3503 26.1137 58.896C25.8291 57.8205 25.8748 56.8659 26.2498 56.0591C26.9047 54.652 28.3234 54.1771 28.5141 54.1179C29.6477 53.1166 31.004 53.785 31.2509 53.9205C33.4439 52.9493 34.2824 53.7576 34.4336 53.9382C35.4138 54.1491 36.0113 54.6023 36.2097 55.2861C36.5822 56.5701 35.4041 58.1674 35.3537 58.2348L35.3275 58.2698L33.5722 58.3699C33.4057 58.3794 33.2426 58.4308 33.0937 58.5206C32.9448 58.6104 32.8133 58.7367 32.7078 58.8913C32.6022 59.0458 32.525 59.2252 32.4811 59.4178C32.4372 59.6104 32.4277 59.8119 32.453 60.0093C32.5005 60.2638 32.5605 60.5148 32.6326 60.7609C32.9321 61.8825 33.1566 62.8408 32.8673 63.2051C32.8017 63.2756 32.7208 63.3225 32.6339 63.3405C32.5471 63.3586 32.4577 63.347 32.3761 63.307C32.1016 63.2192 31.9154 63.2376 31.8225 63.3619C31.6785 63.5544 31.7224 64.0419 31.9464 64.7342C32.0167 64.9532 32.0356 65.191 32.0011 65.4219C31.9666 65.6528 31.88 65.868 31.7507 66.0442C31.6533 66.1817 31.5322 66.2923 31.3957 66.3684C31.2591 66.4445 31.1105 66.4843 30.9599 66.4849H30.9602Z" fill="#2F2E41"/>
</svg>
