<svg width="44" height="34" viewBox="0 0 44 34" fill="none" xmlns="http://www.w3.org/2000/svg" xmlns:xlink="http://www.w3.org/1999/xlink">
<path d="M27.65,16.783L29.65,16.783L27.65,16.783ZM21.65,10.783L21.65,8.783L21.65,10.783ZM25.65,16.783C25.65,17.844 25.228,18.861 24.478,19.611L27.307,22.44C28.807,20.939 29.65,18.905 29.65,16.783L25.65,16.783ZM24.478,19.611C23.728,20.361 22.711,20.783 21.65,20.783L21.65,24.783C23.772,24.783 25.806,23.94 27.307,22.44L24.478,19.611ZM21.65,20.783C20.589,20.783 19.572,20.361 18.821,19.611L15.993,22.44C17.493,23.94 19.528,24.783 21.65,24.783L21.65,20.783ZM18.821,19.611C18.071,18.861 17.65,17.844 17.65,16.783L13.65,16.783C13.65,18.905 14.493,20.939 15.993,22.44L18.821,19.611ZM17.65,16.783C17.65,15.722 18.071,14.705 18.821,13.954L15.993,11.126C14.493,12.626 13.65,14.661 13.65,16.783L17.65,16.783ZM18.821,13.954C19.572,13.204 20.589,12.783 21.65,12.783L21.65,8.783C19.528,8.783 17.493,9.626 15.993,11.126L18.821,13.954ZM21.65,12.783C22.711,12.783 23.728,13.204 24.478,13.954L27.307,11.126C25.806,9.626 23.772,8.783 21.65,8.783L21.65,12.783ZM24.478,13.954C25.228,14.705 25.65,15.722 25.65,16.783L29.65,16.783C29.65,14.661 28.807,12.626 27.307,11.126L24.478,13.954Z" transform="rotate(-355.23 21.65 16.783)" fill="#000000"/>
<path d="M2.566,16.782L0.658,16.183C0.535,16.573 0.535,16.992 0.658,17.382L2.566,16.782ZM40.734,16.782L42.642,17.382C42.764,16.992 42.764,16.573 42.642,16.183L40.734,16.782ZM4.474,17.382C6.768,10.077 13.594,4.782 21.65,4.782L21.65,0.782C11.797,0.782 3.46,7.259 0.658,16.183L4.474,17.382ZM21.65,4.782C29.707,4.782 36.532,10.077 38.826,17.382L42.642,16.183C39.84,7.26 31.504,0.782 21.65,0.782L21.65,4.782ZM38.826,16.183C36.532,23.488 29.707,28.782 21.65,28.782L21.65,32.782C31.504,32.782 39.84,26.305 42.642,17.382L38.826,16.183ZM21.65,28.782C13.594,28.782 6.768,23.487 4.474,16.183L0.658,17.382C3.46,26.305 11.797,32.782 21.65,32.782L21.65,28.782Z" transform="rotate(-355.23 21.65 16.782)" fill="#000000"/>
</svg>
