<svg width="70" height="58" viewBox="0 0 70 58" fill="none" xmlns="http://www.w3.org/2000/svg" xmlns:xlink="http://www.w3.org/1999/xlink">
<path d="M0.527,0L0.472,0.273L45.977,0.334C59.076,0.334 69.695,11.956 69.695,26.294L69.695,56.863L70,56.863L70,3.784C70,1.694 68.452,0 66.543,0L0.527,0Z" fill="#E6E6E6"/>
<path d="M50.647,13.016C51.358,13.016 51.935,12.371 51.935,11.574C51.935,10.778 51.358,10.133 50.647,10.133C49.935,10.133 49.358,10.778 49.358,11.574C49.358,12.371 49.935,13.016 50.647,13.016Z" fill="#3F3D56"/>
<path d="M46.196,13.016C46.907,13.016 47.484,12.371 47.484,11.574C47.484,10.778 46.907,10.133 46.196,10.133C45.484,10.133 44.907,10.778 44.907,11.574C44.907,12.371 45.484,13.016 46.196,13.016Z" fill="#3F3D56"/>
<path d="M41.745,13.016C42.456,13.016 43.033,12.371 43.033,11.574C43.033,10.778 42.456,10.133 41.745,10.133C41.033,10.133 40.457,10.778 40.457,11.574C40.457,12.371 41.033,13.016 41.745,13.016Z" fill="#3F3D56"/>
<path d="M31.202,33.378L13.183,33.378C12.564,33.378 12.062,32.828 12.062,32.151C12.062,31.474 12.564,30.924 13.183,30.924L31.202,30.924C31.82,30.924 32.323,31.474 32.323,32.151C32.323,32.828 31.82,33.378 31.202,33.378Z" fill="#E6E6E6"/>
<path d="M45.264,37.53L13.183,37.53C12.564,37.53 12.062,36.98 12.062,36.303C12.062,35.627 12.564,35.076 13.183,35.076L45.264,35.076C45.882,35.076 46.385,35.627 46.385,36.303C46.385,36.98 45.882,37.53 45.264,37.53Z" fill="#E6E6E6"/>
<path d="M51.335,43.983L7.112,43.983C6.157,43.983 5.38,43.133 5.38,42.088L5.38,26.368C5.38,25.323 6.157,24.473 7.112,24.473L51.335,24.473C52.29,24.473 53.067,25.323 53.067,26.368L53.067,42.088C53.067,43.133 52.29,43.983 51.335,43.983ZM7.112,24.806C6.325,24.806 5.685,25.507 5.685,26.368L5.685,42.088C5.685,42.949 6.325,43.649 7.112,43.649L51.335,43.649C52.122,43.649 52.762,42.949 52.762,42.088L52.762,26.368C52.762,25.507 52.122,24.806 51.335,24.806L7.112,24.806Z" fill="#3F3D56"/>
<path d="M52.175,48.191C54.278,48.191 55.984,46.325 55.984,44.022C55.984,41.72 54.278,39.854 52.175,39.854C50.071,39.854 48.366,41.72 48.366,44.022C48.366,46.325 50.071,48.191 52.175,48.191Z" fill="#64CACB"/>
<path d="M53.108,42.685C52.803,42.282 52.295,42.045 51.822,42.196C51.389,42.335 51.029,42.783 51.069,43.295C51.088,43.533 51.176,43.761 51.329,43.934C51.5,44.128 51.719,44.196 51.959,44.218C52.216,44.242 52.435,44.283 52.606,44.514C52.754,44.715 52.801,44.982 52.716,45.225C52.514,45.802 51.799,45.87 51.5,45.35C51.383,45.147 51.086,45.335 51.204,45.54C51.448,45.963 51.943,46.196 52.388,46.038C52.821,45.884 53.139,45.393 53.099,44.89C53.057,44.368 52.678,43.938 52.206,43.867C51.958,43.83 51.698,43.86 51.529,43.617C51.398,43.426 51.37,43.163 51.469,42.95C51.59,42.69 51.854,42.526 52.118,42.526C52.417,42.525 52.679,42.704 52.865,42.95C53.006,43.136 53.248,42.869 53.108,42.685Z" fill="#FFFFFF"/>
<path d="M51.774,41.443L51.609,46.691C51.604,46.852 51.833,46.851 51.838,46.691L52.003,41.443C52.008,41.282 51.779,41.282 51.774,41.443Z" fill="#FFFFFF"/>
<path d="M52.307,41.443L52.142,46.691C52.137,46.852 52.366,46.851 52.371,46.691L52.536,41.443C52.541,41.282 52.312,41.282 52.307,41.443Z" fill="#FFFFFF"/>
</svg>
