<svg width="56" height="56" viewBox="0 0 56 56" fill="none" xmlns="http://www.w3.org/2000/svg" xmlns:xlink="http://www.w3.org/1999/xlink">
<path d="M18.667,9.333L18.667,7.333C18.09,7.333 17.541,7.582 17.162,8.016L18.667,9.333ZM2.333,28L0.828,26.683C0.168,27.437 0.168,28.563 0.828,29.317L2.333,28ZM18.667,46.667L17.162,47.984C17.541,48.418 18.09,48.667 18.667,48.667L18.667,46.667ZM49,7.333L18.667,7.333L18.667,11.333L49,11.333L49,7.333ZM17.162,8.016L0.828,26.683L3.839,29.317L20.172,10.65L17.162,8.016ZM0.828,29.317L17.162,47.984L20.172,45.35L3.839,26.683L0.828,29.317ZM18.667,48.667L49,48.667L49,44.667L18.667,44.667L18.667,48.667ZM49,48.667C50.768,48.667 52.464,47.964 53.714,46.714L50.886,43.885C50.386,44.386 49.707,44.667 49,44.667L49,48.667ZM53.714,46.714C54.964,45.464 55.667,43.768 55.667,42L51.667,42C51.667,42.707 51.386,43.385 50.886,43.885L53.714,46.714ZM55.667,42L55.667,14L51.667,14L51.667,42L55.667,42ZM55.667,14C55.667,12.232 54.964,10.536 53.714,9.286L50.886,12.114C51.386,12.614 51.667,13.293 51.667,14L55.667,14ZM53.714,9.286C52.464,8.036 50.768,7.333 49,7.333L49,11.333C49.707,11.333 50.386,11.614 50.886,12.114L53.714,9.286Z" fill="#17171B"/>
<path d="M43.414,22.414C44.195,21.633 44.195,20.367 43.414,19.586C42.633,18.805 41.367,18.805 40.586,19.586L43.414,22.414ZM26.586,33.586C25.805,34.367 25.805,35.633 26.586,36.414C27.367,37.195 28.633,37.195 29.414,36.414L26.586,33.586ZM40.586,19.586L26.586,33.586L29.414,36.414L43.414,22.414L40.586,19.586Z" fill="#17171B"/>
<path d="M29.414,19.586C28.633,18.805 27.367,18.805 26.586,19.586C25.805,20.367 25.805,21.633 26.586,22.414L29.414,19.586ZM40.586,36.414C41.367,37.195 42.633,37.195 43.414,36.414C44.195,35.633 44.195,34.367 43.414,33.586L40.586,36.414ZM26.586,22.414L40.586,36.414L43.414,33.586L29.414,19.586L26.586,22.414Z" fill="#17171B"/>
</svg>
