<svg width="70" height="28" viewBox="0 0 70 28" fill="none" xmlns="http://www.w3.org/2000/svg" xmlns:xlink="http://www.w3.org/1999/xlink">
<path d="M66.284,21.42L65.684,0L68.114,0L68.714,21.42L66.284,21.42Z" fill="#0B8688"/>
<path d="M55.731,21.57L56.001,19.11C57.141,19.11 57.941,19 58.401,18.78C58.861,18.56 59.121,18.17 59.181,17.61C59.261,17.05 59.281,16.27 59.241,15.27L58.671,0L61.101,0L61.701,15C61.741,16.06 61.701,17 61.581,17.82C61.481,18.64 61.221,19.33 60.801,19.89C60.401,20.45 59.791,20.87 58.971,21.15C58.171,21.43 57.091,21.57 55.731,21.57Z" fill="#0B8688"/>
<path d="M46.737,21.57L47.007,19.11C48.147,19.11 48.947,19 49.407,18.78C49.867,18.56 50.127,18.17 50.187,17.61C50.267,17.05 50.287,16.27 50.247,15.27L49.737,0L52.227,0L52.707,15.21C52.747,16.23 52.907,17.03 53.187,17.61C53.487,18.17 53.887,18.56 54.387,18.78C54.887,19 55.437,19.11 56.037,19.11C56.457,19.11 56.757,19.23 56.937,19.47C57.137,19.69 57.237,19.96 57.237,20.28C57.237,20.6 57.097,20.9 56.817,21.18C56.537,21.44 56.177,21.57 55.737,21.57C54.897,21.57 54.197,21.44 53.637,21.18C53.097,20.9 52.667,20.55 52.347,20.13C52.047,19.69 51.847,19.23 51.747,18.75L52.377,18.81C52.177,19.41 51.847,19.92 51.387,20.34C50.947,20.74 50.347,21.05 49.587,21.27C48.827,21.47 47.877,21.57 46.737,21.57Z" fill="#0B8688"/>
<path d="M31.883,21.57L32.183,19.11C32.683,19.11 33.193,19.11 33.713,19.11C34.253,19.09 34.783,19.06 35.303,19.02C35.823,18.98 36.323,18.93 36.803,18.87C37.283,18.81 37.713,18.72 38.093,18.6C38.793,18.38 39.433,18.09 40.013,17.73C40.613,17.37 41.093,16.93 41.453,16.41C41.833,15.89 42.023,15.29 42.023,14.61C42.023,14.15 41.913,13.68 41.693,13.2C41.473,12.7 41.173,12.28 40.793,11.94C40.413,11.6 39.973,11.43 39.473,11.43C38.993,11.43 38.543,11.59 38.123,11.91C37.723,12.23 37.393,12.65 37.133,13.17C36.893,13.67 36.773,14.19 36.773,14.73C36.773,15.37 36.933,15.95 37.253,16.47C37.593,16.97 38.003,17.4 38.483,17.76C38.963,18.12 39.443,18.41 39.923,18.63L37.073,19.47C36.753,19.23 36.373,18.9 35.933,18.48C35.513,18.04 35.133,17.5 34.793,16.86C34.473,16.22 34.313,15.49 34.313,14.67C34.313,13.87 34.453,13.13 34.733,12.45C35.033,11.75 35.423,11.14 35.903,10.62C36.403,10.1 36.963,9.7 37.583,9.42C38.223,9.12 38.883,8.97 39.563,8.97C40.543,8.97 41.403,9.24 42.143,9.78C42.883,10.32 43.453,11.01 43.853,11.85C44.273,12.67 44.483,13.53 44.483,14.43C44.483,15.29 44.323,16.07 44.003,16.77C43.683,17.45 43.243,18.06 42.683,18.6C42.143,19.14 41.503,19.6 40.763,19.98C40.043,20.36 39.273,20.67 38.453,20.91C37.993,21.05 37.493,21.16 36.953,21.24C36.433,21.32 35.883,21.38 35.303,21.42C34.723,21.48 34.143,21.52 33.563,21.54C32.983,21.56 32.423,21.57 31.883,21.57ZM46.733,21.57C45.733,21.57 44.693,21.51 43.613,21.39C42.553,21.25 41.543,21.08 40.583,20.88C39.643,20.66 38.863,20.42 38.243,20.16L40.313,18.66C40.913,18.74 41.623,18.82 42.443,18.9C43.263,18.96 44.083,19.01 44.903,19.05C45.723,19.09 46.433,19.11 47.033,19.11C47.453,19.11 47.753,19.23 47.933,19.47C48.133,19.69 48.233,19.96 48.233,20.28C48.233,20.6 48.093,20.9 47.813,21.18C47.533,21.44 47.173,21.57 46.733,21.57ZM41.393,5.88C40.973,5.88 40.613,5.74 40.313,5.46C40.033,5.16 39.893,4.81 39.893,4.41C39.893,4.01 40.033,3.66 40.313,3.36C40.613,3.06 40.973,2.91 41.393,2.91C41.793,2.91 42.133,3.06 42.413,3.36C42.713,3.66 42.863,4.01 42.863,4.41C42.863,4.81 42.713,5.16 42.413,5.46C42.133,5.74 41.793,5.88 41.393,5.88ZM37.283,5.88C36.863,5.88 36.503,5.74 36.203,5.46C35.923,5.16 35.783,4.81 35.783,4.41C35.783,4.01 35.923,3.66 36.203,3.36C36.503,3.06 36.863,2.91 37.283,2.91C37.683,2.91 38.023,3.06 38.303,3.36C38.603,3.66 38.753,4.01 38.753,4.41C38.753,4.81 38.603,5.16 38.303,5.46C38.023,5.74 37.683,5.88 37.283,5.88Z" fill="#0B8688"/>
<path d="M10.8,22.05L11.58,19.59C12.8,19.59 14.09,19.52 15.45,19.38C16.81,19.22 18.16,18.95 19.5,18.57C20.86,18.17 22.15,17.63 23.37,16.95C24.59,16.27 25.66,15.41 26.58,14.37L28.47,15.48C28.29,15.94 28.17,16.31 28.11,16.59C28.05,16.85 28.02,17.09 28.02,17.31C28.02,17.61 28.13,17.9 28.35,18.18C28.57,18.44 28.98,18.66 29.58,18.84C30.2,19.02 31.07,19.11 32.19,19.11C32.61,19.11 32.91,19.23 33.09,19.47C33.29,19.69 33.39,19.96 33.39,20.28C33.39,20.6 33.25,20.9 32.97,21.18C32.69,21.44 32.33,21.57 31.89,21.57C30.61,21.57 29.48,21.44 28.5,21.18C27.54,20.9 26.82,20.47 26.34,19.89C25.88,19.29 25.73,18.52 25.89,17.58L26.43,17.76C25.63,18.48 24.67,19.11 23.55,19.65C22.45,20.17 21.22,20.61 19.86,20.97C18.52,21.33 17.08,21.6 15.54,21.78C14.02,21.96 12.44,22.05 10.8,22.05ZM10.8,22.05C9.02,22.05 7.45,21.93 6.09,21.69C4.75,21.47 3.63,21.12 2.73,20.64C1.83,20.16 1.15,19.54 0.69,18.78C0.23,18 0,17.06 0,15.96C0,15.46 0.04,14.95 0.12,14.43C0.2,13.89 0.3,13.35 0.42,12.81C0.56,12.27 0.7,11.75 0.84,11.25L3.09,11.82C3.01,12.12 2.92,12.48 2.82,12.9C2.72,13.3 2.63,13.71 2.55,14.13C2.49,14.55 2.46,14.93 2.46,15.27C2.46,16.31 2.72,17.15 3.24,17.79C3.78,18.41 4.71,18.87 6.03,19.17C7.35,19.45 9.2,19.59 11.58,19.59L12.18,21.09L10.8,22.05ZM12.99,27.75C12.57,27.75 12.21,27.6 11.91,27.3C11.63,27.02 11.49,26.68 11.49,26.28C11.49,25.88 11.63,25.53 11.91,25.23C12.21,24.93 12.57,24.78 12.99,24.78C13.39,24.78 13.73,24.93 14.01,25.23C14.31,25.53 14.46,25.88 14.46,26.28C14.46,26.68 14.31,27.02 14.01,27.3C13.73,27.6 13.39,27.75 12.99,27.75Z" fill="#0B8688"/>
</svg>
