<svg width="64" height="34" viewBox="0 0 64 34" fill="none" xmlns="http://www.w3.org/2000/svg" xmlns:xlink="http://www.w3.org/1999/xlink">
<path d="M60.292,21.42L59.692,0L62.122,0L62.722,21.42L60.292,21.42Z" fill="#0B8688"/>
<path d="M51.861,5.34C51.861,4.9 51.831,4.37 51.771,3.75C51.711,3.13 51.641,2.51 51.561,1.89C51.481,1.27 51.401,0.74 51.321,0.3L53.901,0C53.961,0.4 54.021,0.93 54.081,1.59C54.161,2.23 54.221,2.87 54.261,3.51C54.301,4.15 54.321,4.68 54.321,5.1C54.321,6.06 54.251,7 54.111,7.92C53.991,8.82 53.791,9.71 53.511,10.59C53.231,11.45 52.861,12.29 52.401,13.11L52.041,13.77C51.481,14.71 50.791,15.62 49.971,16.5C49.151,17.36 48.191,18.18 47.091,18.96L50.871,18.96C51.551,18.96 52.071,18.88 52.431,18.72C52.791,18.54 53.031,18.31 53.151,18.03C53.291,17.75 53.361,17.45 53.361,17.13C53.361,16.59 53.031,15.92 52.371,15.12C51.731,14.3 50.841,13.4 49.701,12.42C48.561,11.42 47.271,10.37 45.831,9.27C44.391,8.17 42.871,7.05 41.271,5.91L42.681,3.93C44.521,5.29 46.141,6.52 47.541,7.62C48.961,8.72 50.171,9.73 51.171,10.65C52.191,11.55 53.021,12.39 53.661,13.17C54.321,13.93 54.801,14.66 55.101,15.36C55.421,16.04 55.581,16.71 55.581,17.37C55.581,17.81 55.501,18.27 55.341,18.75C55.201,19.21 54.941,19.65 54.561,20.07C54.201,20.47 53.681,20.8 53.001,21.06C52.341,21.3 51.481,21.42 50.421,21.42L43.521,21.42L43.521,18.99C45.581,17.51 47.211,16.07 48.411,14.67C49.631,13.27 50.511,11.81 51.051,10.29C51.591,8.77 51.861,7.12 51.861,5.34Z" fill="#0B8688"/>
<path d="M16.546,21.57L16.846,19.11C17.486,19.11 18.006,19.07 18.406,18.99C18.806,18.89 19.136,18.66 19.396,18.3C19.676,17.92 19.936,17.33 20.176,16.53C20.416,15.73 20.696,14.61 21.016,13.17L23.266,13.8C23.186,14.14 23.096,14.53 22.996,14.97C22.896,15.39 22.806,15.83 22.726,16.29C22.646,16.73 22.606,17.14 22.606,17.52C22.606,18.02 22.796,18.41 23.176,18.69C23.556,18.97 24.246,19.11 25.246,19.11C25.846,19.11 26.336,19.06 26.716,18.96C27.096,18.86 27.406,18.62 27.646,18.24C27.906,17.86 28.136,17.25 28.336,16.41C28.536,15.57 28.746,14.42 28.966,12.96L31.246,13.38C31.186,13.74 31.116,14.18 31.036,14.7C30.956,15.22 30.876,15.74 30.796,16.26C30.736,16.76 30.706,17.18 30.706,17.52C30.706,17.8 30.766,18.07 30.886,18.33C31.026,18.57 31.286,18.76 31.666,18.9C32.066,19.04 32.656,19.11 33.436,19.11C34.016,19.11 34.516,19.04 34.936,18.9C35.376,18.76 35.706,18.5 35.926,18.12C36.166,17.74 36.286,17.21 36.286,16.53C36.286,15.77 36.106,14.82 35.746,13.68C35.406,12.52 35.016,11.37 34.576,10.23L37.006,9.33C37.266,9.97 37.506,10.7 37.726,11.52C37.966,12.34 38.166,13.15 38.326,13.95C38.486,14.75 38.566,15.45 38.566,16.05C38.566,16.97 38.446,17.78 38.206,18.48C37.966,19.18 37.626,19.76 37.186,20.22C36.746,20.66 36.206,21 35.566,21.24C34.926,21.46 34.206,21.57 33.406,21.57C32.466,21.57 31.696,21.46 31.096,21.24C30.496,21.02 30.036,20.69 29.716,20.25C29.396,19.79 29.186,19.21 29.086,18.51L30.106,18.51C29.726,19.37 29.326,20.02 28.906,20.46C28.486,20.9 27.966,21.2 27.346,21.36C26.726,21.5 25.906,21.57 24.886,21.57C24.386,21.57 23.846,21.49 23.266,21.33C22.706,21.17 22.216,20.86 21.796,20.4C21.376,19.92 21.126,19.21 21.046,18.27L21.946,18.09C21.606,19.11 21.186,19.87 20.686,20.37C20.206,20.85 19.626,21.17 18.946,21.33C18.266,21.49 17.466,21.57 16.546,21.57Z" fill="#0B8688"/>
<path d="M2.01,33.211C1.59,31.671 1.23,30.161 0.93,28.681C0.63,27.221 0.4,25.911 0.24,24.751C0.08,23.591 0,22.731 0,22.171C0,20.691 0.24,19.341 0.72,18.121C1.2,16.901 1.82,15.831 2.58,14.911C3.34,13.971 4.16,13.181 5.04,12.541C5.92,11.881 6.77,11.391 7.59,11.071C8.43,10.731 9.14,10.561 9.72,10.561C10.22,10.561 10.66,10.671 11.04,10.891C11.42,11.111 11.79,11.541 12.15,12.181C12.51,12.821 12.89,13.761 13.29,15.001C13.67,16.141 14.03,17.011 14.37,17.611C14.71,18.191 15.08,18.591 15.48,18.811C15.88,19.011 16.34,19.111 16.86,19.111C17.28,19.111 17.58,19.231 17.76,19.471C17.96,19.691 18.06,19.961 18.06,20.281C18.06,20.601 17.92,20.901 17.64,21.181C17.36,21.441 17,21.571 16.56,21.571C15.78,21.571 15.11,21.431 14.55,21.151C14.01,20.871 13.54,20.491 13.14,20.011L13.83,19.441C13.59,20.021 13.28,20.501 12.9,20.881C12.54,21.241 12.13,21.511 11.67,21.691C11.23,21.871 10.76,21.961 10.26,21.961C9.68,21.961 9.08,21.851 8.46,21.631C7.84,21.431 7.23,21.131 6.63,20.731C6.03,20.311 5.46,19.801 4.92,19.201C4.4,18.601 3.94,17.921 3.54,17.161L3.84,17.221C3.28,18.001 2.91,18.851 2.73,19.771C2.55,20.671 2.46,21.471 2.46,22.171C2.46,22.731 2.52,23.441 2.64,24.301C2.76,25.181 2.91,26.111 3.09,27.091C3.29,28.071 3.5,29.041 3.72,30.001C3.96,30.981 4.18,31.861 4.38,32.641L2.01,33.211ZM10.5,19.501C10.86,19.501 11.15,19.431 11.37,19.291C11.61,19.151 11.77,18.941 11.85,18.661C11.93,18.381 11.9,18.031 11.76,17.611C11.52,16.891 11.3,16.261 11.1,15.721C10.9,15.161 10.7,14.701 10.5,14.341C10.32,13.961 10.13,13.681 9.93,13.501C9.73,13.321 9.52,13.231 9.3,13.231C9.08,13.231 8.8,13.281 8.46,13.381C8.14,13.481 7.79,13.631 7.41,13.831C7.05,14.031 6.68,14.281 6.3,14.581C5.92,14.881 5.56,15.231 5.22,15.631L5.25,15.391C5.69,16.311 6.22,17.081 6.84,17.701C7.48,18.321 8.12,18.781 8.76,19.081C9.42,19.361 10,19.501 10.5,19.501Z" fill="#0B8688"/>
</svg>
