<svg width="142" height="30" viewBox="0 0 142 30" fill="none" xmlns="http://www.w3.org/2000/svg" xmlns:xlink="http://www.w3.org/1999/xlink">
<path d="M127.622,21.57L127.922,19.11C128.482,19.11 128.952,18.99 129.332,18.75C129.712,18.51 130.082,18.11 130.442,17.55C130.802,16.99 131.192,16.24 131.612,15.3C132.192,14.02 132.762,13.05 133.322,12.39C133.902,11.73 134.472,11.28 135.032,11.04C135.612,10.8 136.182,10.68 136.742,10.68C137.422,10.68 138.052,10.86 138.632,11.22C139.212,11.56 139.722,12.02 140.162,12.6C140.602,13.18 140.942,13.82 141.182,14.52C141.442,15.2 141.572,15.88 141.572,16.56C141.572,17.76 141.362,18.72 140.942,19.44C140.522,20.14 139.982,20.65 139.322,20.97C138.682,21.27 138.012,21.42 137.312,21.42C136.692,21.42 135.892,21.3 134.912,21.06C133.952,20.82 132.732,20.21 131.252,19.23L132.422,17.34C133.402,17.96 134.282,18.39 135.062,18.63C135.862,18.85 136.522,18.96 137.042,18.96C137.622,18.96 138.082,18.88 138.422,18.72C138.762,18.54 139.012,18.29 139.172,17.97C139.332,17.65 139.412,17.29 139.412,16.89C139.412,16.31 139.272,15.73 138.992,15.15C138.712,14.57 138.352,14.09 137.912,13.71C137.492,13.33 137.042,13.14 136.562,13.14C136.202,13.14 135.852,13.24 135.512,13.44C135.172,13.64 134.822,14.01 134.462,14.55C134.102,15.09 133.692,15.87 133.232,16.89C132.752,17.97 132.292,18.83 131.852,19.47C131.432,20.09 131.002,20.55 130.562,20.85C130.122,21.15 129.662,21.34 129.182,21.42C128.722,21.52 128.202,21.57 127.622,21.57Z" fill="#0B8688"/>
<path d="M112.387,21.571L112.687,19.111L114.997,19.111C116.657,19.111 117.887,19.021 118.687,18.841C119.487,18.661 120.007,18.421 120.247,18.121C120.507,17.821 120.637,17.511 120.637,17.191C120.637,16.711 120.457,16.181 120.097,15.601C119.737,15.021 119.277,14.431 118.717,13.831C118.157,13.211 117.557,12.601 116.917,12.001C116.297,11.401 115.707,10.851 115.147,10.351C114.587,9.851 114.127,9.421 113.767,9.061C113.407,8.681 113.227,8.411 113.227,8.251C113.227,7.951 113.247,7.661 113.287,7.381C113.347,7.101 113.417,6.841 113.497,6.601C113.597,6.361 113.717,6.171 113.857,6.031C114.257,5.611 114.807,5.171 115.507,4.711C116.207,4.231 117.017,3.751 117.937,3.271C118.857,2.771 119.837,2.271 120.877,1.771C121.917,1.251 122.967,0.731 124.027,0.211L125.047,2.431C124.087,2.911 123.127,3.391 122.167,3.871C121.207,4.331 120.277,4.791 119.377,5.251C118.477,5.711 117.627,6.181 116.827,6.661C116.047,7.121 115.337,7.591 114.697,8.071L114.877,7.051C115.777,7.811 116.627,8.541 117.427,9.241C118.227,9.941 118.987,10.661 119.707,11.401C120.427,12.121 121.097,12.901 121.717,13.741C122.337,14.581 122.917,15.511 123.457,16.531C123.877,17.311 124.367,17.881 124.927,18.241C125.487,18.601 126.037,18.841 126.577,18.961C127.137,19.061 127.587,19.111 127.927,19.111C128.347,19.111 128.647,19.231 128.827,19.471C129.027,19.691 129.127,19.961 129.127,20.281C129.127,20.601 128.987,20.901 128.707,21.181C128.427,21.441 128.067,21.571 127.627,21.571C127.087,21.571 126.447,21.491 125.707,21.331C124.987,21.151 124.277,20.811 123.577,20.311C122.877,19.811 122.297,19.051 121.837,18.031L122.737,18.391C122.437,18.931 122.087,19.401 121.687,19.801C121.307,20.181 120.817,20.511 120.217,20.791C119.617,21.051 118.887,21.251 118.027,21.391C117.167,21.511 116.117,21.571 114.877,21.571L112.387,21.571Z" fill="#0B8688"/>
<path d="M112.387,21.57C110.787,21.57 109.557,21.39 108.697,21.03C107.857,20.67 107.277,20.11 106.957,19.35C106.637,18.59 106.457,17.61 106.417,16.41L105.817,0L108.277,0L108.877,15.45C108.917,16.43 109.007,17.19 109.147,17.73C109.307,18.25 109.647,18.61 110.167,18.81C110.707,19.01 111.547,19.11 112.687,19.11C113.107,19.11 113.407,19.23 113.587,19.47C113.787,19.69 113.887,19.96 113.887,20.28C113.887,20.6 113.747,20.9 113.467,21.18C113.187,21.44 112.827,21.57 112.387,21.57Z" fill="#0B8688"/>
<path d="M84.02,21.45C84.02,20.97 84.06,20.46 84.14,19.92C84.24,19.36 84.38,18.77 84.56,18.15C84.76,17.51 85,16.84 85.28,16.14L87.44,16.98C87.24,17.54 87.06,18.07 86.9,18.57C86.76,19.07 86.65,19.54 86.57,19.98C86.51,20.42 86.48,20.84 86.48,21.24C86.48,22.28 86.75,23.14 87.29,23.82C87.83,24.5 88.57,25.01 89.51,25.35C90.45,25.69 91.51,25.86 92.69,25.86C94.03,25.86 95.15,25.68 96.05,25.32C96.97,24.96 97.7,24.48 98.24,23.88C98.78,23.3 99.16,22.65 99.38,21.93C99.62,21.21 99.74,20.5 99.74,19.8C99.74,19.04 99.59,18.12 99.29,17.04C99.01,15.96 98.48,14.62 97.7,13.02L99.95,11.88C100.35,12.64 100.71,13.44 101.03,14.28C101.37,15.1 101.64,15.95 101.84,16.83C102.06,17.69 102.17,18.57 102.17,19.47C102.17,20.25 102.07,21.05 101.87,21.87C101.69,22.69 101.38,23.48 100.94,24.24C100.5,25.02 99.91,25.71 99.17,26.31C98.45,26.93 97.55,27.42 96.47,27.78C95.41,28.14 94.14,28.32 92.66,28.32C91.5,28.32 90.39,28.18 89.33,27.9C88.29,27.64 87.37,27.23 86.57,26.67C85.79,26.11 85.17,25.4 84.71,24.54C84.25,23.68 84.02,22.65 84.02,21.45ZM93.08,9.48C92.66,9.48 92.3,9.34 92,9.06C91.72,8.76 91.58,8.41 91.58,8.01C91.58,7.61 91.72,7.26 92,6.96C92.3,6.66 92.66,6.51 93.08,6.51C93.48,6.51 93.82,6.66 94.1,6.96C94.4,7.26 94.55,7.61 94.55,8.01C94.55,8.41 94.4,8.76 94.1,9.06C93.82,9.34 93.48,9.48 93.08,9.48Z" fill="#0B8688"/>
<path d="M70.294,21.42L69.694,0L72.124,0L72.724,21.42L70.294,21.42Z" fill="#0B8688"/>
<path d="M59.741,21.57L60.011,19.11C61.151,19.11 61.951,19 62.411,18.78C62.871,18.56 63.131,18.17 63.191,17.61C63.271,17.05 63.291,16.27 63.251,15.27L62.681,0L65.111,0L65.711,15C65.751,16.06 65.711,17 65.591,17.82C65.491,18.64 65.231,19.33 64.811,19.89C64.411,20.45 63.801,20.87 62.981,21.15C62.181,21.43 61.101,21.57 59.741,21.57Z" fill="#0B8688"/>
<path d="M42.397,21.571L42.697,19.111C43.257,19.111 43.697,18.991 44.017,18.751C44.357,18.511 44.677,18.111 44.977,17.551C45.297,16.991 45.697,16.241 46.177,15.301C46.657,14.341 47.137,13.561 47.617,12.961C48.117,12.341 48.597,11.861 49.057,11.521C49.537,11.161 49.987,10.911 50.407,10.771C50.827,10.631 51.217,10.561 51.577,10.561C52.237,10.561 52.827,10.711 53.347,11.011C53.867,11.291 54.357,11.781 54.817,12.481C55.277,13.161 55.747,14.101 56.227,15.301C56.687,16.401 57.097,17.231 57.457,17.791C57.837,18.331 58.227,18.691 58.627,18.871C59.047,19.031 59.517,19.111 60.037,19.111C60.457,19.111 60.757,19.231 60.937,19.471C61.137,19.691 61.237,19.961 61.237,20.281C61.237,20.601 61.097,20.901 60.817,21.181C60.537,21.441 60.177,21.571 59.737,21.571C58.957,21.571 58.237,21.441 57.577,21.181C56.937,20.921 56.397,20.511 55.957,19.951L56.377,19.321C56.157,19.941 55.857,20.451 55.477,20.851C55.117,21.231 54.707,21.511 54.247,21.691C53.787,21.891 53.297,21.991 52.777,21.991C52.117,21.991 51.437,21.851 50.737,21.571C50.057,21.291 49.397,20.891 48.757,20.371C48.117,19.851 47.557,19.241 47.077,18.541C46.557,19.461 46.057,20.141 45.577,20.581C45.117,21.001 44.637,21.271 44.137,21.391C43.637,21.511 43.057,21.571 42.397,21.571ZM48.217,16.261C48.557,16.821 48.917,17.311 49.297,17.731C49.697,18.151 50.097,18.501 50.497,18.781C50.897,19.041 51.287,19.241 51.667,19.381C52.067,19.501 52.427,19.561 52.747,19.561C53.447,19.561 53.957,19.311 54.277,18.811C54.617,18.311 54.607,17.611 54.247,16.711C54.067,16.251 53.877,15.801 53.677,15.361C53.497,14.921 53.297,14.521 53.077,14.161C52.857,13.781 52.607,13.491 52.327,13.291C52.047,13.071 51.737,12.961 51.397,12.961C51.097,12.961 50.777,13.061 50.437,13.261C50.117,13.461 49.767,13.801 49.387,14.281C49.027,14.761 48.637,15.421 48.217,16.261Z" fill="#0B8688"/>
<path d="M31.206,21.57L31.506,19.11C32.506,19.11 33.286,19.04 33.846,18.9C34.406,18.74 34.826,18.45 35.106,18.03C35.406,17.59 35.646,16.96 35.826,16.14C36.006,15.32 36.226,14.25 36.486,12.93L38.826,13.38C38.746,13.74 38.656,14.14 38.556,14.58C38.456,15.02 38.366,15.46 38.286,15.9C38.226,16.32 38.196,16.69 38.196,17.01C38.196,17.31 38.216,17.59 38.256,17.85C38.296,18.11 38.446,18.33 38.706,18.51C38.966,18.69 39.406,18.84 40.026,18.96C40.646,19.06 41.536,19.11 42.696,19.11C43.116,19.11 43.416,19.23 43.596,19.47C43.796,19.69 43.896,19.96 43.896,20.28C43.896,20.6 43.756,20.9 43.476,21.18C43.196,21.44 42.836,21.57 42.396,21.57C41.176,21.57 40.206,21.51 39.486,21.39C38.766,21.25 38.216,21.05 37.836,20.79C37.476,20.53 37.216,20.21 37.056,19.83C36.916,19.43 36.806,18.97 36.726,18.45L37.626,18.51C37.306,19.15 36.956,19.67 36.576,20.07C36.216,20.47 35.796,20.78 35.316,21C34.836,21.22 34.256,21.37 33.576,21.45C32.916,21.53 32.126,21.57 31.206,21.57ZM38.766,27.24C38.346,27.24 37.986,27.09 37.686,26.79C37.406,26.51 37.266,26.17 37.266,25.77C37.266,25.37 37.406,25.02 37.686,24.72C37.986,24.42 38.346,24.27 38.766,24.27C39.166,24.27 39.506,24.42 39.786,24.72C40.086,25.02 40.236,25.37 40.236,25.77C40.236,26.17 40.086,26.51 39.786,26.79C39.506,27.09 39.166,27.24 38.766,27.24ZM34.656,27.24C34.236,27.24 33.876,27.09 33.576,26.79C33.296,26.51 33.156,26.17 33.156,25.77C33.156,25.37 33.296,25.02 33.576,24.72C33.876,24.42 34.236,24.27 34.656,24.27C35.056,24.27 35.396,24.42 35.676,24.72C35.976,25.02 36.126,25.37 36.126,25.77C36.126,26.17 35.976,26.51 35.676,26.79C35.396,27.09 35.056,27.24 34.656,27.24Z" fill="#0B8688"/>
<path d="M31.217,21.57C30.017,21.57 29.027,21.47 28.247,21.27C27.487,21.07 26.887,20.76 26.447,20.34C26.027,19.92 25.727,19.39 25.547,18.75C25.387,18.09 25.287,17.31 25.247,16.41L24.647,0L27.107,0L27.707,15.45C27.747,16.43 27.837,17.19 27.977,17.73C28.137,18.25 28.477,18.61 28.997,18.81C29.537,19.01 30.377,19.11 31.517,19.11C31.937,19.11 32.237,19.23 32.417,19.47C32.617,19.69 32.717,19.96 32.717,20.28C32.717,20.6 32.577,20.9 32.297,21.18C32.017,21.44 31.657,21.57 31.217,21.57ZM17.507,21.57C16.967,21.57 16.417,21.52 15.857,21.42C15.317,21.34 14.937,21.28 14.717,21.24L15.047,18.87C16.427,19.05 17.727,19.08 18.947,18.96C20.167,18.84 21.227,18.5 22.127,17.94C23.047,17.36 23.767,16.49 24.287,15.33C24.807,14.17 25.067,12.66 25.067,10.8L26.507,14.4C26.267,15.66 25.907,16.72 25.427,17.58C24.947,18.42 24.387,19.11 23.747,19.65C23.127,20.17 22.457,20.57 21.737,20.85C21.017,21.13 20.297,21.32 19.577,21.42C18.857,21.52 18.167,21.57 17.507,21.57ZM24.017,17.46C23.697,16.84 23.247,16.12 22.667,15.3C22.087,14.46 21.387,13.55 20.567,12.57C19.747,11.59 18.817,10.57 17.777,9.51C16.757,8.45 15.647,7.38 14.447,6.3L16.067,4.59C17.387,5.85 18.557,7.03 19.577,8.13C20.617,9.21 21.527,10.23 22.307,11.19C23.087,12.13 23.757,12.99 24.317,13.77C24.877,14.55 25.347,15.26 25.727,15.9L24.017,17.46Z" fill="#0B8688"/>
<path d="M0,20.07L1.2,18C1.6,18.26 2.16,18.51 2.88,18.75C3.6,18.99 4.44,19.11 5.4,19.11C6.4,19.11 7.19,19.01 7.77,18.81C8.37,18.61 8.8,18.32 9.06,17.94C9.34,17.54 9.48,17.08 9.48,16.56C9.48,16.16 9.39,15.67 9.21,15.09C9.05,14.49 8.69,13.69 8.13,12.69C7.57,11.67 6.71,10.34 5.55,8.7L7.62,7.35C8.68,8.81 9.52,10.13 10.14,11.31C10.78,12.49 11.23,13.53 11.49,14.43C11.77,15.31 11.91,16.07 11.91,16.71C11.91,17.51 11.71,18.29 11.31,19.05C10.91,19.79 10.24,20.4 9.3,20.88C8.36,21.36 7.06,21.6 5.4,21.6C4.68,21.6 3.98,21.54 3.3,21.42C2.64,21.3 2.03,21.13 1.47,20.91C0.91,20.67 0.42,20.39 0,20.07Z" fill="#0B8688"/>
</svg>
