<svg width="82" height="84" viewBox="0 0 82 84" fill="none" xmlns="http://www.w3.org/2000/svg" xmlns:xlink="http://www.w3.org/1999/xlink">
<g filter="url(#filterI707_2458;328_619)">
<path d="M0,14.72C0,9.568 0,6.991 1.003,5.023C1.885,3.292 3.292,1.885 5.023,1.003C6.991,0 9.568,0 14.72,0L67.28,0C72.432,0 75.009,0 76.977,1.003C78.708,1.885 80.115,3.292 80.997,5.023C82,6.991 82,9.568 82,14.72L82,69.28C82,74.432 82,77.009 80.997,78.977C80.115,80.708 78.708,82.115 76.977,82.997C75.009,84 72.432,84 67.28,84L14.72,84C9.568,84 6.991,84 5.023,82.997C3.292,82.115 1.885,80.708 1.003,78.977C0,77.009 0,74.432 0,69.28L0,14.72Z" clip-rule="evenodd" fill-rule="evenodd" fill="#ADB3BC"/>
</g>
<path d="M41.301,38.572C42.011,38.572 42.586,37.996 42.586,37.286C42.586,36.576 42.011,36 41.301,36C40.591,36 40.015,36.576 40.015,37.286C40.015,37.996 40.591,38.572 41.301,38.572Z" fill="#000000"/>
<path d="M36.759,39.667C37.469,39.667 38.045,39.092 38.045,38.381C38.045,37.671 37.469,37.096 36.759,37.096C36.049,37.096 35.473,37.671 35.473,38.381C35.473,39.092 36.049,39.667 36.759,39.667Z" transform="rotate(0 36.759 38.381)" fill="#000000"/>
<path d="M45.977,39.675C46.687,39.675 47.262,39.1 47.262,38.39C47.262,37.679 46.687,37.104 45.977,37.104C45.267,37.104 44.691,37.679 44.691,38.39C44.691,39.1 45.267,39.675 45.977,39.675Z" fill="#000000"/>
<path d="M32.854,42.092C33.564,42.092 34.14,41.517 34.14,40.807C34.14,40.097 33.564,39.521 32.854,39.521C32.144,39.521 31.568,40.097 31.568,40.807C31.568,41.517 32.144,42.092 32.854,42.092Z" fill="#000000"/>
<path d="M49.707,42.16C50.417,42.16 50.993,41.584 50.993,40.874C50.993,40.164 50.417,39.588 49.707,39.588C48.997,39.588 48.422,40.164 48.422,40.874C48.422,41.584 48.997,42.16 49.707,42.16Z" fill="#000000"/>
<path d="M30.212,46.033C30.922,46.033 31.497,45.457 31.497,44.747C31.497,44.037 30.922,43.461 30.212,43.461C29.501,43.461 28.926,44.037 28.926,44.747C28.926,45.457 29.501,46.033 30.212,46.033Z" fill="#000000"/>
<path d="M52.405,45.993C53.115,45.993 53.691,45.417 53.691,44.707C53.691,43.997 53.115,43.422 52.405,43.422C51.695,43.422 51.12,43.997 51.12,44.707C51.12,45.417 51.695,45.993 52.405,45.993Z" fill="#000000"/>
<path d="M29.286,50.661C29.996,50.661 30.572,50.086 30.572,49.376C30.572,48.665 29.996,48.09 29.286,48.09C28.576,48.09 28,48.665 28,49.376C28,50.086 28.576,50.661 29.286,50.661Z" fill="#000000"/>
<path d="M53.371,50.677C54.081,50.677 54.656,50.102 54.656,49.391C54.656,48.681 54.081,48.106 53.371,48.106C52.661,48.106 52.085,48.681 52.085,49.391C52.085,50.102 52.661,50.677 53.371,50.677Z" fill="#000000"/>
<path d="M30.208,55.302C30.918,55.302 31.493,54.726 31.493,54.016C31.493,53.306 30.918,52.73 30.208,52.73C29.498,52.73 28.922,53.306 28.922,54.016C28.922,54.726 29.498,55.302 30.208,55.302Z" fill="#000000"/>
<path d="M52.338,55.326C53.048,55.326 53.624,54.75 53.624,54.04C53.624,53.33 53.048,52.754 52.338,52.754C51.628,52.754 51.052,53.33 51.052,54.04C51.052,54.75 51.628,55.326 52.338,55.326Z" transform="rotate(0 52.338 54.04)" fill="#000000"/>
<path d="M32.751,59.215C33.461,59.215 34.037,58.639 34.037,57.929C34.037,57.219 33.461,56.643 32.751,56.643C32.041,56.643 31.466,57.219 31.466,57.929C31.466,58.639 32.041,59.215 32.751,59.215Z" fill="#000000"/>
<path d="M49.7,59.234C50.41,59.234 50.985,58.659 50.985,57.949C50.985,57.238 50.41,56.663 49.7,56.663C48.989,56.663 48.414,57.238 48.414,57.949C48.414,58.659 48.989,59.234 49.7,59.234Z" fill="#000000"/>
<path d="M36.727,61.96C37.437,61.96 38.013,61.385 38.013,60.674C38.013,59.964 37.437,59.389 36.727,59.389C36.017,59.389 35.441,59.964 35.441,60.674C35.441,61.385 36.017,61.96 36.727,61.96Z" transform="rotate(0 36.727 60.674)" fill="#000000"/>
<path d="M45.985,61.956C46.695,61.956 47.27,61.381 47.27,60.671C47.27,59.96 46.695,59.385 45.985,59.385C45.275,59.385 44.699,59.96 44.699,60.671C44.699,61.381 45.275,61.956 45.985,61.956Z" fill="#000000"/>
<path d="M41.332,62.755C42.042,62.755 42.618,62.18 42.618,61.47C42.618,60.759 42.042,60.184 41.332,60.184C40.622,60.184 40.046,60.759 40.046,61.47C40.046,62.18 40.622,62.755 41.332,62.755Z" fill="#000000"/>
<path d="M46.241,20.115L46.199,21.522C46.187,21.963 45.989,22.23 45.605,22.324L36.173,24.634C36.151,24.639 36.129,24.639 36.108,24.634C36.087,24.629 36.067,24.619 36.05,24.605C36.034,24.591 36.02,24.574 36.012,24.554C36.003,24.534 35.999,24.512 36,24.49L36.085,22.88C36.09,22.773 36.129,22.671 36.195,22.589C36.261,22.507 36.352,22.449 36.454,22.422L46.111,20.003C46.127,19.999 46.143,19.999 46.159,20.003C46.174,20.007 46.189,20.015 46.201,20.026C46.214,20.036 46.224,20.05 46.231,20.066C46.238,20.081 46.241,20.098 46.241,20.115Z" fill="#000000"/>
<path d="M46.241,25.28L46.199,26.687C46.187,27.128 45.989,27.395 45.605,27.489L36.173,29.799C36.151,29.804 36.129,29.804 36.108,29.799C36.087,29.794 36.067,29.784 36.05,29.77C36.034,29.756 36.02,29.739 36.012,29.719C36.003,29.699 35.999,29.677 36,29.655L36.085,28.045C36.09,27.938 36.129,27.837 36.195,27.754C36.261,27.672 36.352,27.614 36.454,27.587L46.111,25.168C46.127,25.164 46.143,25.164 46.159,25.168C46.174,25.172 46.189,25.18 46.201,25.191C46.214,25.201 46.224,25.215 46.231,25.231C46.238,25.246 46.241,25.263 46.241,25.28Z" fill="#000000"/>
<defs>
<filter id="filterI707_2458;328_619" x="0" y="0" width="41" height="43" filterUnits="userSpaceOnUse" color-interpolation-filters="sRGB">
<feFlood flood-opacity="0" result="BackgroundImageFix"/>
<feColorMatrix in="SourceAlpha" type="matrix" values="0 0 0 0 0 0 0 0 0 0 0 0 0 0 0 0 0 0 127 0" result="hardAlpha"/>
<feMorphology radius="0" operator="dilate" in="SourceAlpha" result="0dropshadow"/>
<feOffset dx="0" dy="1"/>
<feGaussianBlur stdDeviation="0"/>
<feComposite in2="hardAlpha" operator="out"/>
<feColorMatrix type="matrix" values="0 0 0 0 0.537255 0 0 0 0 0.541176 0 0 0 0 0.552941 0 0 0 1 0"/>
<feBlend mode="normal" in2="BackgroundImageFix" result="0dropshadow"/>
<feBlend mode="normal" in="SourceGraphic" in2="0dropshadow" result="shape"/>
</filter>
</defs>
</svg>
