<svg width="82" height="84" viewBox="0 0 82 84" fill="none" xmlns="http://www.w3.org/2000/svg" xmlns:xlink="http://www.w3.org/1999/xlink">
<g filter="url(#filterI707_2288;328_607)">
<path d="M0,14.72C0,9.568 0,6.991 1.003,5.023C1.885,3.292 3.292,1.885 5.023,1.003C6.991,0 9.568,0 14.72,0L67.28,0C72.432,0 75.009,0 76.977,1.003C78.708,1.885 80.115,3.292 80.997,5.023C82,6.991 82,9.568 82,14.72L82,69.28C82,74.432 82,77.009 80.997,78.977C80.115,80.708 78.708,82.115 76.977,82.997C75.009,84 72.432,84 67.28,84L14.72,84C9.568,84 6.991,84 5.023,82.997C3.292,82.115 1.885,80.708 1.003,78.977C0,77.009 0,74.432 0,69.28L0,14.72Z" clip-rule="evenodd" fill-rule="evenodd" fill="#ADB3BC"/>
</g>
<path d="M41,16C55.911,16 68,28.088 68,43C68,57.912 55.911,70 41,70C26.088,70 14,57.912 14,43C14,28.088 26.088,16 41,16ZM41,19.146C54.174,19.147 64.852,29.828 64.851,43.002C64.85,56.176 54.17,66.855 40.996,66.855C27.822,66.854 17.142,56.174 17.142,43C17.143,36.673 19.656,30.605 24.13,26.132C28.605,21.658 34.673,19.145 41,19.146ZM32.459,31.289C31.624,31.279 30.82,31.604 30.227,32.191C29.635,32.779 29.302,33.579 29.304,34.414C29.304,36.156 30.717,37.568 32.459,37.568C34.201,37.568 35.613,36.156 35.613,34.414C35.615,33.579 35.282,32.779 34.69,32.191C34.097,31.604 33.293,31.279 32.459,31.289ZM58.993,47.651C57.556,55.42 50.057,61.907 40.997,61.907C32.008,61.907 24.554,55.515 23.032,47.833C22.723,45.916 24.293,45.464 25.772,45.822C30.719,47.252 35.85,47.948 41,47.887C46.138,47.947 51.257,47.253 56.194,45.828C57.632,45.464 59.172,45.876 58.993,47.651ZM54.112,48.731C53.972,48.785 53.83,48.825 53.686,48.872C53.671,48.879 54.146,48.724 54.132,48.731C49.863,49.906 45.45,50.476 41.022,50.425C35.738,50.425 31.013,49.838 27.76,48.67C25.403,47.968 25.855,50.742 27.512,51.593C31.751,53.523 36.364,54.495 41.021,54.441C46.562,54.441 51.499,53.152 54.76,51.485C56.303,50.492 56.608,47.833 54.112,48.731ZM49.559,31.289C48.724,31.279 47.921,31.604 47.328,32.191C46.735,32.779 46.402,33.579 46.404,34.414C46.387,35.552 46.985,36.611 47.968,37.185C48.951,37.759 50.166,37.759 51.149,37.185C52.132,36.611 52.73,35.552 52.713,34.414C52.715,33.579 52.383,32.779 51.79,32.192C51.197,31.604 50.393,31.279 49.559,31.289Z" clip-rule="evenodd" fill-rule="evenodd" fill="#50555C"/>
<defs>
<filter id="filterI707_2288;328_607" x="0" y="0" width="41" height="43" filterUnits="userSpaceOnUse" color-interpolation-filters="sRGB">
<feFlood flood-opacity="0" result="BackgroundImageFix"/>
<feColorMatrix in="SourceAlpha" type="matrix" values="0 0 0 0 0 0 0 0 0 0 0 0 0 0 0 0 0 0 127 0" result="hardAlpha"/>
<feMorphology radius="0" operator="dilate" in="SourceAlpha" result="0dropshadow"/>
<feOffset dx="0" dy="1"/>
<feGaussianBlur stdDeviation="0"/>
<feComposite in2="hardAlpha" operator="out"/>
<feColorMatrix type="matrix" values="0 0 0 0 0.537255 0 0 0 0 0.541176 0 0 0 0 0.552941 0 0 0 1 0"/>
<feBlend mode="normal" in2="BackgroundImageFix" result="0dropshadow"/>
<feBlend mode="normal" in="SourceGraphic" in2="0dropshadow" result="shape"/>
</filter>
</defs>
</svg>
