<svg width="50" height="22" viewBox="0 0 50 22" fill="none" xmlns="http://www.w3.org/2000/svg" xmlns:xlink="http://www.w3.org/1999/xlink">
<path d="M34.119,14.16L34.419,11.7C35.679,11.7 36.649,11.69 37.329,11.67C38.029,11.65 38.539,11.63 38.859,11.61C39.179,11.57 39.399,11.55 39.519,11.55C39.159,11.35 38.739,11.04 38.259,10.62C37.779,10.18 37.359,9.63 36.999,8.97C36.639,8.29 36.459,7.49 36.459,6.57C36.459,5.43 36.719,4.43 37.239,3.57C37.779,2.71 38.509,2.04 39.429,1.56C40.369,1.08 41.439,0.84 42.639,0.84C43.099,0.84 43.589,0.88 44.109,0.96C44.629,1.04 45.129,1.16 45.609,1.32L45.099,3.63C44.699,3.53 44.279,3.45 43.839,3.39C43.399,3.33 42.999,3.3 42.639,3.3C41.919,3.3 41.279,3.44 40.719,3.72C40.159,3.98 39.719,4.35 39.399,4.83C39.079,5.31 38.919,5.89 38.919,6.57C38.919,7.09 39.029,7.57 39.249,8.01C39.469,8.43 39.759,8.81 40.119,9.15C40.479,9.49 40.879,9.77 41.319,9.99C41.759,10.21 42.189,10.38 42.609,10.5C43.049,10.62 43.439,10.67 43.779,10.65C44.019,10.57 44.239,10.5 44.439,10.44C44.639,10.38 44.859,10.31 45.099,10.23C45.359,10.13 45.669,10 46.029,9.84C46.409,9.68 46.889,9.47 47.469,9.21L48.309,11.4C46.969,11.94 45.599,12.42 44.199,12.84C42.819,13.26 41.309,13.59 39.669,13.83C38.049,14.05 36.199,14.16 34.119,14.16Z" fill="#000000"/>
<path d="M23.836,14.16L24.136,11.7C24.976,11.7 25.636,11.63 26.116,11.49C26.596,11.33 26.956,11.04 27.196,10.62C27.456,10.18 27.676,9.55 27.856,8.73C28.036,7.91 28.256,6.84 28.516,5.52L30.856,5.97C30.776,6.33 30.686,6.73 30.586,7.17C30.486,7.61 30.396,8.05 30.316,8.49C30.256,8.91 30.226,9.28 30.226,9.6C30.226,10 30.316,10.36 30.496,10.68C30.676,11 31.066,11.25 31.666,11.43C32.266,11.61 33.186,11.7 34.426,11.7C34.846,11.7 35.146,11.82 35.326,12.06C35.526,12.28 35.626,12.55 35.626,12.87C35.626,13.19 35.486,13.49 35.206,13.77C34.926,14.03 34.566,14.16 34.126,14.16C32.826,14.16 31.806,14.05 31.066,13.83C30.326,13.59 29.786,13.24 29.446,12.78C29.106,12.3 28.876,11.72 28.756,11.04L29.656,11.1C29.336,11.74 28.986,12.26 28.606,12.66C28.246,13.06 27.846,13.37 27.406,13.59C26.966,13.81 26.456,13.96 25.876,14.04C25.296,14.12 24.616,14.16 23.836,14.16ZM28.936,19.74C28.516,19.74 28.156,19.59 27.856,19.29C27.576,19.01 27.436,18.67 27.436,18.27C27.436,17.87 27.576,17.52 27.856,17.22C28.156,16.92 28.516,16.77 28.936,16.77C29.336,16.77 29.676,16.92 29.956,17.22C30.256,17.52 30.406,17.87 30.406,18.27C30.406,18.67 30.256,19.01 29.956,19.29C29.676,19.59 29.336,19.74 28.936,19.74Z" fill="#000000"/>
<path d="M12.645,14.16L12.945,11.7C13.945,11.7 14.725,11.63 15.285,11.49C15.845,11.33 16.265,11.04 16.545,10.62C16.845,10.18 17.085,9.55 17.265,8.73C17.445,7.91 17.665,6.84 17.925,5.52L20.265,5.97C20.185,6.33 20.095,6.73 19.995,7.17C19.895,7.61 19.805,8.05 19.725,8.49C19.665,8.91 19.635,9.28 19.635,9.6C19.635,9.9 19.655,10.18 19.695,10.44C19.735,10.7 19.885,10.92 20.145,11.1C20.405,11.28 20.845,11.43 21.465,11.55C22.085,11.65 22.975,11.7 24.135,11.7C24.555,11.7 24.855,11.82 25.035,12.06C25.235,12.28 25.335,12.55 25.335,12.87C25.335,13.19 25.195,13.49 24.915,13.77C24.635,14.03 24.275,14.16 23.835,14.16C22.615,14.16 21.645,14.1 20.925,13.98C20.205,13.84 19.655,13.64 19.275,13.38C18.915,13.12 18.655,12.8 18.495,12.42C18.355,12.02 18.245,11.56 18.165,11.04L19.065,11.1C18.745,11.74 18.395,12.26 18.015,12.66C17.655,13.06 17.235,13.37 16.755,13.59C16.275,13.81 15.695,13.96 15.015,14.04C14.355,14.12 13.565,14.16 12.645,14.16ZM20.205,19.83C19.785,19.83 19.425,19.68 19.125,19.38C18.845,19.1 18.705,18.76 18.705,18.36C18.705,17.96 18.845,17.61 19.125,17.31C19.425,17.01 19.785,16.86 20.205,16.86C20.605,16.86 20.945,17.01 21.225,17.31C21.525,17.61 21.675,17.96 21.675,18.36C21.675,18.76 21.525,19.1 21.225,19.38C20.945,19.68 20.605,19.83 20.205,19.83ZM16.095,19.83C15.675,19.83 15.315,19.68 15.015,19.38C14.735,19.1 14.595,18.76 14.595,18.36C14.595,17.96 14.735,17.61 15.015,17.31C15.315,17.01 15.675,16.86 16.095,16.86C16.495,16.86 16.835,17.01 17.115,17.31C17.415,17.61 17.565,17.96 17.565,18.36C17.565,18.76 17.415,19.1 17.115,19.38C16.835,19.68 16.495,19.83 16.095,19.83Z" fill="#000000"/>
<path d="M0.87,20.97L0,18.69C1.46,18.21 2.67,17.66 3.63,17.04C4.61,16.42 5.38,15.76 5.94,15.06C6.52,14.36 6.93,13.65 7.17,12.93C7.41,12.19 7.53,11.48 7.53,10.8C7.53,9.82 7.31,8.83 6.87,7.83C6.45,6.81 5.98,5.85 5.46,4.95L7.65,3.84C8.03,4.54 8.36,5.23 8.64,5.91C8.94,6.59 9.2,7.23 9.42,7.83C9.66,8.43 9.85,8.98 9.99,9.48C10.27,10.34 10.63,10.93 11.07,11.25C11.53,11.55 12.15,11.7 12.93,11.7C13.35,11.7 13.65,11.82 13.83,12.06C14.03,12.28 14.13,12.55 14.13,12.87C14.13,13.19 13.99,13.49 13.71,13.77C13.43,14.03 13.07,14.16 12.63,14.16C11.75,14.16 11.03,14.01 10.47,13.71C9.93,13.39 9.52,12.98 9.24,12.48C8.96,11.96 8.77,11.42 8.67,10.86L9.63,11.4C9.63,12.72 9.33,13.92 8.73,15C8.15,16.1 7.4,17.05 6.48,17.85C5.56,18.67 4.6,19.34 3.6,19.86C2.6,20.38 1.69,20.75 0.87,20.97Z" fill="#000000"/>
</svg>
