<svg width="140" height="34" viewBox="0 0 140 34" fill="none" xmlns="http://www.w3.org/2000/svg" xmlns:xlink="http://www.w3.org/1999/xlink">
<path d="M131.313,21.57L131.613,19.11C132.793,19.11 133.713,19.07 134.373,18.99C135.033,18.89 135.503,18.66 135.783,18.3C136.063,17.92 136.203,17.33 136.203,16.53C136.203,16.03 136.123,15.44 135.963,14.76C135.803,14.06 135.593,13.32 135.333,12.54C135.073,11.76 134.793,10.99 134.493,10.23L136.923,9.33C137.183,9.97 137.423,10.7 137.643,11.52C137.883,12.34 138.083,13.15 138.243,13.95C138.403,14.75 138.483,15.45 138.483,16.05C138.483,17.05 138.343,17.9 138.063,18.6C137.803,19.3 137.383,19.87 136.803,20.31C136.223,20.75 135.473,21.07 134.553,21.27C133.653,21.47 132.573,21.57 131.313,21.57ZM137.853,6.21C137.433,6.21 137.073,6.07 136.773,5.79C136.493,5.49 136.353,5.14 136.353,4.74C136.353,4.34 136.493,3.99 136.773,3.69C137.073,3.39 137.433,3.24 137.853,3.24C138.253,3.24 138.593,3.39 138.873,3.69C139.173,3.99 139.323,4.34 139.323,4.74C139.323,5.14 139.173,5.49 138.873,5.79C138.593,6.07 138.253,6.21 137.853,6.21ZM133.743,6.21C133.323,6.21 132.963,6.07 132.663,5.79C132.383,5.49 132.243,5.14 132.243,4.74C132.243,4.34 132.383,3.99 132.663,3.69C132.963,3.39 133.323,3.24 133.743,3.24C134.143,3.24 134.483,3.39 134.763,3.69C135.063,3.99 135.213,4.34 135.213,4.74C135.213,5.14 135.063,5.49 134.763,5.79C134.483,6.07 134.143,6.21 133.743,6.21Z" fill="#0B8688"/>
<path d="M131.313,21.57C129.713,21.57 128.483,21.39 127.623,21.03C126.783,20.67 126.203,20.11 125.883,19.35C125.563,18.59 125.383,17.61 125.343,16.41L124.743,0L127.203,0L127.803,15.45C127.843,16.43 127.933,17.19 128.073,17.73C128.233,18.25 128.573,18.61 129.093,18.81C129.633,19.01 130.473,19.11 131.613,19.11C132.033,19.11 132.333,19.23 132.513,19.47C132.713,19.69 132.813,19.96 132.813,20.28C132.813,20.6 132.673,20.9 132.393,21.18C132.113,21.44 131.753,21.57 131.313,21.57Z" fill="#0B8688"/>
<path d="M111.687,28.32L110.817,26.04C112.837,25.4 114.387,24.63 115.467,23.73C116.567,22.85 117.317,21.93 117.717,20.97C118.137,20.01 118.347,19.09 118.347,18.21C118.347,17.65 118.287,17.11 118.167,16.59C118.047,16.07 117.837,15.48 117.537,14.82C117.237,14.16 116.817,13.34 116.277,12.36L118.467,11.25C119.227,12.55 119.767,13.78 120.087,14.94C120.427,16.1 120.597,17.12 120.597,18C120.597,19.26 120.387,20.4 119.967,21.42C119.567,22.44 119.027,23.34 118.347,24.12C117.687,24.92 116.957,25.6 116.157,26.16C115.377,26.72 114.587,27.18 113.787,27.54C113.007,27.9 112.307,28.16 111.687,28.32Z" fill="#0B8688"/>
<path d="M102.602,21.57L102.902,19.11C104.082,19.11 105.002,19.07 105.662,18.99C106.322,18.89 106.792,18.66 107.072,18.3C107.352,17.92 107.492,17.33 107.492,16.53C107.492,16.03 107.412,15.44 107.252,14.76C107.092,14.06 106.882,13.32 106.622,12.54C106.362,11.76 106.082,10.99 105.782,10.23L108.212,9.33C108.472,9.97 108.712,10.7 108.932,11.52C109.172,12.34 109.372,13.15 109.532,13.95C109.692,14.75 109.772,15.45 109.772,16.05C109.772,17.05 109.632,17.9 109.352,18.6C109.092,19.3 108.672,19.87 108.092,20.31C107.512,20.75 106.762,21.07 105.842,21.27C104.942,21.47 103.862,21.57 102.602,21.57ZM108.152,27.24C107.732,27.24 107.372,27.09 107.072,26.79C106.792,26.51 106.652,26.17 106.652,25.77C106.652,25.37 106.792,25.02 107.072,24.72C107.372,24.42 107.732,24.27 108.152,24.27C108.552,24.27 108.892,24.42 109.172,24.72C109.472,25.02 109.622,25.37 109.622,25.77C109.622,26.17 109.472,26.51 109.172,26.79C108.892,27.09 108.552,27.24 108.152,27.24ZM104.042,27.24C103.622,27.24 103.262,27.09 102.962,26.79C102.682,26.51 102.542,26.17 102.542,25.77C102.542,25.37 102.682,25.02 102.962,24.72C103.262,24.42 103.622,24.27 104.042,24.27C104.442,24.27 104.782,24.42 105.062,24.72C105.362,25.02 105.512,25.37 105.512,25.77C105.512,26.17 105.362,26.51 105.062,26.79C104.782,27.09 104.442,27.24 104.042,27.24Z" fill="#0B8688"/>
<path d="M102.62,21.571C101.76,21.571 100.89,21.511 100.01,21.391C99.15,21.271 98.35,20.981 97.61,20.521C96.87,20.061 96.26,19.351 95.78,18.391C95.32,17.411 95.06,16.071 95,14.371L96.92,13.351C97.02,14.691 97.24,15.751 97.58,16.531C97.94,17.291 98.39,17.861 98.93,18.241C99.47,18.601 100.08,18.841 100.76,18.961C101.44,19.061 102.15,19.111 102.89,19.111C103.31,19.111 103.61,19.231 103.79,19.471C103.99,19.691 104.09,19.961 104.09,20.281C104.09,20.601 103.95,20.901 103.67,21.181C103.41,21.441 103.06,21.571 102.62,21.571ZM93.92,33.241C92.52,33.241 91.18,33.081 89.9,32.761C88.64,32.441 87.52,31.941 86.54,31.261C85.58,30.601 84.82,29.761 84.26,28.741C83.7,27.721 83.42,26.521 83.42,25.141C83.42,23.981 83.59,22.871 83.93,21.811C84.27,20.771 84.76,19.791 85.4,18.871C86.06,17.931 86.86,17.071 87.8,16.291C88.74,15.511 89.81,14.821 91.01,14.221C92.21,13.601 93.52,13.081 94.94,12.661L94.61,13.051C94.09,12.891 93.56,12.721 93.02,12.541C92.48,12.341 91.92,12.161 91.34,12.001C90.76,11.821 90.14,11.681 89.48,11.581C88.82,11.481 88.11,11.431 87.35,11.431C86.75,11.431 86.22,11.481 85.76,11.581C85.32,11.681 84.9,11.781 84.5,11.881L84.08,9.661C84.6,9.441 85.18,9.271 85.82,9.151C86.48,9.011 87.14,8.941 87.8,8.941C88.72,8.941 89.54,9.031 90.26,9.211C90.98,9.371 91.66,9.571 92.3,9.811C92.96,10.051 93.65,10.301 94.37,10.561C95.09,10.801 95.89,11.011 96.77,11.191C97.67,11.351 98.73,11.441 99.95,11.461L100.22,11.461L100.28,13.921C99.32,13.921 98.3,14.031 97.22,14.251C96.14,14.471 95.06,14.791 93.98,15.211C92.92,15.631 91.9,16.151 90.92,16.771C89.94,17.391 89.07,18.111 88.31,18.931C87.57,19.731 86.98,20.621 86.54,21.601C86.1,22.601 85.88,23.681 85.88,24.841C85.88,25.881 86.1,26.771 86.54,27.511C86.98,28.271 87.58,28.891 88.34,29.371C89.12,29.851 90.01,30.201 91.01,30.421C92.03,30.641 93.1,30.751 94.22,30.751C95.2,30.751 96.2,30.641 97.22,30.421C98.26,30.221 99.27,29.931 100.25,29.551L101.09,31.591C99.93,32.151 98.74,32.561 97.52,32.821C96.3,33.101 95.1,33.241 93.92,33.241ZM92.48,5.851C92.06,5.851 91.7,5.711 91.4,5.431C91.12,5.131 90.98,4.781 90.98,4.381C90.98,3.981 91.12,3.631 91.4,3.331C91.7,3.031 92.06,2.881 92.48,2.881C92.88,2.881 93.22,3.031 93.5,3.331C93.8,3.631 93.95,3.981 93.95,4.381C93.95,4.781 93.8,5.131 93.5,5.431C93.22,5.711 92.88,5.851 92.48,5.851Z" fill="#0B8688"/>
<path d="M70.294,21.42L69.694,0L72.124,0L72.724,21.42L70.294,21.42Z" fill="#0B8688"/>
<path d="M59.741,21.57L60.011,19.11C61.151,19.11 61.951,19 62.411,18.78C62.871,18.56 63.131,18.17 63.191,17.61C63.271,17.05 63.291,16.27 63.251,15.27L62.681,0L65.111,0L65.711,15C65.751,16.06 65.711,17 65.591,17.82C65.491,18.64 65.231,19.33 64.811,19.89C64.411,20.45 63.801,20.87 62.981,21.15C62.181,21.43 61.101,21.57 59.741,21.57Z" fill="#0B8688"/>
<path d="M42.397,21.571L42.697,19.111C43.257,19.111 43.697,18.991 44.017,18.751C44.357,18.511 44.677,18.111 44.977,17.551C45.297,16.991 45.697,16.241 46.177,15.301C46.657,14.341 47.137,13.561 47.617,12.961C48.117,12.341 48.597,11.861 49.057,11.521C49.537,11.161 49.987,10.911 50.407,10.771C50.827,10.631 51.217,10.561 51.577,10.561C52.237,10.561 52.827,10.711 53.347,11.011C53.867,11.291 54.357,11.781 54.817,12.481C55.277,13.161 55.747,14.101 56.227,15.301C56.687,16.401 57.097,17.231 57.457,17.791C57.837,18.331 58.227,18.691 58.627,18.871C59.047,19.031 59.517,19.111 60.037,19.111C60.457,19.111 60.757,19.231 60.937,19.471C61.137,19.691 61.237,19.961 61.237,20.281C61.237,20.601 61.097,20.901 60.817,21.181C60.537,21.441 60.177,21.571 59.737,21.571C58.957,21.571 58.237,21.441 57.577,21.181C56.937,20.921 56.397,20.511 55.957,19.951L56.377,19.321C56.157,19.941 55.857,20.451 55.477,20.851C55.117,21.231 54.707,21.511 54.247,21.691C53.787,21.891 53.297,21.991 52.777,21.991C52.117,21.991 51.437,21.851 50.737,21.571C50.057,21.291 49.397,20.891 48.757,20.371C48.117,19.851 47.557,19.241 47.077,18.541C46.557,19.461 46.057,20.141 45.577,20.581C45.117,21.001 44.637,21.271 44.137,21.391C43.637,21.511 43.057,21.571 42.397,21.571ZM48.217,16.261C48.557,16.821 48.917,17.311 49.297,17.731C49.697,18.151 50.097,18.501 50.497,18.781C50.897,19.041 51.287,19.241 51.667,19.381C52.067,19.501 52.427,19.561 52.747,19.561C53.447,19.561 53.957,19.311 54.277,18.811C54.617,18.311 54.607,17.611 54.247,16.711C54.067,16.251 53.877,15.801 53.677,15.361C53.497,14.921 53.297,14.521 53.077,14.161C52.857,13.781 52.607,13.491 52.327,13.291C52.047,13.071 51.737,12.961 51.397,12.961C51.097,12.961 50.777,13.061 50.437,13.261C50.117,13.461 49.767,13.801 49.387,14.281C49.027,14.761 48.637,15.421 48.217,16.261Z" fill="#0B8688"/>
<path d="M31.206,21.57L31.506,19.11C32.506,19.11 33.286,19.04 33.846,18.9C34.406,18.74 34.826,18.45 35.106,18.03C35.406,17.59 35.646,16.96 35.826,16.14C36.006,15.32 36.226,14.25 36.486,12.93L38.826,13.38C38.746,13.74 38.656,14.14 38.556,14.58C38.456,15.02 38.366,15.46 38.286,15.9C38.226,16.32 38.196,16.69 38.196,17.01C38.196,17.31 38.216,17.59 38.256,17.85C38.296,18.11 38.446,18.33 38.706,18.51C38.966,18.69 39.406,18.84 40.026,18.96C40.646,19.06 41.536,19.11 42.696,19.11C43.116,19.11 43.416,19.23 43.596,19.47C43.796,19.69 43.896,19.96 43.896,20.28C43.896,20.6 43.756,20.9 43.476,21.18C43.196,21.44 42.836,21.57 42.396,21.57C41.176,21.57 40.206,21.51 39.486,21.39C38.766,21.25 38.216,21.05 37.836,20.79C37.476,20.53 37.216,20.21 37.056,19.83C36.916,19.43 36.806,18.97 36.726,18.45L37.626,18.51C37.306,19.15 36.956,19.67 36.576,20.07C36.216,20.47 35.796,20.78 35.316,21C34.836,21.22 34.256,21.37 33.576,21.45C32.916,21.53 32.126,21.57 31.206,21.57ZM38.766,27.24C38.346,27.24 37.986,27.09 37.686,26.79C37.406,26.51 37.266,26.17 37.266,25.77C37.266,25.37 37.406,25.02 37.686,24.72C37.986,24.42 38.346,24.27 38.766,24.27C39.166,24.27 39.506,24.42 39.786,24.72C40.086,25.02 40.236,25.37 40.236,25.77C40.236,26.17 40.086,26.51 39.786,26.79C39.506,27.09 39.166,27.24 38.766,27.24ZM34.656,27.24C34.236,27.24 33.876,27.09 33.576,26.79C33.296,26.51 33.156,26.17 33.156,25.77C33.156,25.37 33.296,25.02 33.576,24.72C33.876,24.42 34.236,24.27 34.656,24.27C35.056,24.27 35.396,24.42 35.676,24.72C35.976,25.02 36.126,25.37 36.126,25.77C36.126,26.17 35.976,26.51 35.676,26.79C35.396,27.09 35.056,27.24 34.656,27.24Z" fill="#0B8688"/>
<path d="M31.217,21.57C30.017,21.57 29.027,21.47 28.247,21.27C27.487,21.07 26.887,20.76 26.447,20.34C26.027,19.92 25.727,19.39 25.547,18.75C25.387,18.09 25.287,17.31 25.247,16.41L24.647,0L27.107,0L27.707,15.45C27.747,16.43 27.837,17.19 27.977,17.73C28.137,18.25 28.477,18.61 28.997,18.81C29.537,19.01 30.377,19.11 31.517,19.11C31.937,19.11 32.237,19.23 32.417,19.47C32.617,19.69 32.717,19.96 32.717,20.28C32.717,20.6 32.577,20.9 32.297,21.18C32.017,21.44 31.657,21.57 31.217,21.57ZM17.507,21.57C16.967,21.57 16.417,21.52 15.857,21.42C15.317,21.34 14.937,21.28 14.717,21.24L15.047,18.87C16.427,19.05 17.727,19.08 18.947,18.96C20.167,18.84 21.227,18.5 22.127,17.94C23.047,17.36 23.767,16.49 24.287,15.33C24.807,14.17 25.067,12.66 25.067,10.8L26.507,14.4C26.267,15.66 25.907,16.72 25.427,17.58C24.947,18.42 24.387,19.11 23.747,19.65C23.127,20.17 22.457,20.57 21.737,20.85C21.017,21.13 20.297,21.32 19.577,21.42C18.857,21.52 18.167,21.57 17.507,21.57ZM24.017,17.46C23.697,16.84 23.247,16.12 22.667,15.3C22.087,14.46 21.387,13.55 20.567,12.57C19.747,11.59 18.817,10.57 17.777,9.51C16.757,8.45 15.647,7.38 14.447,6.3L16.067,4.59C17.387,5.85 18.557,7.03 19.577,8.13C20.617,9.21 21.527,10.23 22.307,11.19C23.087,12.13 23.757,12.99 24.317,13.77C24.877,14.55 25.347,15.26 25.727,15.9L24.017,17.46Z" fill="#0B8688"/>
<path d="M0,20.07L1.2,18C1.6,18.26 2.16,18.51 2.88,18.75C3.6,18.99 4.44,19.11 5.4,19.11C6.4,19.11 7.19,19.01 7.77,18.81C8.37,18.61 8.8,18.32 9.06,17.94C9.34,17.54 9.48,17.08 9.48,16.56C9.48,16.16 9.39,15.67 9.21,15.09C9.05,14.49 8.69,13.69 8.13,12.69C7.57,11.67 6.71,10.34 5.55,8.7L7.62,7.35C8.68,8.81 9.52,10.13 10.14,11.31C10.78,12.49 11.23,13.53 11.49,14.43C11.77,15.31 11.91,16.07 11.91,16.71C11.91,17.51 11.71,18.29 11.31,19.05C10.91,19.79 10.24,20.4 9.3,20.88C8.36,21.36 7.06,21.6 5.4,21.6C4.68,21.6 3.98,21.54 3.3,21.42C2.64,21.3 2.03,21.13 1.47,20.91C0.91,20.67 0.42,20.39 0,20.07Z" fill="#0B8688"/>
</svg>
