<svg width="90" height="90" viewBox="0 0 90 90" fill="none" xmlns="http://www.w3.org/2000/svg">
<g clip-path="url(#clip0_532_2739)">
<rect width="90" height="90" rx="45" fill="white"/>
<path d="M45.8052 58.751C53.873 58.751 60.4131 52.2108 60.4131 44.1431C60.4131 36.0753 53.873 29.5352 45.8052 29.5352C37.7375 29.5352 31.1973 36.0753 31.1973 44.1431C31.1973 52.2108 37.7375 58.751 45.8052 58.751Z" fill="#FFB6B6"/>
<path d="M37.4193 60.9107L36.7594 54.2396L49.9381 51.7754L57.7201 70.7228L44.1863 86.2867L34.5434 67.3393L37.4193 60.9107Z" fill="#FFB6B6"/>
<path d="M36.5477 57.5788L39.4289 58.2298C39.4289 58.2298 37.164 51.0477 37.9327 50.362C38.7015 49.6763 40.5854 50.7567 40.5854 50.7567L42.565 52.9762L44.9764 50.5211C44.9764 50.5211 47.5944 47.2659 48.6194 46.3516C49.6444 45.4374 47.998 42.0439 47.998 42.0439C47.998 42.0439 63.2053 37.9433 57.5466 30.5672C57.5466 30.5672 54.229 24.7842 53.1486 26.668C52.0682 28.5519 50.7799 25.5599 50.7799 25.5599L46.846 26.308C46.846 26.308 39.0819 21.7301 31.7129 31.5235C24.3439 41.317 36.5477 57.5788 36.5477 57.5788Z" fill="#2F2E41"/>
<path d="M73.2789 80.0106C65.2957 86.4831 55.4193 90.0002 45 90.0002C35.4857 90.0002 26.4231 87.0668 18.8425 81.6296C18.856 81.4874 18.8695 81.347 18.8814 81.2066C19.0827 79.0074 19.262 76.869 19.3804 75.0961C19.8389 68.2124 35.8985 63.6245 35.8985 63.6245C35.8985 63.6245 35.9712 63.6972 36.1167 63.8241C37.0032 64.6023 40.6015 67.4241 46.9116 68.2124C52.5383 68.9162 54.3908 65.5784 54.9507 63.9797C55.1199 63.4925 55.1707 63.166 55.1707 63.166L71.6887 70.9666C72.7663 72.5061 73.1876 75.8218 73.2705 79.5487C73.2739 79.7027 73.2772 79.8549 73.2789 80.0106Z" fill="#0B8688"/>
<path d="M76.8197 13.1803C68.3205 4.68101 57.0197 0 45 0C32.9803 0 21.6795 4.68101 13.1803 13.1803C4.68102 21.6795 0 32.9803 0 45C0 55.9709 3.89944 66.3429 11.0453 74.5325C11.7271 75.3158 12.4393 76.0788 13.1803 76.8197C13.3545 76.994 13.5305 77.1682 13.7081 77.3374C14.1818 77.7959 14.6639 78.2442 15.1545 78.6789C15.4523 78.9445 15.7534 79.2051 16.0579 79.4605C16.2964 79.6618 16.535 79.8598 16.7769 80.0543C16.782 80.0594 16.7853 80.0628 16.7904 80.0662C17.462 80.6075 18.1455 81.1286 18.8425 81.6293C26.4231 87.0665 35.4857 90 45 90C55.4194 90 65.2957 86.4829 73.279 80.0103C73.9303 79.4825 74.568 78.9344 75.194 78.3677C75.7472 77.8669 76.2885 77.3509 76.8197 76.8197C76.9872 76.6523 77.1547 76.4831 77.3188 76.3122C77.7756 75.8419 78.2188 75.3632 78.6519 74.8776C85.9889 66.6355 90 56.1265 90 45C90 32.9803 85.319 21.6795 76.8197 13.1803ZM78.5419 74.4564C78.119 74.9368 77.6859 75.4105 77.2427 75.8724C76.5524 76.5913 75.8402 77.2883 75.1043 77.96C74.8252 78.2171 74.5427 78.4675 74.2568 78.7162C73.932 78.9987 73.6038 79.2761 73.2705 79.5485C70.6432 81.7055 67.7656 83.5664 64.6883 85.0821C63.472 85.6827 62.2252 86.2291 60.9496 86.718C55.9946 88.6196 50.6165 89.6617 45 89.6617C39.5797 89.6617 34.3827 88.6906 29.5731 86.9143C27.5989 86.1868 25.6906 85.3224 23.8585 84.3327C23.5895 84.1872 23.3222 84.04 23.0566 83.8895C21.6592 83.0977 20.3075 82.2333 19.01 81.2994C18.9677 81.269 18.9237 81.2368 18.8814 81.2064C17.9577 80.5398 17.0594 79.8378 16.1915 79.1002C15.8735 78.8312 15.5588 78.5588 15.2493 78.2797C14.7451 77.8314 14.2511 77.3696 13.769 76.8959C12.8555 76.0009 11.9825 75.0688 11.1485 74.0994C4.41373 66.2769 0.338346 56.1062 0.338346 45C0.338346 20.3735 20.3735 0.338346 45 0.338346C69.6265 0.338346 89.6617 20.3735 89.6617 45C89.6617 56.2771 85.4611 66.5898 78.5419 74.4564Z" fill="#3F3D56"/>
</g>
<defs>
<clipPath id="clip0_532_2739">
<rect width="90" height="90" rx="45" fill="white"/>
</clipPath>
</defs>
</svg>
