<svg width="176" height="84" viewBox="0 0 176 84" fill="none" xmlns="http://www.w3.org/2000/svg" xmlns:xlink="http://www.w3.org/1999/xlink">
<g filter="url(#filter328_642)">
<path d="M0,14.72C0,9.568 0,6.991 1.003,5.023C1.885,3.292 3.292,1.885 5.023,1.003C6.991,0 9.568,0 14.72,0L161.28,0C166.432,0 169.009,0 170.977,1.003C172.708,1.885 174.115,3.292 174.997,5.023C176,6.991 176,9.568 176,14.72L176,69.28C176,74.432 176,77.009 174.997,78.977C174.115,80.708 172.708,82.115 170.977,82.997C169.009,84 166.432,84 161.28,84L14.72,84C9.568,84 6.991,84 5.023,82.997C3.292,82.115 1.885,80.708 1.003,78.977C0,77.009 0,74.432 0,69.28L0,14.72Z" clip-rule="evenodd" fill-rule="evenodd" fill="#ADB3BC"/>
</g>
<path d="M73.092,53.276C73.169,53.351 73.328,53.49 73.569,53.693C75.25,55.103 76.596,56.222 77.606,57.052C77.798,57.21 77.97,57.356 78.121,57.491C78.314,57.664 78.451,57.839 78.531,58.018C78.807,58.628 78.675,59.154 78.136,59.595C78.057,59.659 77.952,59.725 77.822,59.792C77.715,59.847 77.605,59.903 77.491,59.961C77.396,60.009 77.3,60.013 77.202,59.971C76.878,59.835 76.576,59.651 76.298,59.42C73.704,57.268 71.112,55.113 68.524,52.955C68.053,52.562 67.9,52.081 68.063,51.51C68.131,51.273 68.288,51.053 68.535,50.848C71.16,48.674 73.782,46.497 76.402,44.317C76.761,44.019 77.139,43.904 77.537,43.971C77.914,44.035 78.216,44.228 78.443,44.549C78.751,44.984 78.742,45.484 78.416,46.051C78.365,46.138 78.215,46.282 77.966,46.483C77.669,46.722 77.508,46.852 77.483,46.873C76.014,48.101 74.541,49.329 73.066,50.557C73.019,50.597 73.026,50.613 73.087,50.606C73.211,50.592 73.332,50.585 73.448,50.585C83.155,50.583 92.864,50.581 102.572,50.581C103.12,50.581 103.601,50.452 104.016,50.193C104.877,49.654 105.309,48.868 105.311,47.834C105.32,41.946 105.325,36.059 105.325,30.171C105.325,29.867 105.322,29.606 105.317,29.386C105.309,29.087 105.273,28.829 105.209,28.613C104.929,27.668 104.333,27.062 103.423,26.793C103.128,26.706 102.68,26.662 102.077,26.662C98.845,26.662 95.613,26.662 92.382,26.662C91.965,26.662 91.655,26.619 91.453,26.533C91.08,26.373 90.841,26.102 90.737,25.72C90.622,25.292 90.685,24.905 90.926,24.559C91.183,24.19 91.587,24.004 92.139,24.003C95.512,23.995 98.884,24.002 102.256,24.024C103.005,24.029 103.567,24.077 103.941,24.167C104.606,24.328 105.212,24.607 105.759,25.005C107.033,25.933 107.768,27.201 107.962,28.809C107.988,29.026 108.001,29.465 108,30.125C107.99,36.02 107.985,41.916 107.985,47.811C107.985,49.432 107.405,50.777 106.245,51.846C105.594,52.445 104.841,52.855 103.986,53.075C103.629,53.167 103.145,53.217 102.533,53.225C101.256,53.239 99.403,53.243 96.974,53.237C94.136,53.229 86.18,53.231 73.105,53.242C73.074,53.242 73.07,53.254 73.092,53.276Z" transform="rotate(360 88 42)" fill="#000000"/>
<defs>
<filter id="filter328_642" x="0" y="0" width="88" height="43" filterUnits="userSpaceOnUse" color-interpolation-filters="sRGB">
<feFlood flood-opacity="0" result="BackgroundImageFix"/>
<feColorMatrix in="SourceAlpha" type="matrix" values="0 0 0 0 0 0 0 0 0 0 0 0 0 0 0 0 0 0 127 0" result="hardAlpha"/>
<feMorphology radius="0" operator="dilate" in="SourceAlpha" result="0dropshadow"/>
<feOffset dx="0" dy="1"/>
<feGaussianBlur stdDeviation="0"/>
<feComposite in2="hardAlpha" operator="out"/>
<feColorMatrix type="matrix" values="0 0 0 0 0.537255 0 0 0 0 0.541176 0 0 0 0 0.552941 0 0 0 1 0"/>
<feBlend mode="normal" in2="BackgroundImageFix" result="0dropshadow"/>
<feBlend mode="normal" in="SourceGraphic" in2="0dropshadow" result="shape"/>
</filter>
</defs>
</svg>
