<svg width="500" height="500" viewBox="0 0 500 500" fill="none" xmlns="http://www.w3.org/2000/svg" xmlns:xlink="http://www.w3.org/1999/xlink">
<path d="M462.202,382.514L484.632,386.262C492.225,376.433 497.459,364.772 499.879,352.289C483.478,366.644 458.536,359.016 438.648,366.852C432.462,369.348 426.881,373.299 422.318,378.413C417.756,383.528 414.328,389.675 412.289,396.399L401.327,409.009C411.249,413.209 421.906,415.059 432.562,414.432C443.218,413.804 453.62,410.715 463.051,405.375C468.315,402.324 473.198,398.576 477.585,394.22C469.737,388.936 462.202,382.514 462.202,382.514Z" fill="#F2F2F2"/>
<path d="M454.239,344.16L475.878,336.819C478.574,324.401 478.394,311.467 475.354,299.141C466.662,319.809 441.156,324.875 426.624,341.373C422.129,346.555 418.782,352.753 416.831,359.507C414.881,366.261 414.376,373.397 415.356,380.387L410.804,396.901C421.438,395.928 431.747,392.503 441.023,386.86C450.299,381.218 458.321,373.492 464.535,364.216C467.973,358.975 470.781,353.292 472.89,347.301C463.662,346.314 454.239,344.16 454.239,344.16Z" fill="#F2F2F2"/>
<path d="M500,416.647C500,416.77 499.978,416.893 499.934,417.007C499.89,417.122 499.824,417.226 499.742,417.313C499.66,417.401 499.564,417.47 499.456,417.517C499.35,417.564 499.236,417.589 499.12,417.588L0.881,417.588C0.647,417.588 0.423,417.489 0.258,417.312C0.093,417.136 0,416.896 0,416.647C0,416.397 0.093,416.157 0.258,415.981C0.423,415.804 0.647,415.705 0.881,415.705L499.12,415.705C499.236,415.705 499.35,415.729 499.456,415.776C499.564,415.823 499.66,415.893 499.742,415.98C499.824,416.068 499.89,416.171 499.934,416.286C499.978,416.4 500,416.523 500,416.647Z" fill="#CCCCCC"/>
<path d="M206.46,376.507C294.329,376.507 365.561,300.347 365.561,206.398C365.561,112.449 294.329,36.289 206.46,36.289C118.591,36.289 47.359,112.449 47.359,206.398C47.359,300.347 118.591,376.507 206.46,376.507Z" fill="#E6E6E6"/>
<path d="M343.361,206.398C343.377,229.238 338.387,251.764 328.791,272.169C319.195,292.575 305.261,310.291 288.105,323.901C286.959,324.817 285.789,325.711 284.613,326.583C261.671,343.633 234.4,352.771 206.46,352.771C178.521,352.771 151.25,343.633 128.308,326.583C127.131,325.711 125.962,324.817 124.815,323.901C107.671,310.279 93.745,292.561 84.151,272.157C74.556,251.755 69.559,229.235 69.559,206.398C69.559,183.562 74.556,161.042 84.151,140.639C93.745,120.236 107.671,102.517 124.815,88.896C125.962,87.979 127.131,87.085 128.308,86.214C151.25,69.164 178.521,60.025 206.46,60.025C234.4,60.025 261.671,69.164 284.613,86.214C285.789,87.085 286.959,87.979 288.105,88.896C305.261,102.505 319.195,120.222 328.791,140.628C338.387,161.033 343.377,183.559 343.361,206.398Z" fill="#FFFFFF"/>
<path d="M206.46,340.114C275.529,340.114 331.521,280.248 331.521,206.399C331.521,132.551 275.529,72.686 206.46,72.686C137.391,72.686 81.399,132.551 81.399,206.399C81.399,280.248 137.391,340.114 206.46,340.114Z" fill="#18AEB1"/>
<g opacity="0.2">
<path d="M206.786,73.059C204.89,73.059 203.006,73.112 201.131,73.201C232.74,76.171 262.11,91.876 283.293,117.134C304.476,142.393 315.886,175.317 315.213,209.235C314.54,243.153 301.833,275.529 279.667,299.803C257.501,324.079 227.533,338.437 195.835,339.971C199.445,340.305 203.096,340.487 206.786,340.487C239.955,340.487 271.764,326.399 295.218,301.323C318.671,276.247 331.847,242.235 331.847,206.772C331.847,171.309 318.671,137.299 295.218,112.222C271.764,87.146 239.955,73.059 206.786,73.059Z" fill="#000000"/>
</g>
<path d="M206.83,63.189C205.751,63.191 204.717,63.651 203.954,64.466C203.191,65.282 202.762,66.388 202.76,67.541L202.76,86.53C202.76,87.684 203.189,88.791 203.952,89.607C204.715,90.423 205.751,90.882 206.83,90.882C207.909,90.882 208.945,90.423 209.708,89.607C210.471,88.791 210.9,87.684 210.9,86.53L210.9,67.541C210.898,66.388 210.469,65.282 209.706,64.466C208.943,63.651 207.909,63.191 206.83,63.189Z" fill="#FFFFFF"/>
<path d="M288.105,88.896C286.958,87.979 285.789,87.085 284.612,86.214C283.906,86.165 283.2,86.314 282.564,86.645C281.928,86.977 281.384,87.48 280.986,88.105L270.989,103.795C270.381,104.749 270.153,105.921 270.354,107.055C270.555,108.188 271.17,109.19 272.062,109.84C272.954,110.489 274.05,110.733 275.111,110.518C276.171,110.303 277.108,109.646 277.715,108.692L287.713,93.003C288.093,92.408 288.328,91.72 288.397,91.003C288.465,90.286 288.365,89.562 288.105,88.896Z" fill="#FFFFFF"/>
<path d="M333.527,160.437C333.326,159.908 333.029,159.426 332.654,159.02C332.279,158.613 331.832,158.29 331.34,158.068C330.848,157.846 330.32,157.73 329.786,157.727C329.252,157.723 328.723,157.832 328.228,158.047L311.77,165.192C310.771,165.627 309.975,166.468 309.556,167.531C309.137,168.594 309.129,169.791 309.535,170.859C309.941,171.928 310.727,172.78 311.721,173.229C312.715,173.678 313.834,173.687 314.834,173.254L331.292,166.11C332.29,165.672 333.086,164.83 333.505,163.767C333.924,162.703 333.932,161.506 333.527,160.437Z" fill="#FFFFFF"/>
<path d="M141.932,103.795L131.934,88.105C131.536,87.48 130.992,86.977 130.356,86.645C129.72,86.314 129.014,86.165 128.308,86.214C127.131,87.085 125.962,87.979 124.815,88.896C124.555,89.562 124.455,90.286 124.523,91.003C124.592,91.72 124.827,92.408 125.207,93.003L135.205,108.692C135.812,109.646 136.749,110.303 137.809,110.518C138.87,110.733 139.967,110.489 140.859,109.84C141.751,109.19 142.365,108.188 142.566,107.055C142.767,105.921 142.539,104.749 141.932,103.795Z" fill="#FFFFFF"/>
<path d="M101.15,165.193L84.692,158.048C83.692,157.614 82.572,157.622 81.578,158.071C80.584,158.52 79.797,159.373 79.391,160.442C78.984,161.511 78.992,162.709 79.412,163.772C79.831,164.835 80.629,165.676 81.628,166.111L98.086,173.255C99.086,173.688 100.206,173.679 101.199,173.23C102.193,172.781 102.979,171.929 103.385,170.86C103.791,169.792 103.784,168.595 103.365,167.532C102.945,166.469 102.149,165.628 101.15,165.193Z" fill="#FFFFFF"/>
<path d="M206.83,321.914C205.751,321.916 204.717,322.375 203.954,323.191C203.191,324.006 202.762,325.112 202.76,326.266L202.76,345.255C202.76,346.409 203.189,347.516 203.952,348.332C204.715,349.148 205.751,349.606 206.83,349.606C207.909,349.606 208.945,349.148 209.708,348.332C210.471,347.516 210.9,346.409 210.9,345.255L210.9,326.266C210.898,325.112 210.469,324.006 209.706,323.191C208.943,322.375 207.909,321.916 206.83,321.914Z" fill="#FFFFFF"/>
<path d="M287.713,319.795L277.715,304.105C277.414,303.633 277.03,303.228 276.583,302.915C276.136,302.602 275.636,302.386 275.111,302.279C274.586,302.173 274.046,302.178 273.523,302.294C273,302.411 272.503,302.636 272.062,302.958C271.62,303.279 271.242,303.691 270.949,304.169C270.656,304.646 270.454,305.181 270.354,305.743C270.254,306.304 270.259,306.881 270.368,307.44C270.477,307.999 270.688,308.53 270.988,309.003L280.986,324.692C281.384,325.317 281.928,325.821 282.564,326.152C283.2,326.484 283.906,326.632 284.612,326.583C285.789,325.713 286.958,324.819 288.105,323.901C288.365,323.236 288.465,322.512 288.397,321.795C288.328,321.077 288.093,320.39 287.713,319.795Z" fill="#FFFFFF"/>
<path d="M331.292,246.687L314.834,239.542C313.834,239.108 312.714,239.117 311.72,239.565C310.726,240.014 309.939,240.867 309.533,241.936C309.126,243.005 309.134,244.203 309.554,245.266C309.973,246.329 310.771,247.17 311.77,247.605L328.228,254.749C329.228,255.182 330.347,255.173 331.341,254.724C332.335,254.275 333.121,253.423 333.527,252.354C333.933,251.286 333.925,250.089 333.506,249.026C333.087,247.963 332.291,247.122 331.292,246.687Z" fill="#FFFFFF"/>
<path d="M140.858,302.957C139.966,302.308 138.87,302.064 137.81,302.279C136.749,302.495 135.813,303.151 135.205,304.105L125.207,319.794C124.827,320.389 124.592,321.077 124.523,321.794C124.455,322.511 124.555,323.235 124.815,323.901C125.962,324.818 127.131,325.712 128.308,326.583C129.014,326.632 129.72,326.483 130.356,326.152C130.992,325.82 131.536,325.317 131.934,324.692L141.932,309.002C142.232,308.53 142.443,307.999 142.552,307.44C142.661,306.88 142.666,306.303 142.566,305.742C142.466,305.181 142.264,304.646 141.971,304.168C141.678,303.69 141.3,303.279 140.858,302.957Z" fill="#FFFFFF"/>
<path d="M103.385,241.931C103.184,241.402 102.887,240.92 102.512,240.514C102.137,240.108 101.69,239.784 101.198,239.562C100.706,239.34 100.178,239.224 99.644,239.221C99.11,239.217 98.581,239.326 98.086,239.541L81.628,246.686C80.629,247.121 79.833,247.962 79.414,249.025C78.995,250.088 78.987,251.285 79.393,252.354C79.799,253.422 80.585,254.274 81.579,254.724C82.573,255.173 83.692,255.182 84.692,254.748L101.15,247.604C102.148,247.167 102.944,246.324 103.363,245.261C103.782,244.198 103.79,243 103.385,241.931Z" fill="#FFFFFF"/>
<path d="M212.111,204.24C212.487,206.618 211.965,209.059 210.659,211.027C209.354,212.994 207.372,214.328 205.148,214.735L132.925,227.87C131.823,228.071 130.696,228.037 129.606,227.771C128.516,227.506 127.486,227.013 126.575,226.322C125.663,225.631 124.888,224.754 124.293,223.743C123.699,222.731 123.296,221.604 123.109,220.426C122.921,219.248 122.953,218.042 123.201,216.877C123.45,215.712 123.91,214.611 124.557,213.636C125.203,212.662 126.023,211.833 126.969,211.197C127.915,210.561 128.969,210.131 130.071,209.93L202.294,196.795C204.519,196.393 206.802,196.952 208.642,198.347C210.483,199.743 211.73,201.862 212.111,204.24Z" fill="#3F3D56"/>
<path d="M288.124,289.793C287.086,290.909 285.677,291.539 284.206,291.545C282.734,291.551 281.321,290.933 280.275,289.826L202.528,207.352C201.484,206.243 200.896,204.737 200.89,203.164C200.885,201.591 201.464,200.08 202.501,198.964C203.537,197.847 204.945,197.216 206.416,197.209C207.887,197.202 209.301,197.82 210.346,198.927L288.093,281.401C289.137,282.51 289.726,284.017 289.732,285.59C289.737,287.164 289.159,288.675 288.124,289.793Z" fill="#3F3D56"/>
<path d="M206.46,216.685C211.773,216.685 216.08,212.08 216.08,206.399C216.08,200.718 211.773,196.113 206.46,196.113C201.147,196.113 196.84,200.718 196.84,206.399C196.84,212.08 201.147,216.685 206.46,216.685Z" fill="#CCCCCC"/>
<path d="M140.197,28.044C125.43,52.866 102.899,69.339 75.114,80.161C74.565,80.601 73.94,80.921 73.275,81.102C72.611,81.284 71.919,81.324 71.24,81.219C70.561,81.115 69.908,80.869 69.318,80.495C68.728,80.121 68.212,79.626 67.801,79.039C52.708,57.493 56.116,26.698 76.036,10.234C80.852,6.261 86.358,3.35 92.235,1.67C98.111,-0.01 104.242,-0.425 110.27,0.449C116.297,1.324 122.103,3.469 127.349,6.762C132.595,10.054 137.177,14.428 140.829,19.63L141.247,20.226C141.658,20.813 141.957,21.481 142.127,22.191C142.296,22.902 142.334,23.642 142.236,24.368C142.139,25.094 141.908,25.792 141.559,26.423C141.209,27.054 140.746,27.605 140.197,28.044Z" fill="#E6E6E6"/>
<path d="M272.091,19.63C275.743,14.428 280.325,10.054 285.571,6.762C290.817,3.469 296.622,1.324 302.65,0.449C308.678,-0.425 314.809,-0.01 320.685,1.67C326.562,3.35 332.068,6.261 336.884,10.234C356.804,26.698 360.212,57.493 345.119,79.039C344.708,79.626 344.192,80.121 343.602,80.495C343.012,80.869 342.359,81.115 341.68,81.219C341.001,81.324 340.309,81.284 339.645,81.102C338.98,80.921 338.356,80.601 337.806,80.161C312.012,69.602 290.859,51.33 272.723,28.044C271.614,27.156 270.881,25.834 270.684,24.367C270.487,22.901 270.843,21.411 271.673,20.226L272.091,19.63Z" fill="#E6E6E6"/>
<path d="M265.618,353.776C264.678,354.341 263.985,355.282 263.692,356.392C263.399,357.502 263.529,358.691 264.054,359.699L287.544,404.578C288.071,405.585 288.95,406.326 289.989,406.64C291.028,406.953 292.14,406.813 293.082,406.249C294.024,405.686 294.718,404.745 295.012,403.635C295.305,402.524 295.174,401.335 294.647,400.328L271.158,355.448C270.629,354.443 269.75,353.702 268.711,353.389C267.673,353.075 266.561,353.214 265.618,353.776Z" fill="#E6E6E6"/>
<path d="M141.762,355.448L118.273,400.328C117.746,401.335 117.615,402.524 117.909,403.635C118.202,404.745 118.896,405.686 119.838,406.249C120.78,406.813 121.892,406.953 122.931,406.64C123.97,406.326 124.849,405.584 125.377,404.578L148.866,359.698C149.127,359.2 149.294,358.651 149.356,358.083C149.419,357.516 149.377,356.94 149.231,356.39C149.086,355.84 148.841,355.326 148.51,354.877C148.179,354.429 147.768,354.054 147.302,353.775C146.835,353.496 146.322,353.318 145.791,353.251C145.26,353.184 144.722,353.229 144.208,353.385C143.693,353.54 143.213,353.802 142.793,354.156C142.373,354.51 142.023,354.949 141.762,355.448Z" fill="#E6E6E6"/>
<path d="M292.301,416.069C299.249,416.069 304.881,410.047 304.881,402.618C304.881,395.19 299.249,389.168 292.301,389.168C285.353,389.168 279.721,395.19 279.721,402.618C279.721,410.047 285.353,416.069 292.301,416.069Z" fill="#E6E6E6"/>
<path d="M301.181,71.893C308.129,71.893 313.761,65.871 313.761,58.443C313.761,51.014 308.129,44.992 301.181,44.992C294.233,44.992 288.601,51.014 288.601,58.443C288.601,65.871 294.233,71.893 301.181,71.893Z" fill="#E6E6E6"/>
<path d="M205.72,40.245C212.668,40.245 218.3,34.223 218.3,26.794C218.3,19.366 212.668,13.344 205.72,13.344C198.772,13.344 193.14,19.366 193.14,26.794C193.14,34.223 198.772,40.245 205.72,40.245Z" fill="#E6E6E6"/>
<path d="M114.699,70.311C121.647,70.311 127.279,64.289 127.279,56.861C127.279,49.432 121.647,43.41 114.699,43.41C107.751,43.41 102.119,49.432 102.119,56.861C102.119,64.289 107.751,70.311 114.699,70.311Z" fill="#E6E6E6"/>
<path d="M122.839,416.069C129.787,416.069 135.419,410.047 135.419,402.618C135.419,395.19 129.787,389.168 122.839,389.168C115.892,389.168 110.259,395.19 110.259,402.618C110.259,410.047 115.892,416.069 122.839,416.069Z" fill="#E6E6E6"/>
<path d="M282.433,282.229C282.929,283.06 283.589,283.763 284.367,284.291C285.145,284.819 286.021,285.158 286.935,285.285C287.849,285.411 288.777,285.322 289.655,285.023C290.533,284.725 291.339,284.224 292.016,283.556L311.756,294.865L310.698,282.474L292.114,273.634C290.99,272.492 289.512,271.831 287.962,271.775C286.412,271.72 284.896,272.275 283.703,273.334C282.51,274.393 281.721,275.884 281.487,277.524C281.253,279.163 281.589,280.837 282.433,282.229Z" fill="#FFB7B7"/>
<path d="M296.816,286.554L304.552,275.137L341.818,293.973L388.192,284.669C390.484,284.21 392.843,284.295 395.101,284.919C397.359,285.544 399.461,286.692 401.257,288.283C403.053,289.874 404.5,291.867 405.494,294.123C406.489,296.379 407.006,298.841 407.011,301.334C407.014,305.838 405.346,310.16 402.373,313.35C399.4,316.541 395.364,318.34 391.152,318.353L338.007,318.459L296.816,286.554Z" fill="#3F3D56"/>
<path d="M284.902,483.743L277.075,479.741L287.826,444.764L299.377,450.671L284.902,483.743Z" fill="#FFB7B7"/>
<path d="M337.373,478.104C336.803,478.485 336.234,478.86 335.659,479.235C334.515,479.984 333.36,480.722 332.204,481.447C331.624,481.81 331.037,482.173 330.457,482.529L330.457,482.548L330.422,482.554L330.411,482.56L329.525,482.794L328.255,479.204L327.668,477.55L326.841,475.208L325.323,470.924L317.332,448.366L329.755,445.09L330.221,447.124L330.227,447.124L330.457,448.132L334.797,466.954L335.682,470.801L335.711,470.918L336.246,473.217L336.706,475.209L337.217,477.434L337.373,478.104Z" fill="#FFB7B7"/>
<path d="M411.483,398.884C410.695,400.236 409.89,401.582 409.08,402.916C407.574,405.399 406.027,407.846 404.441,410.255C404.441,410.261 404.435,410.261 404.429,410.267C403.503,411.184 402.481,411.983 401.382,412.646C401.336,412.683 401.284,412.708 401.238,412.738C400.429,413.217 399.568,413.586 398.674,413.839C398.352,413.925 398.025,414.011 397.703,414.097C396.542,414.392 395.392,414.644 394.248,414.865C392.213,415.252 390.201,415.529 388.2,415.701C388.039,415.72 387.878,415.732 387.717,415.744C379.49,416.39 371.482,415.351 363.123,413.648C358.995,412.812 354.781,411.81 350.418,410.772C348.992,410.427 347.561,410.089 346.112,409.751C346.003,409.727 345.888,409.696 345.773,409.671C343.703,409.186 341.599,408.706 339.443,408.233C336.73,407.637 333.93,407.059 331.021,406.512L331.228,410.894C331.4,414.266 332.056,417.589 333.171,420.748C334.413,424.632 335.396,427.706 333.321,434.104L332.32,437.202C332.839,438.741 333.017,440.386 332.84,442.011C332.664,443.635 332.138,445.193 331.303,446.564L331.102,446.889L339.443,469.454L339.984,470.917L335.712,470.917L330.458,470.923L321.553,470.923L308.704,443.361L308.089,442.046L308.089,441.978L309.417,389.012C309.434,388.545 309.469,388.072 309.526,387.605C309.76,385.481 310.388,383.429 311.372,381.567C312.356,379.705 313.677,378.072 315.258,376.762C316.772,375.496 318.508,374.565 320.362,374.023C322.216,373.48 324.153,373.337 326.06,373.603L330.458,374.211L339.443,375.453L345.773,376.332L345.899,376.35L364.566,378.932L365.906,373.092L366.153,372.994L374.012,369.915L401.192,359.262L401.261,359.238L403.049,358.537L403.262,358.906C403.325,359.017 403.389,359.127 403.446,359.238C405.213,362.625 406.652,366.196 407.74,369.896C409.571,375.94 411.077,382.091 412.253,388.318C412.305,388.588 412.351,388.834 412.391,389.055L412.409,389.123C412.426,389.228 412.437,389.295 412.443,389.314C413.07,392.104 412.633,395.509 411.483,398.884Z" fill="#2F2E41"/>
<path d="M412.63,379.365C412.544,378.972 412.435,378.572 412.32,378.185C411.407,375.252 410.344,372.375 409.135,369.567C407.778,366.371 406.151,362.947 404.214,359.241C403.277,357.446 402.269,355.579 401.19,353.641C400.65,352.67 400.088,351.68 399.506,350.672C399.483,350.626 399.458,350.581 399.431,350.537L399.264,350.242L372.371,354.09L362.356,355.522L361.758,360.858L361.614,362.179C361.609,362.179 361.609,362.179 361.614,362.185L361.212,365.787L361.212,365.793L360.677,370.551L360.631,370.545L345.77,368.486L330.455,366.365L322.229,365.228C320.322,364.962 318.385,365.105 316.531,365.647C314.676,366.189 312.941,367.121 311.426,368.387C309.846,369.697 308.525,371.331 307.541,373.192C306.557,375.054 305.929,377.106 305.695,379.23C305.643,379.66 305.609,380.103 305.591,380.539L297.83,400.202C293.186,411.962 290.229,424.404 289.057,437.107L283.366,456.561L284.177,456.641L296.238,457.84L299.423,458.159L306.436,447.212C307.235,445.964 307.994,444.68 308.701,443.364C309.866,441.216 310.901,438.99 311.8,436.701L326.971,398.1C328.144,398.315 329.306,398.52 330.455,398.715C335.773,399.637 340.878,400.389 345.77,400.971C361.678,402.87 375.452,403.018 387.714,401.407C391.158,400.958 394.487,400.368 397.7,399.637C398.879,399.373 400.042,399.088 401.19,398.782C401.46,398.715 401.725,398.647 401.989,398.573C404.365,397.918 406.549,396.637 408.342,394.845C410.135,393.054 411.479,390.811 412.251,388.321C413.173,385.435 413.304,382.328 412.63,379.365Z" fill="#2F2E41"/>
<path d="M287.402,478.032L278.934,473.692L277.606,473.01L275.484,478.579L260.675,482.064C259.943,482.235 259.281,482.653 258.787,483.255C258.292,483.858 257.991,484.613 257.926,485.412C257.862,486.21 258.039,487.01 258.43,487.694C258.821,488.377 259.406,488.91 260.1,489.212L274.57,495.525L279.164,491.106L278.037,497.037L283.487,499.416L289.46,479.089L287.402,478.032Z" fill="#2F2E41"/>
<path d="M339.443,469.453L339.984,470.916L339.443,470.916L339.443,469.453Z" fill="#2F2E41"/>
<path d="M336.494,471.229L327.621,474.516L326.228,475.03L328.386,480.583L320.156,494.2C319.749,494.873 319.553,495.668 319.599,496.468C319.644,497.268 319.927,498.031 320.407,498.647C320.886,499.263 321.538,499.698 322.266,499.89C322.994,500.082 323.76,500.02 324.452,499.712L338.889,493.312L339.244,486.716L342.347,491.779L347.785,489.369L338.652,470.432L336.494,471.229Z" fill="#2F2E41"/>
<path d="M410.417,388.27C409.89,388.269 409.372,388.131 408.905,387.869L362.082,361.71L361.541,359.342L360.521,351.848L360.536,351.777L364.989,329.827C364.907,329.638 364.736,329.329 364.544,328.98C362.556,325.379 356.506,314.418 368.052,299.325L388.325,274.054L405.725,273.254L405.923,273.521C410.575,279.765 413.713,287.141 415.057,294.993C416.401,302.846 415.909,310.931 413.626,318.532L411.815,353.517L413.758,360.582C414.894,364.734 414.706,369.172 413.224,373.197L413.669,384.637C413.687,385.106 413.615,385.574 413.46,386.013C413.305,386.452 413.068,386.853 412.765,387.192C412.461,387.531 412.097,387.801 411.694,387.986C411.29,388.171 410.856,388.268 410.417,388.27Z" fill="#3F3D56"/>
<path d="M369.801,417.122C370.595,416.621 371.275,415.94 371.796,415.128C372.316,414.315 372.664,413.39 372.814,412.418C372.964,411.446 372.913,410.451 372.664,409.502C372.416,408.554 371.975,407.675 371.375,406.928L382.632,386.229L371.013,386.929L362.104,406.478C360.997,407.64 360.328,409.196 360.222,410.851C360.116,412.505 360.582,414.144 361.531,415.456C362.48,416.768 363.846,417.662 365.37,417.969C366.894,418.276 368.471,417.975 369.801,417.122Z" fill="#FFB7B7"/>
<path d="M374.344,401.903L363.941,393.24L382.844,354.074L375.761,304.198C375.411,301.733 375.573,299.215 376.235,296.824C376.897,294.433 378.044,292.227 379.593,290.364C381.142,288.5 383.057,287.023 385.199,286.039C387.342,285.055 389.662,284.587 391.993,284.669C396.203,284.823 400.184,286.755 403.063,290.043C405.942,293.331 407.483,297.706 407.349,302.208L405.599,358.998L374.344,401.903Z" fill="#3F3D56"/>
<path d="M377.164,263.553L377.164,245.144C377.161,238.602 379.587,232.326 383.911,227.697C388.235,223.068 394.102,220.465 400.221,220.461C406.34,220.457 412.209,223.052 416.539,227.675C420.868,232.298 423.303,238.57 423.307,245.113L423.307,245.144C427.373,254.204 424.829,258.511 423.307,263.553C423.305,264.431 422.979,265.273 422.398,265.893C421.817,266.514 421.03,266.864 420.209,266.865L380.264,266.865C379.442,266.864 378.655,266.515 378.074,265.894C377.493,265.273 377.166,264.431 377.164,263.553Z" fill="#2F2E41"/>
<path d="M392.671,265.669C402.209,265.669 409.941,257.402 409.941,247.205C409.941,237.007 402.209,228.74 392.671,228.74C383.133,228.74 375.401,237.007 375.401,247.205C375.401,257.402 383.133,265.669 392.671,265.669Z" fill="#FFB7B7"/>
<path d="M410.744,252.047C410.588,252.02 410.431,251.985 410.275,251.958C407.581,251.448 404.887,250.946 402.202,250.426L401.955,243.917L398.701,249.748C391.278,252.381 384.334,250.893 377.801,247.607C375.646,246.514 373.555,245.281 371.54,243.917C372.089,240.317 373.383,236.894 375.329,233.898C377.275,230.902 379.822,228.408 382.785,226.601C383.032,226.451 383.271,226.319 383.518,226.187L383.521,226.186L383.524,226.184L383.526,226.181L383.526,226.178C383.946,225.966 384.375,225.764 384.803,225.579C388.157,224.178 391.814,223.823 395.349,224.555C398.883,225.288 402.151,227.079 404.772,229.719C410.044,235.1 412.417,243.987 410.744,252.047Z" fill="#2F2E41"/>
</svg>
