<svg width="500" height="500" viewBox="0 0 500 500" fill="none" xmlns="http://www.w3.org/2000/svg" xmlns:xlink="http://www.w3.org/1999/xlink">
<rect  x="0" y="0" width="500" height="500" rx="200" fill="#FFFAFA" fill-opacity="0"/>
<path d="M486.859,485.436L8.905,485.436L8.905,487.377L486.859,487.377L486.859,485.436Z" fill="#3F3D56"/>
<path d="M9.198,500C14.279,500 18.397,493.914 18.397,486.406C18.397,478.899 14.279,472.813 9.198,472.813C4.118,472.813 0,478.899 0,486.406C0,493.914 4.118,500 9.198,500Z" fill="#3F3D56"/>
<path d="M490.801,500C495.882,500 500,493.914 500,486.406C500,478.899 495.882,472.813 490.801,472.813C485.721,472.813 481.603,478.899 481.603,486.406C481.603,493.914 485.721,500 490.801,500Z" fill="#3F3D56"/>
<path d="M268.547,486.456L81.293,486.456C79.725,486.454 78.222,485.532 77.114,483.894C76.005,482.256 75.382,480.034 75.38,477.718L75.38,8.739C75.382,6.422 76.005,4.201 77.114,2.562C78.222,0.924 79.725,0.003 81.293,0L268.547,0C270.114,0.003 271.617,0.924 272.726,2.562C273.835,4.201 274.458,6.422 274.46,8.739L274.46,477.718C274.458,480.034 273.835,482.256 272.726,483.894C271.617,485.532 270.114,486.454 268.547,486.456ZM81.293,1.942C80.074,1.944 78.905,2.661 78.043,3.935C77.18,5.209 76.695,6.937 76.694,8.739L76.694,477.718C76.695,479.52 77.18,481.248 78.043,482.522C78.905,483.796 80.074,484.512 81.293,484.514L268.547,484.514C269.766,484.512 270.935,483.796 271.797,482.522C272.659,481.248 273.144,479.52 273.146,477.718L273.146,8.739C273.144,6.937 272.659,5.209 271.797,3.935C270.935,2.661 269.766,1.944 268.547,1.942L81.293,1.942Z" fill="#3F3D56"/>
<path d="M200.544,28.158L149.296,28.158C149.121,28.158 148.954,28.055 148.831,27.873C148.708,27.691 148.639,27.444 148.639,27.187C148.639,26.929 148.708,26.682 148.831,26.5C148.954,26.318 149.121,26.216 149.296,26.216L200.544,26.216C200.718,26.216 200.885,26.318 201.009,26.5C201.132,26.682 201.201,26.929 201.201,27.187C201.201,27.444 201.132,27.691 201.009,27.873C200.885,28.055 200.718,28.158 200.544,28.158Z" fill="#3F3D56"/>
<path d="M246.865,451.501L102.318,451.501C100.75,451.499 99.247,450.577 98.139,448.939C97.03,447.301 96.407,445.079 96.405,442.763L96.405,62.142C96.407,59.825 97.03,57.604 98.139,55.966C99.247,54.327 100.75,53.406 102.318,53.403L246.865,53.403C248.432,53.406 249.936,54.327 251.044,55.966C252.153,57.604 252.776,59.825 252.778,62.142L252.778,442.763C252.776,445.079 252.153,447.301 251.044,448.939C249.936,450.577 248.432,451.499 246.865,451.501ZM102.318,55.345C101.099,55.347 99.93,56.064 99.067,57.338C98.205,58.613 97.72,60.34 97.719,62.142L97.719,442.763C97.72,444.565 98.205,446.291 99.067,447.567C99.93,448.841 101.099,449.557 102.318,449.559L246.865,449.559C248.084,449.557 249.253,448.841 250.115,447.567C250.977,446.291 251.462,444.565 251.464,442.763L251.464,62.142C251.462,60.34 250.977,58.613 250.115,57.338C249.253,56.064 248.084,55.347 246.865,55.345L102.318,55.345Z" fill="#3F3D56"/>
<path d="M276.102,100.01C275.318,100.009 274.567,99.548 274.012,98.729C273.458,97.91 273.146,96.799 273.146,95.641L273.146,77.193C273.146,76.034 273.457,74.922 274.012,74.103C274.566,73.284 275.318,72.823 276.102,72.823C276.886,72.823 277.638,73.284 278.193,74.103C278.747,74.922 279.059,76.034 279.059,77.193L279.059,95.641C279.058,96.799 278.746,97.91 278.192,98.729C277.638,99.548 276.886,100.009 276.102,100.01ZM276.102,74.765C275.667,74.766 275.249,75.022 274.941,75.477C274.633,75.932 274.46,76.549 274.46,77.193L274.46,95.641C274.46,96.285 274.633,96.902 274.941,97.357C275.249,97.813 275.667,98.068 276.102,98.068C276.538,98.068 276.956,97.813 277.264,97.357C277.572,96.902 277.745,96.285 277.745,95.641L277.745,77.193C277.744,76.549 277.571,75.932 277.263,75.477C276.955,75.022 276.538,74.766 276.102,74.765Z" fill="#3F3D56"/>
<path d="M276.102,130.11C275.318,130.109 274.567,129.648 274.012,128.829C273.458,128.01 273.146,126.899 273.146,125.741L273.146,107.292C273.146,106.133 273.457,105.022 274.012,104.203C274.566,103.383 275.318,102.923 276.102,102.923C276.886,102.923 277.638,103.383 278.193,104.203C278.747,105.022 279.059,106.133 279.059,107.292L279.059,125.741C279.058,126.899 278.746,128.01 278.192,128.829C277.638,129.648 276.886,130.109 276.102,130.11ZM276.102,104.865C275.667,104.865 275.249,105.121 274.941,105.577C274.633,106.032 274.46,106.649 274.46,107.292L274.46,125.741C274.46,126.384 274.633,127.002 274.941,127.457C275.249,127.912 275.667,128.168 276.102,128.168C276.538,128.168 276.956,127.912 277.264,127.457C277.572,127.002 277.745,126.384 277.745,125.741L277.745,107.292C277.744,106.649 277.571,106.032 277.263,105.577C276.955,105.121 276.538,104.865 276.102,104.865Z" fill="#3F3D56"/>
<path d="M223.868,205.853L125.314,205.853C124.268,205.853 123.266,205.239 122.526,204.146C121.787,203.054 121.372,201.572 121.372,200.027C121.372,198.482 121.787,197 122.526,195.908C123.266,194.815 124.268,194.201 125.314,194.201L223.868,194.201C224.914,194.201 225.917,194.815 226.656,195.908C227.395,197 227.81,198.482 227.81,200.027C227.81,201.572 227.395,203.054 226.656,204.146C225.917,205.239 224.914,205.853 223.868,205.853Z" fill="#CCCCCC"/>
<path d="M223.868,232.07L125.314,232.07C124.268,232.07 123.266,231.456 122.526,230.363C121.787,229.271 121.372,227.789 121.372,226.244C121.372,224.699 121.787,223.217 122.526,222.124C123.266,221.032 124.268,220.418 125.314,220.418L223.868,220.418C224.914,220.418 225.917,221.032 226.656,222.124C227.395,223.217 227.81,224.699 227.81,226.244C227.81,227.789 227.395,229.271 226.656,230.363C225.917,231.456 224.914,232.07 223.868,232.07Z" fill="#CCCCCC"/>
<path d="M223.868,258.285L125.314,258.285C124.268,258.285 123.266,257.672 122.526,256.579C121.787,255.487 121.372,254.005 121.372,252.46C121.372,250.915 121.787,249.433 122.526,248.34C123.266,247.248 124.268,246.634 125.314,246.634L223.868,246.634C224.914,246.634 225.917,247.248 226.656,248.34C227.395,249.433 227.81,250.915 227.81,252.46C227.81,254.005 227.395,255.487 226.656,256.579C225.917,257.672 224.914,258.285 223.868,258.285Z" fill="#CCCCCC"/>
<path d="M188.785,179.637L156.916,179.637C154.999,179.637 153.161,178.511 151.805,176.508C150.45,174.505 149.688,171.789 149.688,168.956C149.688,166.123 150.45,163.407 151.805,161.404C153.161,159.401 154.999,158.275 156.916,158.275L188.785,158.275C190.702,158.275 192.54,159.401 193.896,161.404C195.251,163.407 196.013,166.123 196.013,168.956C196.013,171.789 195.251,174.505 193.896,176.508C192.54,178.511 190.702,179.637 188.785,179.637Z" fill="#64CACB"/>
<path d="M144.344,346.629C141.513,346.629 138.746,345.389 136.392,343.064C134.038,340.74 132.203,337.436 131.119,333.57C130.036,329.705 129.753,325.451 130.305,321.348C130.857,317.244 132.221,313.475 134.222,310.516C136.224,307.558 138.775,305.543 141.552,304.727C144.329,303.911 147.207,304.329 149.822,305.931C152.438,307.532 154.674,310.243 156.247,313.722C157.82,317.201 158.659,321.291 158.659,325.475C158.655,331.083 157.145,336.46 154.462,340.426C151.778,344.392 148.14,346.623 144.344,346.629ZM144.344,306.547C141.811,306.547 139.335,307.657 137.229,309.737C135.123,311.817 133.481,314.773 132.512,318.231C131.542,321.69 131.288,325.496 131.783,329.167C132.277,332.839 133.497,336.212 135.288,338.859C137.079,341.506 139.361,343.309 141.846,344.039C144.33,344.769 146.905,344.394 149.246,342.962C151.586,341.529 153.586,339.103 154.994,335.991C156.401,332.878 157.152,329.218 157.152,325.475C157.152,322.989 156.821,320.528 156.177,318.231C155.534,315.935 154.59,313.848 153.401,312.091C152.212,310.333 150.8,308.939 149.246,307.988C147.692,307.037 146.026,306.547 144.344,306.547Z" fill="#3F3D56"/>
<path d="M144.369,332.797C144.153,332.797 143.94,332.734 143.74,332.612C143.541,332.489 143.361,332.31 143.208,332.085L137.949,324.311C137.796,324.086 137.675,323.818 137.592,323.524C137.51,323.229 137.467,322.914 137.467,322.595C137.467,322.276 137.51,321.96 137.592,321.666C137.675,321.371 137.796,321.104 137.949,320.879L138.221,320.476C138.529,320.022 138.947,319.767 139.382,319.767C139.818,319.767 140.235,320.022 140.544,320.476L143.271,324.505C143.372,324.655 143.495,324.77 143.63,324.843C143.765,324.916 143.909,324.944 144.052,324.926C144.195,324.907 144.334,324.843 144.459,324.737C144.583,324.632 144.691,324.487 144.774,324.313L156.401,299.893C156.652,299.367 157.034,299.009 157.463,298.899C157.892,298.789 158.333,298.935 158.69,299.305L159.006,299.634C159.182,299.818 159.333,300.051 159.448,300.32C159.564,300.589 159.642,300.889 159.679,301.204C159.716,301.518 159.71,301.839 159.663,302.15C159.616,302.461 159.528,302.756 159.404,303.016L145.713,331.766C145.575,332.056 145.396,332.298 145.188,332.474C144.981,332.651 144.749,332.757 144.51,332.787C144.463,332.794 144.416,332.797 144.369,332.797Z" fill="#64CACB"/>
<path d="M200.849,346.629C198.018,346.629 195.251,345.389 192.897,343.064C190.542,340.74 188.708,337.436 187.624,333.57C186.541,329.705 186.257,325.451 186.81,321.348C187.362,317.244 188.725,313.475 190.727,310.516C192.729,307.558 195.28,305.543 198.057,304.727C200.833,303.911 203.712,304.329 206.327,305.931C208.943,307.532 211.179,310.243 212.751,313.722C214.324,317.201 215.164,321.291 215.164,325.475C215.16,331.083 213.65,336.46 210.967,340.426C208.283,344.392 204.645,346.623 200.849,346.629ZM200.849,306.547C198.316,306.547 195.84,307.657 193.734,309.737C191.627,311.817 189.986,314.773 189.016,318.231C188.047,321.69 187.793,325.496 188.288,329.167C188.782,332.839 190.002,336.212 191.793,338.859C193.584,341.506 195.866,343.309 198.351,344.039C200.835,344.769 203.41,344.394 205.751,342.962C208.091,341.529 210.091,339.103 211.499,335.991C212.906,332.878 213.657,329.218 213.657,325.475C213.657,322.989 213.326,320.528 212.682,318.231C212.039,315.935 211.095,313.848 209.906,312.091C208.716,310.333 207.305,308.939 205.751,307.988C204.197,307.037 202.531,306.547 200.849,306.547Z" fill="#3F3D56"/>
<path d="M205.436,335.151L205.434,335.151C205.218,335.151 205.004,335.089 204.805,334.966C204.606,334.843 204.425,334.664 204.273,334.437L201.547,330.398C201.36,330.133 201.11,329.984 200.85,329.984C200.59,329.984 200.34,330.132 200.152,330.398L197.426,334.438C197.274,334.664 197.093,334.844 196.894,334.966C196.695,335.089 196.481,335.151 196.265,335.151L196.263,335.151C196.047,335.152 195.834,335.09 195.635,334.968C195.436,334.846 195.255,334.667 195.103,334.442L194.83,334.042C194.523,333.587 194.349,332.97 194.349,332.326C194.348,331.683 194.52,331.065 194.827,330.609L197.564,326.55C197.748,326.276 197.851,325.907 197.851,325.522C197.851,325.137 197.748,324.767 197.564,324.494L194.764,320.341C194.457,319.885 194.285,319.267 194.286,318.624C194.286,317.981 194.459,317.364 194.767,316.909L195.04,316.507C195.192,316.282 195.373,316.103 195.572,315.982C195.771,315.86 195.984,315.798 196.2,315.799L196.202,315.799C196.418,315.798 196.632,315.861 196.831,315.984C197.03,316.106 197.211,316.286 197.363,316.513L200.152,320.646C200.34,320.911 200.59,321.059 200.849,321.059C201.109,321.059 201.359,320.911 201.547,320.646L204.336,316.513C204.488,316.286 204.669,316.106 204.868,315.984C205.067,315.861 205.281,315.798 205.497,315.799L205.499,315.799C205.715,315.798 205.928,315.86 206.127,315.982C206.326,316.104 206.507,316.282 206.659,316.508L206.932,316.909C207.239,317.364 207.413,317.981 207.413,318.624C207.414,319.267 207.242,319.885 206.935,320.341L204.134,324.493C203.951,324.766 203.848,325.136 203.848,325.521C203.848,325.907 203.951,326.276 204.134,326.55L206.872,330.609C207.179,331.065 207.351,331.683 207.35,332.326C207.35,332.969 207.177,333.586 206.869,334.041L206.596,334.443C206.444,334.668 206.263,334.847 206.064,334.968C205.865,335.09 205.652,335.152 205.436,335.151Z" fill="#CCCCCC"/>
<path d="M395.179,474.323L403.579,474.323L407.577,426.441L395.179,426.441L395.179,474.323Z" fill="#A0616A"/>
<path d="M393.379,470.776L419.779,470.776L419.779,485.85L403.437,485.85C402.117,485.85 400.809,485.465 399.588,484.718C398.368,483.971 397.259,482.876 396.325,481.496C395.391,480.116 394.65,478.477 394.145,476.673C393.639,474.87 393.379,472.937 393.379,470.985L393.379,470.776Z" transform="rotate(-360 406.579 478.313)" fill="#2F2E41"/>
<path d="M398.131,400.128L392.337,409.116L366.121,380.368L374.672,367.103L398.131,400.128Z" fill="#A0616A"/>
<path d="M388.224,408.703L409.027,408.703L409.027,421.456L375.419,421.456L375.419,421.279C375.419,417.943 376.768,414.745 379.169,412.386C381.571,410.028 384.828,408.703 388.224,408.703Z" transform="rotate(-114.388 392.223 415.079)" fill="#2F2E41"/>
<path d="M456.6,268.949C457.132,267.685 457.47,266.264 457.59,264.786C457.71,263.308 457.61,261.809 457.296,260.395C456.981,258.981 456.461,257.686 455.771,256.601C455.082,255.516 454.24,254.668 453.304,254.116L420.324,129.9L407.469,141.275L444.105,260.441C443.582,262.825 443.669,265.409 444.349,267.705C445.029,270.001 446.255,271.848 447.795,272.897C449.336,273.946 451.083,274.123 452.705,273.395C454.328,272.668 455.714,271.086 456.6,268.949Z" fill="#A0616A"/>
<path d="M331.42,277.852C332.424,277.746 333.401,277.316 334.281,276.591C335.161,275.867 335.922,274.866 336.512,273.659C337.102,272.453 337.506,271.07 337.695,269.608C337.884,268.146 337.854,266.64 337.607,265.197L386.261,152.791L372.48,144.098L328.74,257.91C327.127,258.685 325.762,260.307 324.905,262.469C324.047,264.63 323.756,267.182 324.086,269.64C324.416,272.099 325.345,274.292 326.697,275.806C328.048,277.319 329.729,278.047 331.42,277.852Z" fill="#A0616A"/>
<path d="M419.999,256.51L411.387,445.66L390.806,442.977L386.569,303.428L375.068,363.362L350.25,366.046L360.073,247.564L419.999,256.51Z" fill="#2F2E41"/>
<path d="M371.436,354.417L375.068,363.362L400.491,389.304L382.332,403.617C382.332,403.617 347.223,374.992 350.25,366.046L371.436,354.417Z" fill="#2F2E41"/>
<path d="M438.021,179.98L430.856,150.142C429.263,143.504 426.794,137.399 423.593,132.181C420.392,126.962 416.522,122.733 412.208,119.74C402.511,114.46 391.965,113.607 381.936,117.291C381.112,117.593 380.243,117.912 379.329,118.247C372.376,120.738 365.863,125.388 360.221,131.888C355.806,137.031 351.834,143.543 351.481,150.547C351.479,150.563 351.475,150.576 351.473,150.591C350.25,158.511 349.645,199.66 349.645,199.66L360.43,199.66L358.724,255.122L358.862,254.721C358.862,254.721 421.072,272.118 421.072,263.173L421.072,205.922L422.347,185.192L438.021,179.98Z" fill="#E6E6E6"/>
<path d="M379.955,109.541C389.476,109.541 397.194,98.135 397.194,84.064C397.194,69.993 389.476,58.587 379.955,58.587C370.433,58.587 362.715,69.993 362.715,84.064C362.715,98.135 370.433,109.541 379.955,109.541Z" fill="#A0616A"/>
<path d="M378.484,73.498L363.987,73.43C362.303,73.423 360.464,73.335 359.181,71.722C357.248,69.294 357.572,64.711 358.607,61.289C361.489,51.758 368.642,45.705 375.703,45.985C382.765,46.265 389.45,52.442 393.255,61.238C397.059,70.034 398.087,81.142 396.654,91.364C394.997,86.167 392.448,81.702 389.259,78.416C386.07,75.13 382.353,73.138 378.48,72.638L378.484,73.498Z" fill="#2F2E41"/>
</svg>
