<svg width="484" height="500" viewBox="0 0 484 500" fill="none" xmlns="http://www.w3.org/2000/svg" xmlns:xlink="http://www.w3.org/1999/xlink">
<path d="M46.544,421.206L42.282,403.89C34.724,400.591 26.991,397.734 19.121,395.332L18.583,403.379L16.401,394.513C6.64,391.639 0,390.375 0,390.375C0,390.375 8.967,425.505 27.781,452.361L49.702,456.327L32.672,458.857C35.039,461.789 37.582,464.566 40.287,467.17C67.654,493.334 98.135,505.338 108.368,493.981C118.602,482.625 104.713,452.211 77.347,426.05C68.863,417.939 58.206,411.43 47.538,406.306L46.544,421.206Z" fill="#F2F2F2"/>
<path d="M87.083,402.398L92.124,385.306C87.31,378.458 82.125,371.895 76.594,365.649L72.094,372.251L74.675,363.5C67.761,355.846 62.711,351.229 62.711,351.229C62.711,351.229 52.76,386.076 55.385,419.082L72.159,434.148L56.31,427.246C56.864,431.018 57.648,434.749 58.658,438.419C68.955,475.386 89.024,501.89 103.483,497.617C117.942,493.344 121.317,459.914 111.02,422.947C107.829,411.487 101.971,400.241 95.41,390.176L87.083,402.398Z" fill="#F2F2F2"/>
<path d="M337.733,118.45L335.075,118.45L335.075,43.425C335.075,37.722 333.983,32.075 331.865,26.807C329.747,21.538 326.641,16.751 322.725,12.719C318.811,8.686 314.163,5.488 309.047,3.305C303.933,1.123 298.449,0 292.913,0L138.582,0C127.4,0 116.676,4.575 108.77,12.719C100.863,20.862 96.421,31.908 96.421,43.425L96.421,455.028C96.421,460.732 97.511,466.378 99.63,471.646C101.749,476.916 104.855,481.702 108.77,485.734C112.684,489.766 117.332,492.966 122.447,495.148C127.563,497.33 133.045,498.454 138.582,498.454L292.913,498.454C304.095,498.454 314.819,493.878 322.725,485.734C330.631,477.59 335.073,466.546 335.073,455.028L335.073,171.855L337.733,171.855L337.733,118.45Z" fill="#E6E6E6"/>
<path d="M294.614,11.293L274.471,11.293C275.397,13.632 275.751,16.171 275.5,18.684C275.25,21.198 274.403,23.609 273.035,25.706C271.666,27.803 269.818,29.521 267.653,30.709C265.488,31.897 263.073,32.518 260.619,32.518L172.205,32.518C169.752,32.518 167.336,31.897 165.172,30.709C163.007,29.521 161.159,27.802 159.79,25.706C158.422,23.609 157.576,21.197 157.325,18.684C157.075,16.171 157.429,13.632 158.355,11.293L139.539,11.293C131.189,11.293 123.181,14.71 117.276,20.791C111.371,26.873 108.054,35.121 108.054,43.722L108.054,454.729C108.054,463.329 111.371,471.577 117.276,477.659C123.181,483.741 131.189,487.157 139.539,487.157L294.614,487.157C302.965,487.157 310.972,483.741 316.878,477.659C322.782,471.577 326.1,463.329 326.1,454.729L326.1,43.721C326.1,35.121 322.782,26.872 316.878,20.791C310.972,14.709 302.965,11.293 294.614,11.293Z" fill="#FFFFFF"/>
<path d="M197.316,175.017C197.316,172.144 198.05,169.322 199.445,166.834C200.84,164.346 202.847,162.281 205.263,160.846C202.848,159.409 200.108,158.653 197.319,158.652C194.53,158.652 191.79,159.408 189.374,160.844C186.959,162.28 184.953,164.346 183.559,166.834C182.164,169.321 181.43,172.143 181.43,175.016C181.43,177.889 182.164,180.711 183.559,183.199C184.953,185.686 186.959,187.752 189.374,189.188C191.79,190.624 194.53,191.38 197.319,191.38C200.108,191.38 202.848,190.623 205.263,189.186C202.847,187.752 200.84,185.687 199.445,183.199C198.05,180.712 197.316,177.89 197.316,175.017Z" fill="#CCCCCC"/>
<path d="M217.289,175.017C217.289,172.144 218.023,169.322 219.418,166.834C220.813,164.346 222.82,162.281 225.236,160.846C222.821,159.409 220.081,158.653 217.292,158.652C214.503,158.652 211.763,159.408 209.348,160.844C206.932,162.28 204.926,164.346 203.532,166.834C202.137,169.321 201.403,172.143 201.403,175.016C201.403,177.889 202.137,180.711 203.532,183.199C204.926,185.686 206.932,187.752 209.348,189.188C211.763,190.624 214.503,191.38 217.292,191.38C220.081,191.38 222.821,190.623 225.236,189.186C222.82,187.752 220.813,185.687 219.418,183.199C218.023,180.712 217.289,177.89 217.289,175.017Z" fill="#CCCCCC"/>
<path d="M236.808,191.38C245.582,191.38 252.695,184.054 252.695,175.016C252.695,165.979 245.582,158.652 236.808,158.652C228.034,158.652 220.92,165.979 220.92,175.016C220.92,184.054 228.034,191.38 236.808,191.38Z" fill="#18AEB1"/>
<path d="M263.36,226.127L170.764,226.127C169.882,226.126 169.037,225.765 168.414,225.123C167.791,224.481 167.44,223.611 167.439,222.703L167.439,127.331C167.44,126.423 167.791,125.553 168.414,124.91C169.037,124.268 169.882,123.907 170.764,123.906L263.36,123.906C264.242,123.907 265.087,124.268 265.71,124.91C266.334,125.553 266.684,126.423 266.685,127.331L266.685,222.703C266.684,223.611 266.334,224.481 265.71,225.123C265.087,225.765 264.242,226.126 263.36,226.127ZM170.764,125.277C170.235,125.277 169.728,125.494 169.354,125.879C168.98,126.265 168.77,126.787 168.769,127.332L168.769,222.703C168.77,223.248 168.98,223.77 169.354,224.156C169.728,224.541 170.235,224.757 170.764,224.758L263.36,224.758C263.889,224.757 264.396,224.541 264.77,224.156C265.144,223.77 265.355,223.248 265.355,222.703L265.355,127.332C265.355,126.787 265.144,126.265 264.77,125.879C264.396,125.494 263.889,125.277 263.36,125.277L170.764,125.277Z" fill="#CCCCCC"/>
<path d="M284.035,299.234L142.021,299.234L142.021,300.604L284.035,300.604L284.035,299.234Z" fill="#CCCCCC"/>
<path d="M146.506,290.68C148.983,290.68 150.991,288.612 150.991,286.061C150.991,283.51 148.983,281.441 146.506,281.441C144.029,281.441 142.021,283.51 142.021,286.061C142.021,288.612 144.029,290.68 146.506,290.68Z" fill="#18AEB1"/>
<path d="M284.035,345.426L142.021,345.426L142.021,346.796L284.035,346.796L284.035,345.426Z" fill="#CCCCCC"/>
<path d="M146.506,336.871C148.983,336.871 150.991,334.803 150.991,332.252C150.991,329.701 148.983,327.633 146.506,327.633C144.029,327.633 142.021,329.701 142.021,332.252C142.021,334.803 144.029,336.871 146.506,336.871Z" fill="#18AEB1"/>
<path d="M281.436,398.024L236.556,398.024C235.781,398.023 235.037,397.706 234.489,397.141C233.941,396.576 233.633,395.811 233.632,395.012L233.632,378.811C233.633,378.012 233.941,377.247 234.489,376.682C235.037,376.117 235.781,375.8 236.556,375.799L281.436,375.799C282.212,375.8 282.955,376.117 283.503,376.682C284.051,377.247 284.36,378.012 284.36,378.811L284.36,395.012C284.36,395.811 284.051,396.576 283.503,397.141C282.955,397.706 282.212,398.023 281.436,398.024Z" fill="#18AEB1"/>
<path d="M161.135,290.68C163.612,290.68 165.62,288.612 165.62,286.061C165.62,283.51 163.612,281.441 161.135,281.441C158.658,281.441 156.65,283.51 156.65,286.061C156.65,288.612 158.658,290.68 161.135,290.68Z" fill="#18AEB1"/>
<path d="M175.765,290.68C178.242,290.68 180.25,288.612 180.25,286.061C180.25,283.51 178.242,281.441 175.765,281.441C173.288,281.441 171.28,283.51 171.28,286.061C171.28,288.612 173.288,290.68 175.765,290.68Z" fill="#18AEB1"/>
<path d="M161.135,336.871C163.612,336.871 165.62,334.803 165.62,332.252C165.62,329.701 163.612,327.633 161.135,327.633C158.658,327.633 156.65,329.701 156.65,332.252C156.65,334.803 158.658,336.871 161.135,336.871Z" fill="#18AEB1"/>
<path d="M175.765,336.871C178.242,336.871 180.25,334.803 180.25,332.252C180.25,329.701 178.242,327.633 175.765,327.633C173.288,327.633 171.28,329.701 171.28,332.252C171.28,334.803 173.288,336.871 175.765,336.871Z" fill="#18AEB1"/>
<path d="M482.191,500L15.647,500C14.648,500 13.839,499.635 13.839,499.185C13.839,498.735 14.648,498.369 15.647,498.369L482.191,498.369C483.189,498.369 483.999,498.735 483.999,499.185C483.999,499.635 483.189,500 482.191,500Z" fill="#3F3D56"/>
<path d="M366.926,327.585C367.245,327.735 367.551,327.911 367.843,328.111L396.987,315.299L398.028,307.392L409.673,307.318L408.985,325.455L370.517,335.933C370.436,336.208 370.339,336.478 370.226,336.741C369.67,337.964 368.776,338.989 367.656,339.69C366.535,340.39 365.239,340.734 363.929,340.678C362.62,340.623 361.356,340.17 360.295,339.376C359.235,338.583 358.426,337.484 357.97,336.219C357.514,334.953 357.431,333.577 357.732,332.263C358.032,330.949 358.703,329.756 359.66,328.834C360.617,327.911 361.817,327.3 363.11,327.078C364.402,326.856 365.73,327.032 366.926,327.585Z" fill="#FFB8B8"/>
<path d="M413.907,491.932L405.941,491.932L402.151,460.283L413.909,460.284L413.907,491.932Z" fill="#FFB8B8"/>
<path d="M400.251,489.586L415.614,489.586L415.614,499.549L390.577,499.549C390.577,496.907 391.596,494.373 393.41,492.504C395.225,490.636 397.685,489.586 400.251,489.586Z" fill="#2F2E41"/>
<path d="M444.89,489.613L436.962,490.418L430.177,459.304L441.878,458.117L444.89,489.613Z" fill="#FFB8B8"/>
<path d="M431.535,488.348L446.904,488.348L446.904,498.309L421.859,498.309C421.859,497.001 422.109,495.706 422.596,494.497C423.082,493.289 423.795,492.191 424.693,491.266C425.592,490.341 426.658,489.607 427.832,489.106C429.006,488.606 430.265,488.348 431.535,488.348Z" transform="rotate(-11.586 434.381 493.329)" fill="#2F2E41"/>
<path d="M416.125,273.823C424.939,273.823 432.084,266.464 432.084,257.385C432.084,248.307 424.939,240.947 416.125,240.947C407.31,240.947 400.165,248.307 400.165,257.385C400.165,266.464 407.31,273.823 416.125,273.823Z" fill="#FFB8B8"/>
<path d="M404.161,485.53C403.477,485.532 402.814,485.285 402.289,484.832C401.764,484.379 401.411,483.75 401.293,483.056C397.169,459.48 383.691,382.393 383.369,380.258C383.361,380.209 383.358,380.159 383.358,380.109L383.358,374.362C383.358,374.152 383.421,373.948 383.54,373.778L385.321,371.21C385.405,371.086 385.516,370.984 385.645,370.912C385.774,370.839 385.917,370.798 386.064,370.791C396.215,370.301 429.46,368.864 431.066,370.931C432.679,373.008 432.109,379.302 431.978,380.542L431.985,380.672L446.921,479.052C447.037,479.836 446.85,480.637 446.398,481.28C445.946,481.923 445.267,482.357 444.507,482.488L435.178,484.071C434.483,484.186 433.771,484.04 433.172,483.661C432.573,483.281 432.126,482.692 431.912,482.001C429.027,472.505 419.352,440.561 415.999,428.2C415.978,428.122 415.93,428.054 415.865,428.01C415.799,427.965 415.719,427.947 415.641,427.958C415.563,427.97 415.492,428.01 415.44,428.072C415.389,428.133 415.361,428.212 415.362,428.293C415.53,440.076 415.935,470.139 416.074,480.522L416.089,481.64C416.096,482.397 415.826,483.129 415.333,483.691C414.841,484.253 414.162,484.605 413.43,484.676L404.434,485.518C404.343,485.526 404.252,485.53 404.161,485.53Z" fill="#2F2E41"/>
<path d="M405.997,280.287C403.211,281.992 401.545,285.126 400.588,288.315C398.818,294.219 397.752,300.323 397.415,306.492L396.404,324.964L383.892,373.935C394.736,383.386 400.992,381.238 415.589,373.508C430.187,365.777 431.855,376.085 431.855,376.085L434.774,334.417L438.945,288.885C438.009,287.724 436.949,286.674 435.786,285.756C431.931,282.669 427.446,280.523 422.669,279.48C417.891,278.437 412.947,278.525 408.207,279.736L405.997,280.287Z" fill="#18AEB1"/>
<path d="M401.932,337.475C402.269,337.605 402.595,337.763 402.908,337.946L431.725,323.09L432.203,315.041L444.09,314.197L444.728,332.544L406.217,345.661C405.902,347.05 405.185,348.308 404.159,349.267C403.134,350.226 401.85,350.84 400.477,351.029C399.104,351.218 397.708,350.971 396.475,350.323C395.241,349.675 394.228,348.655 393.571,347.399C392.914,346.144 392.644,344.712 392.796,343.294C392.948,341.876 393.516,340.54 394.424,339.462C395.331,338.385 396.536,337.618 397.877,337.263C399.218,336.908 400.633,336.982 401.932,337.475Z" fill="#FFB8B8"/>
<path d="M438.736,289.093C445.826,291.671 447.075,319.595 447.075,319.595C438.734,314.869 428.724,322.602 428.724,322.602C428.724,322.602 426.639,315.299 424.136,305.848C423.38,303.19 423.29,300.378 423.873,297.674C424.457,294.97 425.695,292.463 427.472,290.384C427.472,290.384 431.646,286.514 438.736,289.093Z" fill="#18AEB1"/>
<path d="M430.435,261.734C428.447,260.095 425.734,263.073 425.734,263.073L424.143,248.327C424.143,248.327 414.2,249.554 407.837,247.918C401.474,246.281 400.48,253.857 400.48,253.857C400.152,250.797 400.085,247.713 400.281,244.641C400.678,240.954 405.849,237.268 414.996,234.81C424.143,232.352 428.915,243.002 428.915,243.002C435.279,246.279 432.424,263.372 430.435,261.734Z" fill="#2F2E41"/>
</svg>
