<svg width="44" height="38" viewBox="0 0 44 38" fill="none" xmlns="http://www.w3.org/2000/svg" xmlns:xlink="http://www.w3.org/1999/xlink">
<path d="M21.415,12L27.755,18.32L27.755,18C27.755,16.409 27.123,14.883 25.997,13.757C24.872,12.632 23.346,12 21.755,12L21.415,12ZM12.815,13.6L15.915,16.7C15.815,17.12 15.755,17.54 15.755,18C15.755,19.591 16.387,21.117 17.512,22.243C18.637,23.368 20.164,24 21.755,24C22.195,24 22.635,23.94 23.055,23.84L26.155,26.94C24.815,27.6 23.335,28 21.755,28C19.103,28 16.559,26.946 14.684,25.071C12.808,23.196 11.755,20.652 11.755,18C11.755,16.42 12.155,14.94 12.815,13.6ZM1.755,2.54L6.315,7.1L7.215,8C3.915,10.6 1.315,14 -0.245,18C3.215,26.78 11.755,33 21.755,33C24.855,33 27.815,32.4 30.515,31.32L31.375,32.16L37.215,38L39.755,35.46L4.295,0M21.755,8C24.407,8 26.951,9.054 28.826,10.929C30.701,12.804 31.755,15.348 31.755,18C31.755,19.28 31.495,20.52 31.035,21.64L36.895,27.5C39.895,25 42.295,21.72 43.755,18C40.295,9.22 31.755,3 21.755,3C18.955,3 16.275,3.5 13.755,4.4L18.095,8.7C19.235,8.26 20.455,8 21.755,8Z" fill="#000000"/>
</svg>
