<svg width="20" height="18" viewBox="0 0 20 18" fill="none" xmlns="http://www.w3.org/2000/svg" xmlns:xlink="http://www.w3.org/1999/xlink">
<path d="M16.236,16.34L3.077,16.34C1.381,16.34 0,15.133 0,13.649L0,2.144C0,0.662 1.379,-0.546 3.077,-0.546L16.236,-0.546C17.932,-0.546 19.313,0.66 19.313,2.144L19.313,13.649C19.313,15.132 17.933,16.34 16.236,16.34ZM3.077,-0.253C1.565,-0.253 0.335,0.823 0.335,2.144L0.335,13.649C0.335,14.971 1.565,16.047 3.077,16.047L16.236,16.047C17.747,16.047 18.978,14.971 18.978,13.649L18.978,2.144C18.978,0.823 17.747,-0.253 16.236,-0.253L3.077,-0.253Z" fill="#CCCCCC"/>
</svg>
