<svg width="44" height="36" viewBox="0 0 44 36" fill="none" xmlns="http://www.w3.org/2000/svg" xmlns:xlink="http://www.w3.org/1999/xlink">
<path d="M2,2.54L4.56,0L38,33.44L35.46,36L29.3,29.84C27,30.6 24.56,31 22,31C12,31 3.46,24.78 0,16C1.38,12.48 3.58,9.38 6.38,6.92L2,2.54ZM22,10C23.591,10 25.117,10.632 26.243,11.757C27.368,12.883 28,14.409 28,16C28.001,16.681 27.886,17.357 27.66,18L20,10.34C20.643,10.114 21.319,9.999 22,10ZM22,1C32,1 40.54,7.22 44,16C42.367,20.146 39.593,23.745 36,26.38L33.16,23.52C35.926,21.607 38.157,19.018 39.64,16C38.023,12.7 35.513,9.919 32.395,7.975C29.276,6.03 25.675,5 22,5C19.82,5 17.68,5.36 15.68,6L12.6,2.94C15.48,1.7 18.66,1 22,1ZM4.36,16C5.977,19.3 8.487,22.081 11.605,24.025C14.724,25.97 18.325,27 22,27C23.38,27 24.74,26.86 26,26.58L21.44,22C20.048,21.851 18.75,21.23 17.76,20.24C16.77,19.25 16.149,17.952 16,16.56L9.2,9.74C7.22,11.44 5.56,13.56 4.36,16Z" fill="#000000"/>
</svg>
