<svg width="6" height="8" viewBox="0 0 6 8" fill="none" xmlns="http://www.w3.org/2000/svg" xmlns:xlink="http://www.w3.org/1999/xlink">
<path d="M4.16,2.071C4.064,1.647 3.879,1.308 3.646,1.13C3.412,0.951 3.149,0.948 2.913,1.119L-0.397,3.544C-0.632,3.716 -0.819,4.05 -0.917,4.472C-1.016,4.894 -1.018,5.37 -0.922,5.794C-0.827,6.218 -0.643,6.557 -0.409,6.736C-0.176,6.914 0.087,6.918 0.323,6.747L3.633,4.322C3.868,4.149 4.055,3.815 4.154,3.393C4.252,2.971 4.255,2.496 4.16,2.071ZM3.537,3.894L0.227,6.32C0.054,6.446 -0.139,6.443 -0.31,6.312C-0.481,6.181 -0.617,5.933 -0.687,5.621C-0.757,5.31 -0.756,4.961 -0.683,4.652C-0.611,4.342 -0.474,4.097 -0.301,3.97L3.009,1.546C3.181,1.419 3.375,1.422 3.546,1.552C3.717,1.683 3.853,1.931 3.923,2.243C3.993,2.554 3.992,2.903 3.92,3.213C3.847,3.522 3.71,3.767 3.537,3.894Z" fill="#64CACB"/>
</svg>
