<svg width="20" height="18" viewBox="0 0 20 18" fill="none" xmlns="http://www.w3.org/2000/svg" xmlns:xlink="http://www.w3.org/1999/xlink">
<path d="M16.81,16.34L3.651,16.34C1.955,16.34 0.574,15.133 0.574,13.649L0.574,2.144C0.574,0.662 1.953,-0.546 3.651,-0.546L16.81,-0.546C18.506,-0.546 19.887,0.66 19.887,2.144L19.887,13.649C19.887,15.132 18.507,16.34 16.81,16.34ZM3.651,-0.253C2.139,-0.253 0.909,0.823 0.909,2.144L0.909,13.649C0.909,14.971 2.139,16.047 3.651,16.047L16.81,16.047C18.321,16.047 19.552,14.971 19.552,13.649L19.552,2.144C19.552,0.823 18.321,-0.253 16.81,-0.253L3.651,-0.253Z" fill="#CCCCCC"/>
</svg>
