<svg width="10" height="20" viewBox="0 0 10 20" fill="none" xmlns="http://www.w3.org/2000/svg" xmlns:xlink="http://www.w3.org/1999/xlink">
<path d="M1.004,19.881C2.866,19.827 5.182,19.76 6.967,18.413C7.498,17.995 7.935,17.463 8.246,16.852C8.557,16.242 8.736,15.568 8.768,14.879C8.805,13.815 8.433,12.886 7.721,12.265C6.789,11.45 5.428,11.26 3.961,11.705L5.481,0.226L4.365,0.068L2.579,13.563L3.51,13.121C4.59,12.609 6.073,12.349 6.994,13.153C7.22,13.364 7.397,13.625 7.509,13.917C7.622,14.21 7.668,14.525 7.643,14.838C7.616,15.351 7.482,15.852 7.251,16.307C7.019,16.761 6.696,17.159 6.303,17.473C4.914,18.522 3.067,18.657 0.973,18.717L1.004,19.881Z" fill="#3F3D56"/>
</svg>
