<svg width="32" height="6" viewBox="0 0 32 6" fill="none" xmlns="http://www.w3.org/2000/svg" xmlns:xlink="http://www.w3.org/1999/xlink">
<path d="M27.837,4.127L1.529,4.127C0.229,4.127 -0.829,3.202 -0.829,2.064C-0.829,0.927 0.229,0.002 1.529,0.002L27.837,0.002C29.138,0.002 30.196,0.927 30.196,2.064C30.196,3.202 29.138,4.127 27.837,4.127ZM1.531,0.293C0.415,0.293 -0.493,1.088 -0.493,2.063C-0.493,3.038 0.416,3.833 1.531,3.833L27.838,3.833C28.955,3.833 29.862,3.038 29.862,2.063C29.862,1.088 28.953,0.293 27.838,0.293L1.531,0.293Z" fill="#CCCCCC"/>
</svg>
