<svg width="24" height="28" viewBox="0 0 24 28" fill="none" xmlns="http://www.w3.org/2000/svg" xmlns:xlink="http://www.w3.org/1999/xlink">
<path d="M23.885,28.001L0.117,28.001L0.095,27.778L0.081,27.629L-0.123,25.549L-0.412,22.586L-0.524,21.447C-0.531,21.39 -0.539,21.334 -0.545,21.277C-0.643,20.535 -0.698,19.791 -0.718,19.048C-0.748,18.026 -0.709,17.006 -0.618,15.999L-0.618,15.994C-0.568,15.449 -0.505,14.911 -0.426,14.378C-0.327,13.692 -0.208,13.018 -0.07,12.359C0.087,11.593 0.267,10.848 0.463,10.13C0.689,9.288 0.936,8.482 1.191,7.72C1.219,7.639 1.247,7.557 1.273,7.477L1.275,7.475C2.62,3.535 4.148,0.844 4.148,0.844L21.463,0.844C21.463,0.844 22.264,5.066 22.661,8.552C22.725,9.104 22.777,9.635 22.816,10.13C22.886,11.042 22.906,11.825 22.845,12.359C22.808,12.689 22.74,12.923 22.635,13.031C21.683,14.008 22.773,16.081 22.773,16.081C22.773,16.081 23.589,17.58 22.878,18.423C22.737,18.591 22.657,18.806 22.618,19.048C22.556,19.447 22.61,19.911 22.695,20.322C22.78,20.734 22.898,21.093 22.963,21.277C22.992,21.358 23.011,21.405 23.011,21.405L23.131,22.551L23.249,23.654L23.448,25.549L23.509,25.883L23.82,27.629L23.846,27.778L23.885,28.001Z" fill="#2F2E41"/>
</svg>
