<svg width="44" height="40" viewBox="0 0 44 40" fill="none" xmlns="http://www.w3.org/2000/svg" xmlns:xlink="http://www.w3.org/1999/xlink">
<path d="M1.563,7.031L42.188,7.031C43.05,7.031 43.75,6.332 43.75,5.469L43.75,1.563C43.75,0.7 43.05,0 42.188,0L1.563,0C0.7,0 0,0.7 0,1.563L0,5.469C0,6.332 0.7,7.031 1.563,7.031ZM1.563,22.656L42.188,22.656C43.05,22.656 43.75,21.957 43.75,21.094L43.75,17.188C43.75,16.325 43.05,15.625 42.188,15.625L1.563,15.625C0.7,15.625 0,16.325 0,17.188L0,21.094C0,21.957 0.7,22.656 1.563,22.656ZM1.563,38.281L42.188,38.281C43.05,38.281 43.75,37.582 43.75,36.719L43.75,32.812C43.75,31.95 43.05,31.25 42.188,31.25L1.563,31.25C0.7,31.25 0,31.95 0,32.812L0,36.719C0,37.582 0.7,38.281 1.563,38.281Z" fill="#000000"/>
</svg>
