<svg width="44" height="44" viewBox="0 0 44 44" fill="none" xmlns="http://www.w3.org/2000/svg" xmlns:xlink="http://www.w3.org/1999/xlink">
<path d="M25.151,39.79L22.983,41.958C22.065,42.876 20.581,42.876 19.673,41.958L0.688,22.983C-0.229,22.065 -0.229,20.581 0.688,19.673L19.673,0.688C20.591,-0.229 22.075,-0.229 22.983,0.688L25.151,2.856C26.079,3.784 26.06,5.298 25.112,6.206L13.345,17.417L41.411,17.417C42.71,17.417 43.755,18.462 43.755,19.761L43.755,22.886C43.755,24.185 42.71,25.229 41.411,25.229L13.345,25.229L25.112,36.44C26.069,37.349 26.089,38.862 25.151,39.79Z" fill="#000000" stroke="#FFFFFF" stroke-width="0.5" stroke-miterlimit="3.999327"/>
</svg>
