<svg width="50" height="50" viewBox="0 0 50 50" fill="none" xmlns="http://www.w3.org/2000/svg" xmlns:xlink="http://www.w3.org/1999/xlink">
<path d="M25,0C11.193,0 0,11.193 0,25C0,29.04 0.967,32.843 2.668,36.22C6.781,44.388 14.99,49.997 25,50C38.807,50.002 50,38.807 50,25C50,11.193 38.807,0 25,0ZM25,5C27.33,5 30.007,8.972 31.34,14.815C29.317,14.945 27.199,15 25,15C22.792,15 20.673,14.917 18.648,14.782C19.979,9.157 22.67,5 25,5ZM16.162,7.057C15.022,9.155 14.185,11.82 13.616,14.332C11.767,14.082 10.092,13.72 8.684,13.363C10.622,10.71 13.2,8.472 16.162,7.057ZM33.874,7.042C36.59,8.447 39.33,10.678 41.311,13.408C39.904,13.76 38.183,14.073 36.344,14.315C35.775,11.803 34.817,9.01 33.874,7.042ZM6.311,17.875C8.206,18.452 10.162,18.883 12.793,19.235C12.577,21.137 12.5,22.962 12.5,25C12.5,27.037 12.595,28.895 12.811,30.797C10.13,31.157 8.186,31.508 6.262,32.093C5.378,29.835 5,27.57 5,25C5,22.43 5.427,20.132 6.311,17.875ZM43.667,17.887C44.55,20.145 45,22.43 45,25C45,27.57 44.569,29.842 43.686,32.1C41.766,31.515 39.824,31.122 37.153,30.765C37.364,28.882 37.5,27.01 37.5,25C37.5,22.962 37.363,21.102 37.147,19.197C39.771,18.835 41.771,18.463 43.667,17.887ZM17.82,19.717C20.137,19.885 22.472,20 25,20C27.514,20 29.889,19.885 32.195,19.71C32.406,21.468 32.5,23.07 32.5,25C32.5,26.93 32.433,28.49 32.222,30.245C29.908,30.075 27.52,30 25,30C22.473,30 20.108,30.09 17.785,30.263C17.568,28.485 17.5,26.96 17.5,25C17.5,23.07 17.609,21.472 17.82,19.717ZM25,35C27.196,35 29.301,35.082 31.323,35.212C29.917,41.065 27.34,45 25,45C22.67,45 20.039,40.875 18.596,35.208C20.624,35.073 22.788,35 25,35ZM13.628,35.695C14.196,38.208 15.186,40.965 16.129,42.935C13.361,41.62 10.703,39.355 8.677,36.64C10.11,36.278 11.731,35.948 13.628,35.695ZM36.351,35.69C38.232,35.935 39.861,36.29 41.291,36.647C39.48,39.082 36.82,41.493 33.898,42.903C34.964,40.728 35.782,38.202 36.351,35.69Z" fill="#50555C"/>
</svg>
