<svg width="20" height="18" viewBox="0 0 20 18" fill="none" xmlns="http://www.w3.org/2000/svg" xmlns:xlink="http://www.w3.org/1999/xlink">
<path d="M15.96,17.006L2.801,17.006C1.105,17.006 -0.276,15.799 -0.276,14.315L-0.276,2.81C-0.276,1.328 1.103,0.12 2.801,0.12L15.96,0.12C17.655,0.12 19.037,1.326 19.037,2.81L19.037,14.315C19.037,15.798 17.657,17.006 15.96,17.006ZM2.801,0.413C1.289,0.413 0.059,1.489 0.059,2.81L0.059,14.315C0.059,15.637 1.289,16.713 2.801,16.713L15.96,16.713C17.471,16.713 18.702,15.637 18.702,14.315L18.702,2.81C18.702,1.489 17.471,0.413 15.96,0.413L2.801,0.413Z" fill="#CCCCCC"/>
</svg>
