<svg width="20" height="18" viewBox="0 0 20 18" fill="none" xmlns="http://www.w3.org/2000/svg" xmlns:xlink="http://www.w3.org/1999/xlink">
<path d="M16.81,17.006L3.651,17.006C1.955,17.006 0.574,15.799 0.574,14.315L0.574,2.81C0.574,1.328 1.953,0.12 3.651,0.12L16.81,0.12C18.506,0.12 19.887,1.326 19.887,2.81L19.887,14.315C19.887,15.798 18.507,17.006 16.81,17.006ZM3.651,0.413C2.139,0.413 0.909,1.489 0.909,2.81L0.909,14.315C0.909,15.637 2.139,16.713 3.651,16.713L16.81,16.713C18.321,16.713 19.552,15.637 19.552,14.315L19.552,2.81C19.552,1.489 18.321,0.413 16.81,0.413L3.651,0.413Z" fill="#CCCCCC"/>
</svg>
