<svg width="18" height="18" viewBox="0 0 18 18" fill="none" xmlns="http://www.w3.org/2000/svg" xmlns:xlink="http://www.w3.org/1999/xlink">
<path d="M16.714,7.071L10.929,7.071L10.929,1.286C10.929,0.576 10.353,0 9.643,0L8.357,0C7.647,0 7.071,0.576 7.071,1.286L7.071,7.071L1.286,7.071C0.576,7.071 0,7.647 0,8.357L0,9.643C0,10.353 0.576,10.929 1.286,10.929L7.071,10.929L7.071,16.714C7.071,17.424 7.647,18 8.357,18L9.643,18C10.353,18 10.929,17.424 10.929,16.714L10.929,10.929L16.714,10.929C17.424,10.929 18,10.353 18,9.643L18,8.357C18,7.647 17.424,7.071 16.714,7.071Z" fill="#000000"/>
</svg>
