<svg width="20" height="18" viewBox="0 0 20 18" fill="none" xmlns="http://www.w3.org/2000/svg" xmlns:xlink="http://www.w3.org/1999/xlink">
<path d="M15.384,16.633L2.225,16.633C0.529,16.633 -0.852,15.426 -0.852,13.942L-0.852,2.437C-0.852,0.955 0.528,-0.253 2.225,-0.253L15.384,-0.253C17.08,-0.253 18.461,0.953 18.461,2.437L18.461,13.942C18.461,15.425 17.081,16.633 15.384,16.633ZM2.225,0.04C0.714,0.04 -0.517,1.116 -0.517,2.437L-0.517,13.942C-0.517,15.264 0.714,16.34 2.225,16.34L15.384,16.34C16.896,16.34 18.126,15.264 18.126,13.942L18.126,2.437C18.126,1.116 16.896,0.04 15.384,0.04L2.225,0.04Z" fill="#CCCCCC"/>
</svg>
