<svg width="52" height="42" viewBox="0 0 52 42" fill="none" xmlns="http://www.w3.org/2000/svg" xmlns:xlink="http://www.w3.org/1999/xlink">
<path d="M29.059,38.613L26.495,40.679C25.409,41.553 23.653,41.553 22.578,40.679L0.121,22.597C-0.965,21.722 -0.965,20.307 0.121,19.442L22.578,1.351C23.664,0.476 25.42,0.476 26.495,1.351L29.059,3.417C30.157,4.301 30.134,5.743 29.013,6.609L15.093,17.292L48.294,17.292C49.83,17.292 51.066,18.288 51.066,19.526L51.066,22.504C51.066,23.741 49.83,24.737 48.294,24.737L15.093,24.737L29.013,35.421C30.145,36.286 30.168,37.728 29.059,38.613Z" transform="rotate(-359.5 25.186 21.015)" fill="#0B8688" stroke="#FFFFFF" stroke-width="0.5" stroke-miterlimit="3.999327"/>
</svg>
